<svg width="386" height="51" viewBox="0 0 386 51" fill="none" xmlns="http://www.w3.org/2000/svg">
<rect width="386" height="51" rx="8" fill="#061A2A"/>
<path d="M35.9378 20.172L32.4518 30H29.4558L25.9698 20.172H28.5178L30.9538 27.592L33.4038 20.172H35.9378ZM40.6943 30.112C39.929 30.112 39.2383 29.9487 38.6223 29.622C38.0156 29.2953 37.535 28.8287 37.1803 28.222C36.835 27.6153 36.6623 26.906 36.6623 26.094C36.6623 25.2913 36.8396 24.5867 37.1943 23.98C37.549 23.364 38.0343 22.8927 38.6503 22.566C39.2663 22.2393 39.957 22.076 40.7223 22.076C41.4876 22.076 42.1783 22.2393 42.7943 22.566C43.4103 22.8927 43.8956 23.364 44.2503 23.98C44.605 24.5867 44.7823 25.2913 44.7823 26.094C44.7823 26.8967 44.6003 27.606 44.2363 28.222C43.8816 28.8287 43.3916 29.2953 42.7663 29.622C42.1503 29.9487 41.4596 30.112 40.6943 30.112ZM40.6943 28.04C41.1516 28.04 41.539 27.872 41.8563 27.536C42.183 27.2 42.3463 26.7193 42.3463 26.094C42.3463 25.4687 42.1876 24.988 41.8703 24.652C41.5623 24.316 41.1796 24.148 40.7223 24.148C40.2556 24.148 39.8683 24.316 39.5603 24.652C39.2523 24.9787 39.0983 25.4593 39.0983 26.094C39.0983 26.7193 39.2476 27.2 39.5463 27.536C39.8543 27.872 40.237 28.04 40.6943 28.04ZM50.6064 27.97V30H49.3884C48.5204 30 47.8437 29.79 47.3584 29.37C46.873 28.9407 46.6304 28.2453 46.6304 27.284V24.176H45.6784V22.188H46.6304V20.284H49.0244V22.188H50.5924V24.176H49.0244V27.312C49.0244 27.5453 49.0804 27.7133 49.1924 27.816C49.3044 27.9187 49.491 27.97 49.7524 27.97H50.6064ZM59.5039 25.968C59.5039 26.192 59.4899 26.4253 59.4619 26.668H54.0439C54.0812 27.1533 54.2352 27.5267 54.5059 27.788C54.7859 28.04 55.1265 28.166 55.5279 28.166C56.1252 28.166 56.5405 27.914 56.7739 27.41H59.3219C59.1912 27.9233 58.9532 28.3853 58.6079 28.796C58.2719 29.2067 57.8472 29.5287 57.3339 29.762C56.8205 29.9953 56.2465 30.112 55.6119 30.112C54.8465 30.112 54.1652 29.9487 53.5679 29.622C52.9705 29.2953 52.5039 28.8287 52.1679 28.222C51.8319 27.6153 51.6639 26.906 51.6639 26.094C51.6639 25.282 51.8272 24.5727 52.1539 23.966C52.4899 23.3593 52.9565 22.8927 53.5539 22.566C54.1512 22.2393 54.8372 22.076 55.6119 22.076C56.3679 22.076 57.0399 22.2347 57.6279 22.552C58.2159 22.8693 58.6732 23.322 58.9999 23.91C59.3359 24.498 59.5039 25.184 59.5039 25.968ZM57.0539 25.338C57.0539 24.9273 56.9139 24.6007 56.6339 24.358C56.3539 24.1153 56.0039 23.994 55.5839 23.994C55.1825 23.994 54.8419 24.1107 54.5619 24.344C54.2912 24.5773 54.1232 24.9087 54.0579 25.338H57.0539ZM63.3608 23.49C63.6408 23.0607 63.9908 22.7247 64.4108 22.482C64.8308 22.23 65.2975 22.104 65.8108 22.104V24.638H65.1528C64.5555 24.638 64.1075 24.7687 63.8088 25.03C63.5102 25.282 63.3608 25.73 63.3608 26.374V30H60.9668V22.188H63.3608V23.49ZM75.3339 30L73.2899 26.29H72.7159V30H70.3219V20.172H74.3399C75.1146 20.172 75.7726 20.3073 76.3139 20.578C76.8646 20.8487 77.2752 21.222 77.5459 21.698C77.8166 22.1647 77.9519 22.6873 77.9519 23.266C77.9519 23.9193 77.7652 24.5027 77.3919 25.016C77.0279 25.5293 76.4866 25.8933 75.7679 26.108L78.0359 30H75.3339ZM72.7159 24.596H74.1999C74.6386 24.596 74.9652 24.4887 75.1799 24.274C75.4039 24.0593 75.5159 23.756 75.5159 23.364C75.5159 22.9907 75.4039 22.6967 75.1799 22.482C74.9652 22.2673 74.6386 22.16 74.1999 22.16H72.7159V24.596ZM87.0187 25.968C87.0187 26.192 87.0047 26.4253 86.9767 26.668H81.5587C81.5961 27.1533 81.7501 27.5267 82.0207 27.788C82.3007 28.04 82.6414 28.166 83.0427 28.166C83.6401 28.166 84.0554 27.914 84.2887 27.41H86.8367C86.7061 27.9233 86.4681 28.3853 86.1227 28.796C85.7867 29.2067 85.3621 29.5287 84.8487 29.762C84.3354 29.9953 83.7614 30.112 83.1267 30.112C82.3614 30.112 81.6801 29.9487 81.0827 29.622C80.4854 29.2953 80.0187 28.8287 79.6827 28.222C79.3467 27.6153 79.1787 26.906 79.1787 26.094C79.1787 25.282 79.3421 24.5727 79.6687 23.966C80.0047 23.3593 80.4714 22.8927 81.0687 22.566C81.6661 22.2393 82.3521 22.076 83.1267 22.076C83.8827 22.076 84.5547 22.2347 85.1427 22.552C85.7307 22.8693 86.1881 23.322 86.5147 23.91C86.8507 24.498 87.0187 25.184 87.0187 25.968ZM84.5687 25.338C84.5687 24.9273 84.4287 24.6007 84.1487 24.358C83.8687 24.1153 83.5187 23.994 83.0987 23.994C82.6974 23.994 82.3567 24.1107 82.0767 24.344C81.8061 24.5773 81.6381 24.9087 81.5727 25.338H84.5687ZM90.8757 19.64V30H88.4817V19.64H90.8757ZM92.3346 26.08C92.3346 25.2773 92.4839 24.5727 92.7826 23.966C93.0906 23.3593 93.5059 22.8927 94.0286 22.566C94.5512 22.2393 95.1346 22.076 95.7786 22.076C96.3292 22.076 96.8099 22.188 97.2206 22.412C97.6406 22.636 97.9626 22.93 98.1866 23.294V22.188H100.581V30H98.1866V28.894C97.9532 29.258 97.6266 29.552 97.2066 29.776C96.7959 30 96.3152 30.112 95.7646 30.112C95.1299 30.112 94.5512 29.9487 94.0286 29.622C93.5059 29.286 93.0906 28.8147 92.7826 28.208C92.4839 27.592 92.3346 26.8827 92.3346 26.08ZM98.1866 26.094C98.1866 25.4967 98.0186 25.0253 97.6826 24.68C97.3559 24.3347 96.9546 24.162 96.4786 24.162C96.0026 24.162 95.5966 24.3347 95.2606 24.68C94.9339 25.016 94.7706 25.4827 94.7706 26.08C94.7706 26.6773 94.9339 27.1533 95.2606 27.508C95.5966 27.8533 96.0026 28.026 96.4786 28.026C96.9546 28.026 97.3559 27.8533 97.6826 27.508C98.0186 27.1627 98.1866 26.6913 98.1866 26.094ZM106.867 27.97V30H105.649C104.781 30 104.104 29.79 103.619 29.37C103.133 28.9407 102.891 28.2453 102.891 27.284V24.176H101.939V22.188H102.891V20.284H105.285V22.188H106.853V24.176H105.285V27.312C105.285 27.5453 105.341 27.7133 105.453 27.816C105.565 27.9187 105.751 27.97 106.013 27.97H106.867ZM109.604 21.376C109.184 21.376 108.839 21.2547 108.568 21.012C108.307 20.76 108.176 20.452 108.176 20.088C108.176 19.7147 108.307 19.4067 108.568 19.164C108.839 18.912 109.184 18.786 109.604 18.786C110.015 18.786 110.351 18.912 110.612 19.164C110.883 19.4067 111.018 19.7147 111.018 20.088C111.018 20.452 110.883 20.76 110.612 21.012C110.351 21.2547 110.015 21.376 109.604 21.376ZM110.794 22.188V30H108.4V22.188H110.794ZM116.285 30.112C115.52 30.112 114.829 29.9487 114.213 29.622C113.606 29.2953 113.126 28.8287 112.771 28.222C112.426 27.6153 112.253 26.906 112.253 26.094C112.253 25.2913 112.43 24.5867 112.785 23.98C113.14 23.364 113.625 22.8927 114.241 22.566C114.857 22.2393 115.548 22.076 116.313 22.076C117.078 22.076 117.769 22.2393 118.385 22.566C119.001 22.8927 119.486 23.364 119.841 23.98C120.196 24.5867 120.373 25.2913 120.373 26.094C120.373 26.8967 120.191 27.606 119.827 28.222C119.472 28.8287 118.982 29.2953 118.357 29.622C117.741 29.9487 117.05 30.112 116.285 30.112ZM116.285 28.04C116.742 28.04 117.13 27.872 117.447 27.536C117.774 27.2 117.937 26.7193 117.937 26.094C117.937 25.4687 117.778 24.988 117.461 24.652C117.153 24.316 116.77 24.148 116.313 24.148C115.846 24.148 115.459 24.316 115.151 24.652C114.843 24.9787 114.689 25.4593 114.689 26.094C114.689 26.7193 114.838 27.2 115.137 27.536C115.445 27.872 115.828 28.04 116.285 28.04ZM126.603 22.104C127.518 22.104 128.246 22.4027 128.787 23C129.338 23.588 129.613 24.4 129.613 25.436V30H127.233V25.758C127.233 25.2353 127.098 24.8293 126.827 24.54C126.556 24.2507 126.192 24.106 125.735 24.106C125.278 24.106 124.914 24.2507 124.643 24.54C124.372 24.8293 124.237 25.2353 124.237 25.758V30H121.843V22.188H124.237V23.224C124.48 22.8787 124.806 22.608 125.217 22.412C125.628 22.2067 126.09 22.104 126.603 22.104ZM134.655 30.112C133.973 30.112 133.367 29.9953 132.835 29.762C132.303 29.5287 131.883 29.2113 131.575 28.81C131.267 28.3993 131.094 27.942 131.057 27.438H133.423C133.451 27.7087 133.577 27.928 133.801 28.096C134.025 28.264 134.3 28.348 134.627 28.348C134.925 28.348 135.154 28.292 135.313 28.18C135.481 28.0587 135.565 27.9047 135.565 27.718C135.565 27.494 135.448 27.3307 135.215 27.228C134.981 27.116 134.603 26.9947 134.081 26.864C133.521 26.7333 133.054 26.598 132.681 26.458C132.307 26.3087 131.985 26.08 131.715 25.772C131.444 25.4547 131.309 25.03 131.309 24.498C131.309 24.05 131.43 23.644 131.673 23.28C131.925 22.9067 132.289 22.6127 132.765 22.398C133.25 22.1833 133.824 22.076 134.487 22.076C135.467 22.076 136.237 22.3187 136.797 22.804C137.366 23.2893 137.693 23.9333 137.777 24.736H135.565C135.527 24.4653 135.406 24.2507 135.201 24.092C135.005 23.9333 134.743 23.854 134.417 23.854C134.137 23.854 133.922 23.91 133.773 24.022C133.623 24.1247 133.549 24.2693 133.549 24.456C133.549 24.68 133.665 24.848 133.899 24.96C134.141 25.072 134.515 25.184 135.019 25.296C135.597 25.4453 136.069 25.5947 136.433 25.744C136.797 25.884 137.114 26.1173 137.385 26.444C137.665 26.7613 137.809 27.1907 137.819 27.732C137.819 28.1893 137.688 28.6 137.427 28.964C137.175 29.3187 136.806 29.5987 136.321 29.804C135.845 30.0093 135.289 30.112 134.655 30.112ZM144.285 22.104C145.181 22.104 145.9 22.4027 146.441 23C146.983 23.588 147.253 24.4 147.253 25.436V30H144.873V25.758C144.873 25.2353 144.738 24.8293 144.467 24.54C144.197 24.2507 143.833 24.106 143.375 24.106C142.918 24.106 142.554 24.2507 142.283 24.54C142.013 24.8293 141.877 25.2353 141.877 25.758V30H139.483V19.64H141.877V23.238C142.12 22.8927 142.451 22.6173 142.871 22.412C143.291 22.2067 143.763 22.104 144.285 22.104ZM150.321 21.376C149.901 21.376 149.555 21.2547 149.285 21.012C149.023 20.76 148.893 20.452 148.893 20.088C148.893 19.7147 149.023 19.4067 149.285 19.164C149.555 18.912 149.901 18.786 150.321 18.786C150.731 18.786 151.067 18.912 151.329 19.164C151.599 19.4067 151.735 19.7147 151.735 20.088C151.735 20.452 151.599 20.76 151.329 21.012C151.067 21.2547 150.731 21.376 150.321 21.376ZM151.511 22.188V30H149.117V22.188H151.511ZM155.84 23.294C156.073 22.93 156.395 22.636 156.806 22.412C157.216 22.188 157.697 22.076 158.248 22.076C158.892 22.076 159.475 22.2393 159.998 22.566C160.52 22.8927 160.931 23.3593 161.23 23.966C161.538 24.5727 161.692 25.2773 161.692 26.08C161.692 26.8827 161.538 27.592 161.23 28.208C160.931 28.8147 160.52 29.286 159.998 29.622C159.475 29.9487 158.892 30.112 158.248 30.112C157.706 30.112 157.226 30 156.806 29.776C156.395 29.552 156.073 29.2627 155.84 28.908V33.724H153.446V22.188H155.84V23.294ZM159.256 26.08C159.256 25.4827 159.088 25.016 158.752 24.68C158.425 24.3347 158.019 24.162 157.534 24.162C157.058 24.162 156.652 24.3347 156.316 24.68C155.989 25.0253 155.826 25.4967 155.826 26.094C155.826 26.6913 155.989 27.1627 156.316 27.508C156.652 27.8533 157.058 28.026 157.534 28.026C158.01 28.026 158.416 27.8533 158.752 27.508C159.088 27.1533 159.256 26.6773 159.256 26.08ZM177.444 20.172V30H175.05V24.106L172.852 30H170.92L168.708 24.092V30H166.314V20.172H169.142L171.9 26.976L174.63 20.172H177.444ZM178.89 26.08C178.89 25.2773 179.039 24.5727 179.338 23.966C179.646 23.3593 180.061 22.8927 180.584 22.566C181.107 22.2393 181.69 22.076 182.334 22.076C182.885 22.076 183.365 22.188 183.776 22.412C184.196 22.636 184.518 22.93 184.742 23.294V22.188H187.136V30H184.742V28.894C184.509 29.258 184.182 29.552 183.762 29.776C183.351 30 182.871 30.112 182.32 30.112C181.685 30.112 181.107 29.9487 180.584 29.622C180.061 29.286 179.646 28.8147 179.338 28.208C179.039 27.592 178.89 26.8827 178.89 26.08ZM184.742 26.094C184.742 25.4967 184.574 25.0253 184.238 24.68C183.911 24.3347 183.51 24.162 183.034 24.162C182.558 24.162 182.152 24.3347 181.816 24.68C181.489 25.016 181.326 25.4827 181.326 26.08C181.326 26.6773 181.489 27.1533 181.816 27.508C182.152 27.8533 182.558 28.026 183.034 28.026C183.51 28.026 183.911 27.8533 184.238 27.508C184.574 27.1627 184.742 26.6913 184.742 26.094ZM193.828 22.104C194.743 22.104 195.471 22.4027 196.012 23C196.563 23.588 196.838 24.4 196.838 25.436V30H194.458V25.758C194.458 25.2353 194.323 24.8293 194.052 24.54C193.781 24.2507 193.417 24.106 192.96 24.106C192.503 24.106 192.139 24.2507 191.868 24.54C191.597 24.8293 191.462 25.2353 191.462 25.758V30H189.068V22.188H191.462V23.224C191.705 22.8787 192.031 22.608 192.442 22.412C192.853 22.2067 193.315 22.104 193.828 22.104ZM198.226 26.08C198.226 25.2773 198.375 24.5727 198.674 23.966C198.982 23.3593 199.397 22.8927 199.92 22.566C200.442 22.2393 201.026 22.076 201.67 22.076C202.22 22.076 202.701 22.188 203.112 22.412C203.532 22.636 203.854 22.93 204.078 23.294V22.188H206.472V30H204.078V28.894C203.844 29.258 203.518 29.552 203.098 29.776C202.687 30 202.206 30.112 201.656 30.112C201.021 30.112 200.442 29.9487 199.92 29.622C199.397 29.286 198.982 28.8147 198.674 28.208C198.375 27.592 198.226 26.8827 198.226 26.08ZM204.078 26.094C204.078 25.4967 203.91 25.0253 203.574 24.68C203.247 24.3347 202.846 24.162 202.37 24.162C201.894 24.162 201.488 24.3347 201.152 24.68C200.825 25.016 200.662 25.4827 200.662 26.08C200.662 26.6773 200.825 27.1533 201.152 27.508C201.488 27.8533 201.894 28.026 202.37 28.026C202.846 28.026 203.247 27.8533 203.574 27.508C203.91 27.1627 204.078 26.6913 204.078 26.094ZM211.372 22.076C211.922 22.076 212.403 22.188 212.814 22.412C213.234 22.636 213.556 22.93 213.78 23.294V22.188H216.174V29.986C216.174 30.7047 216.029 31.3533 215.74 31.932C215.46 32.52 215.026 32.9867 214.438 33.332C213.859 33.6773 213.136 33.85 212.268 33.85C211.11 33.85 210.172 33.5747 209.454 33.024C208.735 32.4827 208.324 31.7453 208.222 30.812H210.588C210.662 31.1107 210.84 31.344 211.12 31.512C211.4 31.6893 211.745 31.778 212.156 31.778C212.65 31.778 213.042 31.6333 213.332 31.344C213.63 31.064 213.78 30.6113 213.78 29.986V28.88C213.546 29.244 213.224 29.5427 212.814 29.776C212.403 30 211.922 30.112 211.372 30.112C210.728 30.112 210.144 29.9487 209.622 29.622C209.099 29.286 208.684 28.8147 208.376 28.208C208.077 27.592 207.928 26.8827 207.928 26.08C207.928 25.2773 208.077 24.5727 208.376 23.966C208.684 23.3593 209.099 22.8927 209.622 22.566C210.144 22.2393 210.728 22.076 211.372 22.076ZM213.78 26.094C213.78 25.4967 213.612 25.0253 213.276 24.68C212.949 24.3347 212.548 24.162 212.072 24.162C211.596 24.162 211.19 24.3347 210.854 24.68C210.527 25.016 210.364 25.4827 210.364 26.08C210.364 26.6773 210.527 27.1533 210.854 27.508C211.19 27.8533 211.596 28.026 212.072 28.026C212.548 28.026 212.949 27.8533 213.276 27.508C213.612 27.1627 213.78 26.6913 213.78 26.094ZM225.47 25.968C225.47 26.192 225.456 26.4253 225.428 26.668H220.01C220.047 27.1533 220.201 27.5267 220.472 27.788C220.752 28.04 221.092 28.166 221.494 28.166C222.091 28.166 222.506 27.914 222.74 27.41H225.288C225.157 27.9233 224.919 28.3853 224.574 28.796C224.238 29.2067 223.813 29.5287 223.3 29.762C222.786 29.9953 222.212 30.112 221.578 30.112C220.812 30.112 220.131 29.9487 219.534 29.622C218.936 29.2953 218.47 28.8287 218.134 28.222C217.798 27.6153 217.63 26.906 217.63 26.094C217.63 25.282 217.793 24.5727 218.12 23.966C218.456 23.3593 218.922 22.8927 219.52 22.566C220.117 22.2393 220.803 22.076 221.578 22.076C222.334 22.076 223.006 22.2347 223.594 22.552C224.182 22.8693 224.639 23.322 224.966 23.91C225.302 24.498 225.47 25.184 225.47 25.968ZM223.02 25.338C223.02 24.9273 222.88 24.6007 222.6 24.358C222.32 24.1153 221.97 23.994 221.55 23.994C221.148 23.994 220.808 24.1107 220.528 24.344C220.257 24.5773 220.089 24.9087 220.024 25.338H223.02ZM236.9 22.104C237.871 22.104 238.641 22.398 239.21 22.986C239.789 23.574 240.078 24.3907 240.078 25.436V30H237.698V25.758C237.698 25.254 237.563 24.8667 237.292 24.596C237.031 24.316 236.667 24.176 236.2 24.176C235.734 24.176 235.365 24.316 235.094 24.596C234.833 24.8667 234.702 25.254 234.702 25.758V30H232.322V25.758C232.322 25.254 232.187 24.8667 231.916 24.596C231.655 24.316 231.291 24.176 230.824 24.176C230.358 24.176 229.989 24.316 229.718 24.596C229.457 24.8667 229.326 25.254 229.326 25.758V30H226.932V22.188H229.326V23.168C229.569 22.8413 229.886 22.5847 230.278 22.398C230.67 22.202 231.114 22.104 231.608 22.104C232.196 22.104 232.719 22.23 233.176 22.482C233.643 22.734 234.007 23.0933 234.268 23.56C234.539 23.1307 234.908 22.7807 235.374 22.51C235.841 22.2393 236.35 22.104 236.9 22.104ZM249.317 25.968C249.317 26.192 249.303 26.4253 249.275 26.668H243.857C243.894 27.1533 244.048 27.5267 244.319 27.788C244.599 28.04 244.939 28.166 245.341 28.166C245.938 28.166 246.353 27.914 246.587 27.41H249.135C249.004 27.9233 248.766 28.3853 248.421 28.796C248.085 29.2067 247.66 29.5287 247.147 29.762C246.633 29.9953 246.059 30.112 245.425 30.112C244.659 30.112 243.978 29.9487 243.381 29.622C242.783 29.2953 242.317 28.8287 241.981 28.222C241.645 27.6153 241.477 26.906 241.477 26.094C241.477 25.282 241.64 24.5727 241.967 23.966C242.303 23.3593 242.769 22.8927 243.367 22.566C243.964 22.2393 244.65 22.076 245.425 22.076C246.181 22.076 246.853 22.2347 247.441 22.552C248.029 22.8693 248.486 23.322 248.813 23.91C249.149 24.498 249.317 25.184 249.317 25.968ZM246.867 25.338C246.867 24.9273 246.727 24.6007 246.447 24.358C246.167 24.1153 245.817 23.994 245.397 23.994C244.995 23.994 244.655 24.1107 244.375 24.344C244.104 24.5773 243.936 24.9087 243.871 25.338H246.867ZM255.54 22.104C256.454 22.104 257.182 22.4027 257.724 23C258.274 23.588 258.55 24.4 258.55 25.436V30H256.17V25.758C256.17 25.2353 256.034 24.8293 255.764 24.54C255.493 24.2507 255.129 24.106 254.672 24.106C254.214 24.106 253.85 24.2507 253.58 24.54C253.309 24.8293 253.174 25.2353 253.174 25.758V30H250.78V22.188H253.174V23.224C253.416 22.8787 253.743 22.608 254.154 22.412C254.564 22.2067 255.026 22.104 255.54 22.104ZM264.767 27.97V30H263.549C262.681 30 262.005 29.79 261.519 29.37C261.034 28.9407 260.791 28.2453 260.791 27.284V24.176H259.839V22.188H260.791V20.284H263.185V22.188H264.753V24.176H263.185V27.312C263.185 27.5453 263.241 27.7133 263.353 27.816C263.465 27.9187 263.652 27.97 263.913 27.97H264.767ZM273.024 30.098C272.305 30.098 271.661 29.9813 271.092 29.748C270.522 29.5147 270.065 29.1693 269.72 28.712C269.384 28.2547 269.206 27.704 269.188 27.06H271.736C271.773 27.424 271.899 27.704 272.114 27.9C272.328 28.0867 272.608 28.18 272.954 28.18C273.308 28.18 273.588 28.1007 273.794 27.942C273.999 27.774 274.102 27.5453 274.102 27.256C274.102 27.0133 274.018 26.8127 273.85 26.654C273.691 26.4953 273.49 26.3647 273.248 26.262C273.014 26.1593 272.678 26.0427 272.24 25.912C271.605 25.716 271.087 25.52 270.686 25.324C270.284 25.128 269.939 24.8387 269.65 24.456C269.36 24.0733 269.216 23.574 269.216 22.958C269.216 22.0433 269.547 21.3293 270.21 20.816C270.872 20.2933 271.736 20.032 272.8 20.032C273.882 20.032 274.755 20.2933 275.418 20.816C276.08 21.3293 276.435 22.048 276.482 22.972H273.892C273.873 22.6547 273.756 22.4073 273.542 22.23C273.327 22.0433 273.052 21.95 272.716 21.95C272.426 21.95 272.193 22.0293 272.016 22.188C271.838 22.3373 271.75 22.5567 271.75 22.846C271.75 23.1633 271.899 23.4107 272.198 23.588C272.496 23.7653 272.963 23.9567 273.598 24.162C274.232 24.3767 274.746 24.582 275.138 24.778C275.539 24.974 275.884 25.2587 276.174 25.632C276.463 26.0053 276.608 26.486 276.608 27.074C276.608 27.634 276.463 28.1427 276.174 28.6C275.894 29.0573 275.483 29.4213 274.942 29.692C274.4 29.9627 273.761 30.098 273.024 30.098ZM286.261 22.188L281.361 33.71H278.785L280.577 29.734L277.399 22.188H280.073L281.879 27.074L283.671 22.188H286.261ZM290.505 30.112C289.823 30.112 289.217 29.9953 288.685 29.762C288.153 29.5287 287.733 29.2113 287.425 28.81C287.117 28.3993 286.944 27.942 286.907 27.438H289.273C289.301 27.7087 289.427 27.928 289.651 28.096C289.875 28.264 290.15 28.348 290.477 28.348C290.775 28.348 291.004 28.292 291.163 28.18C291.331 28.0587 291.415 27.9047 291.415 27.718C291.415 27.494 291.298 27.3307 291.065 27.228C290.831 27.116 290.453 26.9947 289.931 26.864C289.371 26.7333 288.904 26.598 288.531 26.458C288.157 26.3087 287.835 26.08 287.565 25.772C287.294 25.4547 287.159 25.03 287.159 24.498C287.159 24.05 287.28 23.644 287.523 23.28C287.775 22.9067 288.139 22.6127 288.615 22.398C289.1 22.1833 289.674 22.076 290.337 22.076C291.317 22.076 292.087 22.3187 292.647 22.804C293.216 23.2893 293.543 23.9333 293.627 24.736H291.415C291.377 24.4653 291.256 24.2507 291.051 24.092C290.855 23.9333 290.593 23.854 290.267 23.854C289.987 23.854 289.772 23.91 289.623 24.022C289.473 24.1247 289.399 24.2693 289.399 24.456C289.399 24.68 289.515 24.848 289.749 24.96C289.991 25.072 290.365 25.184 290.869 25.296C291.447 25.4453 291.919 25.5947 292.283 25.744C292.647 25.884 292.964 26.1173 293.235 26.444C293.515 26.7613 293.659 27.1907 293.669 27.732C293.669 28.1893 293.538 28.6 293.277 28.964C293.025 29.3187 292.656 29.5987 292.171 29.804C291.695 30.0093 291.139 30.112 290.505 30.112ZM299.687 27.97V30H298.469C297.601 30 296.925 29.79 296.439 29.37C295.954 28.9407 295.711 28.2453 295.711 27.284V24.176H294.759V22.188H295.711V20.284H298.105V22.188H299.673V24.176H298.105V27.312C298.105 27.5453 298.161 27.7133 298.273 27.816C298.385 27.9187 298.572 27.97 298.833 27.97H299.687ZM308.585 25.968C308.585 26.192 308.571 26.4253 308.543 26.668H303.125C303.162 27.1533 303.316 27.5267 303.587 27.788C303.867 28.04 304.207 28.166 304.609 28.166C305.206 28.166 305.621 27.914 305.855 27.41H308.403C308.272 27.9233 308.034 28.3853 307.689 28.796C307.353 29.2067 306.928 29.5287 306.415 29.762C305.901 29.9953 305.327 30.112 304.693 30.112C303.927 30.112 303.246 29.9487 302.649 29.622C302.051 29.2953 301.585 28.8287 301.249 28.222C300.913 27.6153 300.745 26.906 300.745 26.094C300.745 25.282 300.908 24.5727 301.235 23.966C301.571 23.3593 302.037 22.8927 302.635 22.566C303.232 22.2393 303.918 22.076 304.693 22.076C305.449 22.076 306.121 22.2347 306.709 22.552C307.297 22.8693 307.754 23.322 308.081 23.91C308.417 24.498 308.585 25.184 308.585 25.968ZM306.135 25.338C306.135 24.9273 305.995 24.6007 305.715 24.358C305.435 24.1153 305.085 23.994 304.665 23.994C304.263 23.994 303.923 24.1107 303.643 24.344C303.372 24.5773 303.204 24.9087 303.139 25.338H306.135ZM320.016 22.104C320.986 22.104 321.756 22.398 322.326 22.986C322.904 23.574 323.194 24.3907 323.194 25.436V30H320.814V25.758C320.814 25.254 320.678 24.8667 320.408 24.596C320.146 24.316 319.782 24.176 319.316 24.176C318.849 24.176 318.48 24.316 318.21 24.596C317.948 24.8667 317.818 25.254 317.818 25.758V30H315.438V25.758C315.438 25.254 315.302 24.8667 315.032 24.596C314.77 24.316 314.406 24.176 313.94 24.176C313.473 24.176 313.104 24.316 312.834 24.596C312.572 24.8667 312.442 25.254 312.442 25.758V30H310.048V22.188H312.442V23.168C312.684 22.8413 313.002 22.5847 313.394 22.398C313.786 22.202 314.229 22.104 314.724 22.104C315.312 22.104 315.834 22.23 316.292 22.482C316.758 22.734 317.122 23.0933 317.384 23.56C317.654 23.1307 318.023 22.7807 318.49 22.51C318.956 22.2393 319.465 22.104 320.016 22.104Z" fill="white"/>
<path d="M361 24.9514V25.5034C360.999 26.7973 360.58 28.0562 359.806 29.0925C359.031 30.1288 357.942 30.8869 356.701 31.2538C355.46 31.6206 354.134 31.5766 352.921 31.1282C351.707 30.6798 350.671 29.8511 349.967 28.7657C349.262 27.6803 348.928 26.3963 349.013 25.1052C349.098 23.8142 349.598 22.5852 350.439 21.6017C351.28 20.6181 352.416 19.9327 353.678 19.6475C354.94 19.3624 356.26 19.4928 357.442 20.0194" stroke="#55DF63" stroke-width="2" stroke-linecap="round" stroke-linejoin="round"/>
<path d="M361 20.7031L355 26.7091L353.2 24.9091" stroke="#55DF63" stroke-width="2" stroke-linecap="round" stroke-linejoin="round"/>
</svg>
