<svg width="427" height="434" viewBox="0 0 427 434" fill="none" xmlns="http://www.w3.org/2000/svg">
<path d="M180.705 0.0385549C122.942 1.06001 33.5712 23.0376 7.84805 79.5152C-1.13577 99.2405 -0.528584 128.24 0.688879 186.238C1.04668 203.285 1.63993 228.131 5.80346 258.961C14.4527 323.003 20.3402 366.6 42.6247 391.986C98.4623 455.595 300.161 453.757 386.293 339.239C433.278 276.769 440.506 187.902 397.545 114.459C350.243 33.6009 258.035 -1.32855 180.705 0.0385549Z" fill="#F4F7FA"/>
<path d="M216.163 32.1174L174.18 381.308C173.551 386.544 177.157 391.237 182.208 391.738L357.071 410.948C367.783 411.615 373.647 406.139 374.309 400.571L418.385 29.3227C419.042 23.7861 413.786 18.7734 403.029 18.7718L226.576 22.4903C221.468 22.5787 216.788 26.9094 216.163 32.1174Z" fill="url(#paint0_linear_63_84)"/>
<path d="M208.292 31.5158L166.079 382.453C165.446 387.715 169.064 392.432 174.135 392.937L355.418 410.999C361.101 411.565 366.31 407.451 366.975 401.856L411.299 28.6902C411.96 23.1256 407.786 18.6523 402.039 18.75L218.748 21.8453C213.619 21.929 208.921 26.2815 208.292 31.5158Z" fill="#1F335B"/>
<path d="M211.733 50.874L172.607 376.262C172.015 381.179 175.404 385.578 180.15 386.04L350.64 402.625C355.923 403.139 360.765 399.299 361.385 394.089L402.346 49.369C402.963 44.1873 399.087 39.9945 393.749 40.0519L221.509 41.8871C216.714 41.9382 212.32 45.9822 211.733 50.874Z" fill="#5CB85C"/>
<path d="M303.158 31.2758C302.935 33.1435 304.275 34.6393 306.153 34.616C308.033 34.5928 309.74 33.0552 309.963 31.1843C310.187 29.3119 308.841 27.8177 306.961 27.8441C305.084 27.8704 303.381 29.4065 303.158 31.2758Z" fill="url(#paint1_linear_63_84)"/>
<path d="M241.209 269.295C276.113 204.72 328.251 185.39 343.95 118.837C352.435 82.8631 346.654 48.4312 336.916 19.846L402.039 18.7471C407.784 18.6494 411.959 23.1227 411.299 28.6872L366.975 401.855C366.31 407.45 361.101 411.565 355.418 410.998L212.911 396.8C211.858 338.94 225.65 298.08 241.209 269.295Z" fill="white"/>
<path d="M369.778 71.8132L370.63 76.4152L353.092 76.457L200.892 76.8182C196.978 76.8275 193.375 80.0654 192.839 84.052L156.507 327.044C155.967 331.066 162.223 337.205 166.115 337.505L233.638 342.697V342.615L334.641 350.37C334.642 350.37 334.644 350.37 334.647 350.37L334.892 350.472C339.206 350.805 343.162 347.673 343.721 343.426C343.721 343.424 343.721 343.444 343.722 343.443L377.748 84.0071C378.298 79.7973 374.115 71.8023 369.778 71.8132Z" fill="#FFBF30"/>
<path d="M340.276 338.369C339.718 342.62 335.764 345.796 331.45 345.464L162.5 332.483C158.61 332.183 155.901 328.68 156.442 324.658L189.47 79.0827C190.006 75.0976 193.606 71.8581 197.518 71.8473L367.421 71.3792C371.756 71.3668 374.832 74.769 374.28 78.9773L340.276 338.369Z" fill="white"/>
<path opacity="0.4" d="M374.284 78.9773L340.277 338.369C339.72 342.618 335.513 345.775 331.202 345.445L229.73 337.649C224.91 332.71 220.94 326.783 218.107 319.672C216.716 316.184 215.697 312.421 215.021 308.464C213.138 297.511 213.867 285.062 216.615 272.84C218.728 263.433 222.04 254.144 226.281 245.764C229.671 239.064 233.66 232.938 238.114 227.79C241.321 224.086 244.79 220.485 248.449 216.954C252.86 212.693 257.549 208.533 262.385 204.413C273.655 194.805 285.722 185.41 296.895 175.49C322.675 152.604 343.589 127.032 338.558 90.5466C338.397 89.398 336.826 80.5971 334.819 71.4737L367.176 71.3854C371.507 71.3683 374.836 74.7706 374.284 78.9773Z" fill="white"/>
<path d="M312.779 416.338C312.825 416.346 312.87 416.352 312.917 416.36C320.392 417.555 329.76 416.719 335.813 411.741C339.002 409.118 341.163 405.658 341.826 401.56C342.219 399.13 342.433 396.566 342.054 394.122C341.656 391.563 340.667 389.09 339.394 386.844C338.683 385.59 337.872 384.38 337.012 383.225C334.546 379.916 328.722 375.264 331.423 370.572C333.056 367.736 336.82 365.989 339.306 364C344.619 359.749 348.435 353.618 348.49 346.617C348.531 341.118 345.087 335.674 341.199 331.976C325.379 316.93 337.034 291.052 314.628 293.084C292.223 295.117 287.361 317.492 295.753 338.385C298.563 345.379 301.981 352.529 303.89 359.839C305.392 365.594 303.268 369.573 298.586 372.973C296.066 374.802 292.384 376.05 290.195 378.206C285.307 383.021 281.39 389.769 282.556 396.834C283.713 403.84 289.683 408.988 295.973 411.649C301.41 413.951 306.961 415.406 312.779 416.338Z" fill="#E1E9FE"/>
<g opacity="0.8">
<path d="M315.418 410.327C315.471 410.327 315.524 410.318 315.576 410.299C315.815 410.212 315.939 409.947 315.85 409.709C315.756 409.45 306.472 383.51 314.6 362.722C322.863 341.593 313.62 318.976 313.527 318.749C313.43 318.515 313.16 318.404 312.925 318.502C312.689 318.599 312.579 318.869 312.677 319.104C312.77 319.328 321.867 341.611 313.742 362.385C305.485 383.501 314.889 409.761 314.985 410.023C315.054 410.211 315.229 410.327 315.418 410.327Z" fill="#E1E9FE"/>
</g>
<path d="M308.055 377.377C309.93 374.406 312.077 371.611 314.317 369.083C321.888 360.541 327.203 351.473 330.602 340.532C333.281 331.914 333.223 322.06 334.885 313.162C336.09 306.714 338.271 300.473 340.539 294.335C345.365 281.264 352.611 266.099 364.774 258.25C370.404 254.615 378.754 254.257 384.964 256.861C393.009 260.234 400.122 266.806 400.639 275.943C401.349 288.509 390.381 302.595 399.451 314.149C413.34 331.842 406.847 351.5 387.754 361.12C381.531 364.256 374.239 367.162 369.039 371.977C363.824 376.807 366.933 385.046 367.512 391.164C368.056 396.905 368.655 403.575 365 408.483C358.832 416.763 343.939 420.373 334.256 421.189C324.888 421.982 314.244 420.946 307.683 413.441C297.795 402.131 301.022 388.515 308.055 377.377Z" fill="#91B3FA"/>
<g opacity="0.8">
<path d="M323.301 413.399C323.487 413.399 323.662 413.286 323.731 413.101C324.035 412.297 354.326 332.303 371.611 300.066C371.731 299.841 371.646 299.562 371.423 299.441C371.199 299.32 370.92 299.405 370.799 299.628C353.486 331.918 323.174 411.968 322.869 412.774C322.779 413.013 322.898 413.278 323.137 413.368C323.191 413.39 323.247 413.399 323.301 413.399Z" fill="white"/>
</g>
<path d="M336.392 424.714C334.377 424.429 332.367 424.097 330.365 423.776C324.772 422.879 317.844 421.135 316.086 414.89C315.585 413.111 316.448 409.936 316.656 408.087C316.866 406.204 317.136 404.322 317.573 402.476C318.178 399.926 319.146 397.529 320.404 395.235C322.582 391.259 325.073 388.267 329.709 387.367C333.088 386.71 336.834 386.558 340.269 386.669C358.997 387.283 361.299 380.525 371.584 366.085C381.869 351.645 449.565 374.995 408.732 400.647C408.732 400.647 402.592 404.642 380.181 402.03C376.081 401.552 370.896 401.235 367.422 403.888C361.293 408.568 367.456 418.485 361.267 422.377C357.658 424.646 351.858 425.312 347.712 425.472C343.922 425.619 340.145 425.246 336.392 424.714Z" fill="#BDD0FB"/>
<g opacity="0.8">
<path d="M323.892 416.983C324.035 416.983 324.176 416.916 324.266 416.792C324.383 416.629 336.239 400.502 353.059 396.695C359.637 395.205 365.325 391.873 370.823 388.65C380.097 383.216 388.855 378.084 401.782 380.72C402.031 380.771 402.275 380.61 402.326 380.361C402.377 380.111 402.216 379.868 401.966 379.817C388.694 377.109 379.372 382.571 370.359 387.853C364.921 391.04 359.296 394.337 352.856 395.794C335.692 399.678 323.64 416.085 323.521 416.25C323.372 416.456 323.417 416.744 323.623 416.893C323.705 416.955 323.799 416.983 323.892 416.983Z" fill="white"/>
</g>
<path d="M335.257 121.049C336.64 121.072 337.995 120.02 338.16 118.701L342.215 86.1244C342.38 84.7976 341.386 83.7234 339.997 83.7234H312.673C311.318 83.7234 310.093 84.7836 309.933 86.0918C309.774 87.3985 310.64 88.4618 311.993 88.4633L336.69 88.5161L332.954 118.626C332.789 119.942 333.875 121.027 335.257 121.049Z" fill="#BCCBE4"/>
<path d="M296.546 215.654L323.404 217.23C324.771 217.311 326.01 216.322 326.171 215.02L330.167 182.91C330.33 181.603 329.249 180.497 327.876 180.438C326.505 180.379 325.164 181.391 325.003 182.694L321.319 212.385L297.014 211.002C295.682 210.926 294.524 211.906 294.368 213.188C294.212 214.473 295.214 215.576 296.546 215.654Z" fill="#BCCBE4"/>
<path d="M211.266 119.025C212.502 119.045 213.515 118.05 213.658 116.802L216.945 88.2634L239.802 88.3114C241.072 88.3145 242.277 87.2884 242.426 86.0205C242.575 84.7526 241.718 83.7234 240.447 83.7234H215.434C214.194 83.7234 213.072 84.7387 212.928 85.9895L209.397 116.734C209.254 117.979 210.03 119.005 211.266 119.025Z" fill="#BCCBE4"/>
<path d="M200.905 210.038L225.513 211.483C226.763 211.556 227.897 210.607 228.043 209.361C228.188 208.115 227.185 207.05 225.933 206.978L203.418 205.711L206.661 177.55C206.804 176.313 206.031 175.267 204.803 175.214C203.576 175.161 202.575 176.119 202.434 177.355L198.951 207.684C198.811 208.913 199.685 209.967 200.905 210.038Z" fill="#BCCBE4"/>
<path d="M275.12 286.328C275.383 284.328 273.97 282.486 271.963 282.371L225.721 279.714C223.807 279.604 222.038 281.218 221.777 283.166L219.869 297.559C219.609 299.509 220.938 301.375 222.851 301.506L269.07 304.669C271.077 304.807 272.925 303.11 273.19 301.109L275.12 286.328Z" fill="#5CB85C"/>
<path d="M81.4719 178.779L137.049 199.115L122.966 218.701L84.2708 190.627L81.4719 178.779Z" fill="white"/>
<path d="M122.24 218.002L126.473 202.208C126.642 201.577 127.121 201.076 127.743 200.878L135.141 198.528C135.149 198.525 135.152 198.525 135.169 198.518L135.226 198.5C135.248 198.494 135.27 198.494 135.29 198.489C135.305 198.486 135.322 198.484 135.339 198.481C135.355 198.48 135.37 198.475 135.387 198.475C135.767 198.416 136.481 198.418 137.049 199.115C136.626 199.421 136.244 199.405 135.932 199.272L130.641 216.311L122.965 218.701C122.765 218.763 122.547 218.712 122.396 218.566C122.246 218.421 122.186 218.205 122.24 218.002Z" fill="url(#paint2_linear_63_84)"/>
<path d="M123.504 217.999L127.672 202.705C127.842 202.082 128.313 201.587 128.927 201.387L136.507 198.921C136.674 198.867 136.859 198.911 136.986 199.035C137.111 199.159 137.158 199.343 137.105 199.512L132.1 215.663C131.975 216.069 131.657 216.387 131.253 216.512L124.229 218.699C124.029 218.761 123.81 218.71 123.659 218.565C123.507 218.417 123.448 218.202 123.504 217.999Z" fill="url(#paint3_linear_63_84)"/>
<path d="M144.221 212.183C147.357 214.947 141.619 235.664 125.329 241.84C112.485 246.708 97.1565 241.31 89.8037 230.622C85.5643 224.461 81.7245 213.457 86.4332 208.107C86.647 207.863 89.308 204.932 93.1014 205.142C101.884 205.624 102.452 222.148 111.87 224.171C114.083 224.647 114.879 223.911 133.371 215.841C142.291 211.948 143.471 211.523 144.221 212.183Z" fill="url(#paint4_linear_63_84)"/>
<path d="M120.24 220.426C120.24 220.426 119.455 217.359 121.34 215.944C123.225 214.529 124.012 210.832 124.326 212.168C124.641 213.506 124.326 215.079 124.326 215.079C124.326 215.079 131.086 209.179 131.007 211.225C130.928 213.27 126.055 220.113 122.911 221.451C119.769 222.787 120.29 222.992 120.24 220.426Z" fill="#22AAB7"/>
<path d="M143.375 212.403C143.375 212.403 143.481 208.051 145.733 207.054C147.986 206.058 150.553 201.025 150.397 203.593C150.24 206.163 147.934 207.369 147.934 207.369C147.934 207.369 151.654 208.71 150.029 210.793C148.405 212.876 146.571 213.295 144.684 214.239C144.684 214.239 144.173 215.824 142.876 215.589C141.58 215.353 142.694 213.112 143.375 212.403Z" fill="#22AAB7"/>
<path d="M64.3362 266.443C51.7929 272.455 39.8847 270.664 31.553 269.408C22.137 267.99 13.0695 266.626 9.51162 259.584C5.99089 252.615 9.13678 242.602 14.6975 237.157C21.2309 230.759 27.7488 233.944 32.2934 227.704C36.9494 221.31 31.4523 216.122 35.6267 208.984C40.8822 200 52.1708 203.81 57.668 194.712C62.1785 187.247 56.6504 181.149 61.1872 176.363C67.4774 169.724 85.8276 173.273 88.7675 181.095C89.9153 184.151 88.1743 186.433 86.8887 190.728C82.7979 204.393 91.1668 212.148 91.9335 224.554C92.9713 241.313 79.7976 259.031 64.3362 266.443Z" fill="#1F335B"/>
<path d="M55.8325 409.044C55.8325 409.044 68.3866 410.635 68.8653 413.49C69.4229 416.804 54.9063 413.894 54.9063 413.894C54.9063 413.894 52.6835 413.163 55.8325 409.044Z" fill="url(#paint5_linear_63_84)"/>
<path d="M56.6316 402.251L56.325 409.264C56.325 409.264 57.8599 411.21 59.618 409.802L61.0198 402.25H56.6316V402.251Z" fill="#22AAB7"/>
<path d="M76.2844 412.44C76.2844 412.44 88.8385 414.032 89.3172 416.887C89.8748 420.201 75.3582 417.29 75.3582 417.29C75.3582 417.29 73.1354 416.56 76.2844 412.44Z" fill="url(#paint6_linear_63_84)"/>
<path d="M77.0838 405.648L76.7771 412.66C76.7771 412.66 78.3121 414.607 80.0701 413.198L81.4719 405.646H77.0838V405.648Z" fill="#22AAB7"/>
<path d="M94.0154 290.051C93.3555 300.196 91.7307 314.798 87.3472 332.004C85.7704 338.193 84.1858 343.351 80.6171 354.073C76.356 366.874 70.3461 384.363 62.5147 405.483C60.244 405.83 57.9717 406.179 55.7009 406.526C50.9999 389.377 52.3506 375.894 57.1786 365.174C60.0379 358.823 61.7201 358.766 64.6631 351.676C67.7904 344.142 69.0682 336.553 68.2783 310.928C68.0537 303.673 67.6355 294.027 66.7898 282.617C75.865 285.094 84.9402 287.573 94.0154 290.051Z" fill="#202D48"/>
<path opacity="0.3" d="M94.0152 290.051C93.3553 300.196 91.7305 314.798 87.347 332.004C85.7702 338.193 84.1856 343.351 80.6169 354.073C76.3557 366.874 70.3459 384.363 62.5145 405.483C60.2437 405.83 57.9714 406.179 55.7007 406.526C51.6843 390.519 54.6257 382.115 58.2797 377.368C60.5365 374.435 63.3726 372.501 65.442 367.454C67.8769 361.516 66.1529 358.828 67.4168 351.876C69.1222 342.505 73.1696 342.365 74.5993 335.037C76.2845 326.394 71.5045 322.234 68.2781 310.928C66.4828 304.637 64.9045 295.209 66.7895 282.617C75.8647 285.094 84.9399 287.573 94.0152 290.051Z" fill="#202D48"/>
<path d="M78.2827 288.444C83.9936 295.644 100.044 317.799 100.508 350.047C100.942 380.125 87.567 401.548 82.2046 409.253C79.971 409.048 77.7375 408.845 75.5024 408.642C74.9386 402.275 74.652 392.711 76.6129 381.381C79.5358 364.504 84.1625 362.681 83.4654 353.057C82.5934 340.986 74.9664 339.048 63.0907 317.122C56.6921 305.306 49.0481 291.192 54.0155 285.967C54.9604 284.975 59.57 280.92 78.2827 288.444Z" fill="#1F335B"/>
<path d="M84.0912 200.109C92.1363 201.574 96.9582 207.095 98.2856 208.662C99.9368 210.609 104.821 216.962 104.915 233.214C105.005 248.795 100.559 250.597 99.2119 265.38C97.2246 287.18 105.604 297.414 99.7617 302.329C94.7881 306.512 88.7411 299.08 71.9832 299.884C58.1527 300.549 55.4886 305.937 43.5989 304.589C41.782 304.382 25.907 302.42 23.4566 294.107C21.7543 288.334 28.0197 284.545 36.607 270.567C44.8288 257.186 48.8715 244.732 50.8805 238.544C56.9399 219.881 54.426 214.778 61.2738 207.953C62.1304 207.104 71.7121 197.855 84.0912 200.109Z" fill="#FFBF30"/>
<path d="M75.964 185.303C75.964 185.303 77.6028 196.693 71.3559 202.807C70.9129 203.241 71.1189 203.99 71.7261 204.117C74.6273 204.728 81.3744 205.711 87.9202 203.511C88.4902 203.32 88.6172 202.566 88.1495 202.189C86.7817 201.09 84.4785 198.99 83.2502 196.466C81.4317 192.728 81.1065 186.348 81.1065 186.348L75.964 185.303Z" fill="#189BA8"/>
<g opacity="0.3">
<path d="M36.6086 270.569C44.8304 257.188 48.8731 244.734 50.882 238.546C56.9415 219.882 54.4276 214.78 61.2754 207.955C61.7137 207.518 64.46 204.866 68.7025 202.694C67.578 206.358 66.9058 210.669 67.5393 215.335C69.7 231.244 85.0484 236.776 83.0983 246.659C81.3155 255.692 67.6508 255.317 65.6883 265.008C63.6669 274.982 76.8948 281.532 74.209 288.548C71.6161 295.318 58.3169 291.761 45.1293 299.853C43.1219 301.086 41.3081 302.471 39.6678 303.959C34.2713 302.882 25.2565 300.204 23.4597 294.107C21.7543 288.334 28.0198 284.545 36.6086 270.569Z" fill="url(#paint7_linear_63_84)"/>
</g>
<path d="M75.7719 189.372C75.7719 189.372 78.5926 193.247 83.0163 191.632C86.9769 190.186 84.6133 179.948 81.472 178.781C80.4234 178.392 78.4996 178.564 77.2124 179.367C76.3079 179.931 73.8915 182.935 75.2763 186.301C74.2757 186.012 73.3943 186.275 73.1744 186.771C72.894 187.4 73.7413 188.256 73.9334 188.451C74.5994 189.122 75.4017 189.31 75.7719 189.372Z" fill="#22AAB7"/>
<path d="M124.892 220.636C123.402 220.073 121.91 219.512 120.42 218.949C119.543 220.546 113.688 230.825 102.731 232.386C92.3997 233.859 82.6971 226.843 78.1897 219.968C73.9147 213.447 74.7836 207.767 70.7812 206.53C66.754 205.286 61.7633 209.762 59.3903 212.833C53.7785 220.093 53.9768 230.923 57.4449 238.688C63.0845 251.315 78.2362 257.778 91.1528 256.462C111.163 254.424 120.434 234.263 121.997 230.624C123.69 226.682 124.484 223.15 124.892 220.636Z" fill="#FECD5F"/>
<path d="M53.2751 172.195C52.6974 172.204 52.1847 171.742 52.1847 171.162V156.887C52.1847 156.307 52.654 155.838 53.2318 155.838H64.6071C65.171 155.838 65.6279 156.301 65.6279 156.873C65.6279 157.445 65.2128 157.908 64.649 157.91L54.3609 157.933V171.13C54.364 171.708 53.8529 172.185 53.2751 172.195Z" fill="#BCCBE4"/>
<path d="M64.6089 214.062L53.2335 214.766C52.6557 214.801 52.1864 214.361 52.1864 213.781V199.506C52.1864 198.926 52.6975 198.435 53.2768 198.41C53.8546 198.384 54.3642 198.833 54.3642 199.411V212.608L64.6522 211.993C65.216 211.959 65.6513 212.396 65.6513 212.966C65.6513 213.537 65.1742 214.028 64.6089 214.062Z" fill="#BCCBE4"/>
<path d="M105.14 171.305C104.623 171.314 104.248 170.877 104.248 170.328V157.823L94.7249 157.843C94.1951 157.845 93.7444 157.395 93.7444 156.842C93.7444 156.287 94.1518 155.837 94.6799 155.837H105.093C105.611 155.837 106.029 156.281 106.029 156.828V170.299C106.031 170.846 105.657 171.297 105.14 171.305Z" fill="#BCCBE4"/>
<path d="M105.095 211.56L94.6814 212.203C94.1517 212.236 93.7227 211.813 93.7227 211.258C93.7227 210.703 94.1966 210.229 94.7264 210.198L104.249 209.634V197.128C104.249 196.579 104.624 196.116 105.141 196.093C105.659 196.069 106.03 196.494 106.03 197.041V210.512C106.03 211.06 105.612 211.528 105.095 211.56Z" fill="#BCCBE4"/>
<path d="M263.021 203.176C233.455 203.176 211.717 178.41 214.511 148.529C217.248 119.251 242.617 95.863 271.111 95.863C299.605 95.863 321.447 119.251 319.771 148.529C318.059 178.41 292.587 203.176 263.021 203.176Z" fill="#AABBCC"/>
<path d="M317.706 148.529C316.039 177.273 291.616 200.994 263.185 200.994C234.754 200.994 213.907 177.273 216.575 148.529C219.189 120.344 243.517 97.892 270.958 97.892C298.399 97.892 319.34 120.344 317.706 148.529Z" fill="#EAEDF3"/>
<path d="M264.42 111.868C254.79 111.589 245.208 116.607 240.535 123.613C234.872 132.102 241.105 136.362 236.684 150.304C232.575 163.267 225.372 165.492 225.769 174.079C226.206 183.541 235.323 189.575 238.935 191.963C255.248 202.758 282.158 202.305 296.689 188.391C297.895 187.234 307.832 177.72 305.849 169.023C304.086 161.283 294.483 161.23 293.024 153.229C291.774 146.372 298.448 144.164 298.467 134.297C298.47 132.375 298.488 123.309 291.558 119.138C286.953 116.367 281.63 117.16 279.67 117.548C277.479 115.81 272.11 112.092 264.42 111.868Z" fill="#1F335B"/>
<path d="M208.641 183.73C208.641 183.73 260.815 156.019 320.336 183.64C320.336 183.64 311.072 207.725 263.651 209.384C214.569 211.1 208.641 183.73 208.641 183.73Z" fill="url(#paint8_linear_63_84)"/>
<path d="M259.531 147.756L256.652 160.846C255.664 165.339 252.106 169.107 247.45 170.569L231.847 175.467C231.847 175.467 259.9 188.913 297.601 175.473L281.283 169.907C276.669 168.203 273.752 163.932 273.899 159.094L274.237 147.928L259.531 147.756Z" fill="#189BA8"/>
<path d="M282.744 136.566C281.974 147.517 274.127 159.32 265.426 159.254C256.673 159.185 250.51 147.142 251.409 136.072C252.301 125.085 259.815 119.263 268.439 119.451C277.012 119.637 283.509 125.698 282.744 136.566Z" fill="#22AAB7"/>
<path d="M274.785 126.593C270.101 126.731 262.947 127.66 257.659 132.435C248.738 140.491 251.616 153.59 247.854 154.331C244.5 154.993 240.182 145.62 241.125 135.46C241.911 127.006 245.803 117.163 253.949 114.861C258.726 113.511 259.911 115.906 274.839 117.627C283.54 118.63 279.838 122.255 281.714 123.675C290.058 129.991 287.553 150.374 282.771 150.585C280.502 150.685 277.765 145.29 274.785 126.593Z" fill="#1F335B"/>
<path d="M208.156 143.596C208.301 143.446 208.331 143.221 208.236 143.036L205.521 137.786C206.921 135.406 207.951 132.791 208.531 130.011L214.066 127.956C214.261 127.886 214.386 127.696 214.381 127.491L214.211 120.405C214.206 120.2 214.071 120.015 213.871 119.955L208.246 118.165C207.531 115.415 206.381 112.85 204.871 110.54L207.331 105.17C207.416 104.98 207.376 104.76 207.226 104.615L202.096 99.7254C201.946 99.5804 201.721 99.5504 201.536 99.6454L196.286 102.36C193.906 100.96 191.291 99.9304 188.511 99.3504L186.456 93.8153C186.386 93.6203 186.196 93.4953 185.991 93.5003L178.906 93.6703C178.701 93.6753 178.516 93.8104 178.456 94.0104L176.665 99.6354C173.915 100.35 171.35 101.5 169.04 103.01L163.67 100.55C163.48 100.465 163.26 100.505 163.115 100.655L158.225 105.785C158.08 105.935 158.05 106.16 158.145 106.345L160.86 111.595C159.46 113.975 158.43 116.59 157.85 119.37L152.315 121.425C152.12 121.495 151.995 121.685 152 121.89L152.17 128.976C152.175 129.181 152.31 129.366 152.51 129.426L158.135 131.216C158.85 133.966 160 136.531 161.51 138.841L159.05 144.211C158.965 144.401 159.005 144.621 159.155 144.766L164.285 149.656C164.435 149.801 164.66 149.831 164.845 149.736L170.095 147.021C172.475 148.421 175.09 149.451 177.871 150.031L179.926 155.566C179.996 155.761 180.186 155.886 180.391 155.881L187.476 155.711C187.681 155.706 187.866 155.571 187.926 155.371L189.716 149.746C192.466 149.031 195.031 147.881 197.341 146.371L202.711 148.831C202.901 148.916 203.121 148.876 203.266 148.726L208.156 143.596Z" fill="#BDD0FB"/>
<path d="M181.61 131.635C177.78 130.765 175.37 126.94 176.24 123.11C176.66 121.255 177.78 119.675 179.39 118.66C181 117.645 182.91 117.32 184.765 117.74C188.595 118.61 191.005 122.435 190.135 126.265C189.345 129.75 186.105 132.055 182.645 131.79C182.3 131.765 181.955 131.71 181.61 131.635ZM180.28 120.065C179.045 120.84 178.185 122.055 177.865 123.475C177.2 126.41 179.045 129.345 181.98 130.01C184.92 130.68 187.85 128.83 188.515 125.895C189.18 122.96 187.335 120.025 184.4 119.36C184.135 119.3 183.865 119.26 183.6 119.24C182.44 119.15 181.285 119.43 180.28 120.065Z" fill="url(#paint9_linear_63_84)"/>
<path d="M181.705 142.036C182.3 142.081 182.9 142.096 183.505 142.086C183.695 142.081 183.885 142.076 184.075 142.061C185.01 142.011 185.945 141.881 186.855 141.681C186.865 141.676 186.88 141.676 186.89 141.671C186.925 141.661 186.96 141.656 186.995 141.646C187.065 141.631 187.13 141.616 187.2 141.596C187.38 141.551 187.505 141.401 187.515 141.226C187.52 141.186 187.515 141.141 187.505 141.096C187.45 140.871 187.225 140.736 187.005 140.791C185.855 141.066 184.67 141.221 183.48 141.251C177.57 141.391 172.295 138.426 169.22 133.845C167.51 131.3 166.48 128.25 166.405 124.965C166.39 124.39 166.405 123.815 166.45 123.25C166.745 119.435 168.33 115.865 171.01 113.055C174.085 109.83 178.235 107.995 182.69 107.89C191.89 107.67 199.55 114.975 199.77 124.175C199.785 124.74 199.77 125.31 199.725 125.87C199.535 128.305 198.815 130.67 197.61 132.795C197.58 132.85 197.56 132.91 197.555 132.97C197.545 133.125 197.62 133.28 197.765 133.365C197.965 133.48 198.22 133.41 198.33 133.21C199.595 130.98 200.35 128.495 200.55 125.935C200.595 125.345 200.61 124.75 200.6 124.155C200.37 114.5 192.325 106.83 182.67 107.06C177.99 107.17 173.64 109.095 170.41 112.485C167.6 115.435 165.935 119.18 165.625 123.19C165.58 123.785 165.565 124.385 165.575 124.99C165.685 129.67 167.61 134.02 171 137.251C173.95 140.061 177.7 141.726 181.705 142.036Z" fill="url(#paint10_linear_63_84)"/>
<path d="M350.908 156.895C350.98 156.821 350.995 156.709 350.947 156.617L349.598 154.008C350.294 152.825 350.806 151.526 351.094 150.144L353.845 149.123C353.942 149.088 354.004 148.994 354.001 148.892L353.917 145.371C353.914 145.269 353.847 145.177 353.748 145.147L350.952 144.258C350.597 142.891 350.026 141.617 349.275 140.469L350.498 137.8C350.54 137.705 350.52 137.596 350.445 137.524L347.896 135.094C347.822 135.022 347.71 135.007 347.618 135.054L345.009 136.403C343.826 135.708 342.526 135.196 341.145 134.908L340.124 132.157C340.089 132.06 339.995 131.998 339.893 132L336.372 132.085C336.27 132.087 336.178 132.154 336.148 132.254L335.259 135.049C333.892 135.405 332.617 135.976 331.469 136.726L328.801 135.504C328.706 135.462 328.597 135.482 328.525 135.556L326.095 138.106C326.023 138.18 326.008 138.292 326.055 138.384L327.404 140.993C326.708 142.176 326.197 143.475 325.908 144.857L323.158 145.878C323.061 145.913 322.999 146.007 323.001 146.109L323.086 149.63C323.088 149.732 323.155 149.824 323.255 149.854L326.05 150.743C326.405 152.11 326.977 153.384 327.727 154.532L326.505 157.201C326.462 157.295 326.482 157.405 326.557 157.477L329.106 159.907C329.181 159.979 329.293 159.994 329.385 159.947L331.994 158.597C333.176 159.293 334.476 159.805 335.857 160.093L336.879 162.844C336.913 162.941 337.008 163.003 337.11 163L340.631 162.916C340.732 162.913 340.824 162.846 340.854 162.747L341.744 159.952C343.11 159.596 344.385 159.025 345.533 158.274L348.202 159.497C348.296 159.539 348.405 159.519 348.478 159.445L350.908 156.895Z" fill="#BDD0FB"/>
<path d="M337.716 150.952C335.813 150.519 334.615 148.618 335.048 146.715C335.256 145.793 335.813 145.008 336.613 144.504C337.413 143.999 338.362 143.838 339.284 144.046C341.187 144.479 342.385 146.38 341.953 148.283C341.56 150.015 339.95 151.16 338.231 151.029C338.059 151.016 337.888 150.989 337.716 150.952ZM337.055 145.202C336.441 145.587 336.014 146.191 335.855 146.897C335.525 148.355 336.441 149.814 337.9 150.144C339.361 150.477 340.817 149.558 341.148 148.099C341.478 146.641 340.561 145.182 339.103 144.852C338.971 144.822 338.837 144.802 338.705 144.792C338.129 144.747 337.555 144.886 337.055 145.202Z" fill="url(#paint11_linear_63_84)"/>
<path d="M337.763 156.12C338.059 156.142 338.357 156.15 338.658 156.145C338.752 156.142 338.847 156.14 338.941 156.132C339.406 156.108 339.87 156.043 340.323 155.944C340.328 155.941 340.335 155.941 340.34 155.939C340.357 155.934 340.375 155.931 340.392 155.926C340.427 155.919 340.459 155.911 340.494 155.901C340.584 155.879 340.646 155.805 340.651 155.718C340.653 155.698 340.651 155.675 340.646 155.653C340.618 155.541 340.507 155.474 340.397 155.501C339.826 155.638 339.237 155.715 338.645 155.73C335.708 155.8 333.087 154.326 331.559 152.05C330.709 150.785 330.197 149.27 330.16 147.637C330.152 147.351 330.16 147.066 330.182 146.785C330.329 144.889 331.117 143.115 332.448 141.718C333.977 140.116 336.039 139.204 338.253 139.152C342.825 139.042 346.631 142.672 346.741 147.244C346.748 147.525 346.741 147.809 346.718 148.087C346.624 149.297 346.266 150.472 345.667 151.528C345.652 151.556 345.643 151.585 345.64 151.615C345.635 151.692 345.672 151.769 345.744 151.811C345.844 151.869 345.971 151.834 346.025 151.734C346.654 150.626 347.029 149.391 347.128 148.119C347.151 147.826 347.158 147.53 347.153 147.235C347.039 142.436 343.041 138.625 338.243 138.739C335.917 138.794 333.755 139.75 332.15 141.435C330.754 142.901 329.926 144.762 329.772 146.755C329.75 147.051 329.742 147.349 329.747 147.649C329.802 149.975 330.759 152.137 332.443 153.742C333.909 155.139 335.773 155.966 337.763 156.12Z" fill="url(#paint12_linear_63_84)"/>
<defs>
<linearGradient id="paint0_linear_63_84" x1="298.446" y1="205.858" x2="367.36" y2="213.371" gradientUnits="userSpaceOnUse">
<stop stop-color="#444B8C"/>
<stop offset="0.9964" stop-color="#26264F"/>
</linearGradient>
<linearGradient id="paint1_linear_63_84" x1="301.581" y1="17.7335" x2="502.091" y2="560.405" gradientUnits="userSpaceOnUse">
<stop stop-color="#FFC444"/>
<stop offset="0.9964" stop-color="#F36F56"/>
</linearGradient>
<linearGradient id="paint2_linear_63_84" x1="124.116" y1="193.774" x2="126.215" y2="199.437" gradientUnits="userSpaceOnUse">
<stop stop-color="#444B8C"/>
<stop offset="0.9964" stop-color="#26264F"/>
</linearGradient>
<linearGradient id="paint3_linear_63_84" x1="137.126" y1="208.812" x2="123.483" y2="208.812" gradientUnits="userSpaceOnUse">
<stop stop-color="#444B8C"/>
<stop offset="0.9964" stop-color="#26264F"/>
</linearGradient>
<linearGradient id="paint4_linear_63_84" x1="145.044" y1="224.387" x2="84.2709" y2="224.387" gradientUnits="userSpaceOnUse">
<stop stop-color="#FFC444"/>
<stop offset="0.9964" stop-color="#F36F56"/>
</linearGradient>
<linearGradient id="paint5_linear_63_84" x1="75.0837" y1="396.467" x2="53.3336" y2="422.154" gradientUnits="userSpaceOnUse">
<stop stop-color="#444B8C"/>
<stop offset="0.9964" stop-color="#3E4177"/>
</linearGradient>
<linearGradient id="paint6_linear_63_84" x1="88.6755" y1="407.976" x2="66.9254" y2="433.663" gradientUnits="userSpaceOnUse">
<stop stop-color="#444B8C"/>
<stop offset="0.9964" stop-color="#3E4177"/>
</linearGradient>
<linearGradient id="paint7_linear_63_84" x1="104.917" y1="253.327" x2="23.1776" y2="253.327" gradientUnits="userSpaceOnUse">
<stop stop-color="#FFC444"/>
<stop offset="0.9964" stop-color="#F36F56"/>
</linearGradient>
<linearGradient id="paint8_linear_63_84" x1="221.472" y1="-63.8371" x2="300.907" y2="392.6" gradientUnits="userSpaceOnUse">
<stop stop-color="#FFC444"/>
<stop offset="0.229167" stop-color="#FFC444"/>
<stop offset="0.989583" stop-color="#F36F56"/>
</linearGradient>
<linearGradient id="paint9_linear_63_84" x1="176.065" y1="124.685" x2="190.315" y2="124.685" gradientUnits="userSpaceOnUse">
<stop stop-color="#DAE3FE"/>
<stop offset="1" stop-color="#E9EFFD"/>
</linearGradient>
<linearGradient id="paint10_linear_63_84" x1="165.572" y1="124.574" x2="200.607" y2="124.574" gradientUnits="userSpaceOnUse">
<stop stop-color="#DAE3FE"/>
<stop offset="1" stop-color="#E9EFFD"/>
</linearGradient>
<linearGradient id="paint11_linear_63_84" x1="334.96" y1="147.498" x2="342.042" y2="147.498" gradientUnits="userSpaceOnUse">
<stop stop-color="#DAE3FE"/>
<stop offset="1" stop-color="#E9EFFD"/>
</linearGradient>
<linearGradient id="paint12_linear_63_84" x1="329.746" y1="147.442" x2="347.157" y2="147.442" gradientUnits="userSpaceOnUse">
<stop stop-color="#DAE3FE"/>
<stop offset="1" stop-color="#E9EFFD"/>
</linearGradient>
</defs>
</svg>
