<svg width="1017" height="167" viewBox="0 0 1017 167" fill="none" xmlns="http://www.w3.org/2000/svg">
<path d="M847.242 6.57812C848.716 6.57812 849.792 6.89583 850.469 7.53125C851.146 8.16146 851.484 9.03125 851.484 10.1406C851.484 10.6406 851.409 11.1198 851.258 11.5781C851.107 12.0312 850.859 12.4349 850.516 12.7891C850.177 13.1432 849.724 13.4245 849.156 13.6328C848.589 13.8359 847.888 13.9375 847.055 13.9375H846.016V18H843.594V6.57812H847.242ZM847.117 8.5625H846.016V11.9531H846.812C847.266 11.9531 847.659 11.8932 847.992 11.7734C848.326 11.6536 848.583 11.4661 848.766 11.2109C848.948 10.9557 849.039 10.6276 849.039 10.2266C849.039 9.66406 848.883 9.2474 848.57 8.97656C848.258 8.70052 847.773 8.5625 847.117 8.5625ZM858.328 9.10156C858.448 9.10156 858.586 9.10938 858.742 9.125C858.904 9.13542 859.034 9.15104 859.133 9.17188L858.953 11.4062C858.875 11.3802 858.763 11.362 858.617 11.3516C858.477 11.3359 858.354 11.3281 858.25 11.3281C857.943 11.3281 857.643 11.3672 857.352 11.4453C857.065 11.5234 856.807 11.651 856.578 11.8281C856.349 12 856.167 12.2292 856.031 12.5156C855.901 12.7969 855.836 13.1432 855.836 13.5547V18H853.453V9.26562H855.258L855.609 10.7344H855.727C855.898 10.4375 856.112 10.1667 856.367 9.92188C856.628 9.67188 856.922 9.47396 857.25 9.32812C857.583 9.17708 857.943 9.10156 858.328 9.10156ZM868.656 13.6172C868.656 14.3464 868.557 14.9922 868.359 15.5547C868.167 16.1172 867.883 16.5938 867.508 16.9844C867.138 17.3698 866.69 17.6615 866.164 17.8594C865.643 18.0573 865.055 18.1562 864.398 18.1562C863.784 18.1562 863.219 18.0573 862.703 17.8594C862.193 17.6615 861.747 17.3698 861.367 16.9844C860.992 16.5938 860.701 16.1172 860.492 15.5547C860.289 14.9922 860.188 14.3464 860.188 13.6172C860.188 12.6484 860.359 11.8281 860.703 11.1562C861.047 10.4844 861.536 9.97396 862.172 9.625C862.807 9.27604 863.565 9.10156 864.445 9.10156C865.263 9.10156 865.987 9.27604 866.617 9.625C867.253 9.97396 867.75 10.4844 868.109 11.1562C868.474 11.8281 868.656 12.6484 868.656 13.6172ZM862.617 13.6172C862.617 14.1901 862.68 14.6719 862.805 15.0625C862.93 15.4531 863.125 15.7474 863.391 15.9453C863.656 16.1432 864.003 16.2422 864.43 16.2422C864.852 16.2422 865.193 16.1432 865.453 15.9453C865.719 15.7474 865.911 15.4531 866.031 15.0625C866.156 14.6719 866.219 14.1901 866.219 13.6172C866.219 13.0391 866.156 12.5599 866.031 12.1797C865.911 11.7943 865.719 11.5052 865.453 11.3125C865.188 11.1198 864.841 11.0234 864.414 11.0234C863.784 11.0234 863.326 11.2396 863.039 11.6719C862.758 12.1042 862.617 12.7526 862.617 13.6172ZM873.391 18.1562C872.417 18.1562 871.622 17.776 871.008 17.0156C870.398 16.25 870.094 15.1276 870.094 13.6484C870.094 12.1536 870.404 11.0234 871.023 10.2578C871.643 9.48698 872.453 9.10156 873.453 9.10156C873.87 9.10156 874.237 9.15885 874.555 9.27344C874.872 9.38802 875.146 9.54167 875.375 9.73438C875.609 9.92708 875.807 10.1432 875.969 10.3828H876.047C876.016 10.2161 875.977 9.97135 875.93 9.64844C875.888 9.32031 875.867 8.98438 875.867 8.64062V5.84375H878.258V18H876.43L875.969 16.8672H875.867C875.716 17.1068 875.526 17.3255 875.297 17.5234C875.073 17.7161 874.805 17.8698 874.492 17.9844C874.18 18.099 873.812 18.1562 873.391 18.1562ZM874.227 16.2578C874.878 16.2578 875.336 16.0651 875.602 15.6797C875.872 15.2891 876.016 14.7031 876.031 13.9219V13.6641C876.031 12.8151 875.901 12.1667 875.641 11.7188C875.38 11.2656 874.896 11.0391 874.188 11.0391C873.661 11.0391 873.25 11.2656 872.953 11.7188C872.656 12.1719 872.508 12.8255 872.508 13.6797C872.508 14.5339 872.656 15.1771 872.953 15.6094C873.255 16.0417 873.68 16.2578 874.227 16.2578ZM888.766 9.26562V18H886.938L886.617 16.8828H886.492C886.305 17.1797 886.07 17.4219 885.789 17.6094C885.508 17.7969 885.198 17.9349 884.859 18.0234C884.521 18.112 884.169 18.1562 883.805 18.1562C883.18 18.1562 882.635 18.0469 882.172 17.8281C881.708 17.6042 881.346 17.2578 881.086 16.7891C880.831 16.3203 880.703 15.7109 880.703 14.9609V9.26562H883.086V14.3672C883.086 14.9922 883.198 15.4635 883.422 15.7812C883.646 16.099 884.003 16.2578 884.492 16.2578C884.977 16.2578 885.357 16.1484 885.633 15.9297C885.909 15.7057 886.102 15.3802 886.211 14.9531C886.326 14.5208 886.383 13.9948 886.383 13.375V9.26562H888.766ZM894.812 18.1562C893.948 18.1562 893.211 18 892.602 17.6875C891.992 17.3698 891.529 16.8802 891.211 16.2188C890.893 15.5573 890.734 14.7109 890.734 13.6797C890.734 12.612 890.914 11.7422 891.273 11.0703C891.638 10.3932 892.141 9.89583 892.781 9.57812C893.427 9.26042 894.174 9.10156 895.023 9.10156C895.628 9.10156 896.148 9.16146 896.586 9.28125C897.029 9.39583 897.414 9.53385 897.742 9.69531L897.039 11.5391C896.664 11.388 896.315 11.2656 895.992 11.1719C895.669 11.0729 895.346 11.0234 895.023 11.0234C894.607 11.0234 894.26 11.1224 893.984 11.3203C893.708 11.513 893.503 11.8047 893.367 12.1953C893.232 12.5859 893.164 13.0755 893.164 13.6641C893.164 14.2422 893.237 14.7214 893.383 15.1016C893.529 15.4818 893.74 15.7656 894.016 15.9531C894.292 16.1354 894.628 16.2266 895.023 16.2266C895.518 16.2266 895.958 16.1615 896.344 16.0312C896.729 15.8958 897.104 15.7083 897.469 15.4688V17.5078C897.104 17.737 896.721 17.901 896.32 18C895.924 18.1042 895.422 18.1562 894.812 18.1562ZM903.18 16.2578C903.44 16.2578 903.693 16.2318 903.938 16.1797C904.188 16.1276 904.435 16.0625 904.68 15.9844V17.7578C904.424 17.8724 904.107 17.9661 903.727 18.0391C903.352 18.1172 902.94 18.1562 902.492 18.1562C901.971 18.1562 901.503 18.0729 901.086 17.9062C900.674 17.7344 900.349 17.4401 900.109 17.0234C899.875 16.6016 899.758 16.0156 899.758 15.2656V11.0547H898.617V10.0469L899.93 9.25L900.617 7.40625H902.141V9.26562H904.586V11.0547H902.141V15.2656C902.141 15.599 902.234 15.849 902.422 16.0156C902.615 16.1771 902.867 16.2578 903.18 16.2578ZM908.836 9.26562V18H906.453V9.26562H908.836ZM907.648 5.84375C908.003 5.84375 908.307 5.92708 908.562 6.09375C908.818 6.25521 908.945 6.5599 908.945 7.00781C908.945 7.45052 908.818 7.75781 908.562 7.92969C908.307 8.09635 908.003 8.17969 907.648 8.17969C907.289 8.17969 906.982 8.09635 906.727 7.92969C906.477 7.75781 906.352 7.45052 906.352 7.00781C906.352 6.5599 906.477 6.25521 906.727 6.09375C906.982 5.92708 907.289 5.84375 907.648 5.84375ZM919.281 13.6172C919.281 14.3464 919.182 14.9922 918.984 15.5547C918.792 16.1172 918.508 16.5938 918.133 16.9844C917.763 17.3698 917.315 17.6615 916.789 17.8594C916.268 18.0573 915.68 18.1562 915.023 18.1562C914.409 18.1562 913.844 18.0573 913.328 17.8594C912.818 17.6615 912.372 17.3698 911.992 16.9844C911.617 16.5938 911.326 16.1172 911.117 15.5547C910.914 14.9922 910.812 14.3464 910.812 13.6172C910.812 12.6484 910.984 11.8281 911.328 11.1562C911.672 10.4844 912.161 9.97396 912.797 9.625C913.432 9.27604 914.19 9.10156 915.07 9.10156C915.888 9.10156 916.612 9.27604 917.242 9.625C917.878 9.97396 918.375 10.4844 918.734 11.1562C919.099 11.8281 919.281 12.6484 919.281 13.6172ZM913.242 13.6172C913.242 14.1901 913.305 14.6719 913.43 15.0625C913.555 15.4531 913.75 15.7474 914.016 15.9453C914.281 16.1432 914.628 16.2422 915.055 16.2422C915.477 16.2422 915.818 16.1432 916.078 15.9453C916.344 15.7474 916.536 15.4531 916.656 15.0625C916.781 14.6719 916.844 14.1901 916.844 13.6172C916.844 13.0391 916.781 12.5599 916.656 12.1797C916.536 11.7943 916.344 11.5052 916.078 11.3125C915.812 11.1198 915.466 11.0234 915.039 11.0234C914.409 11.0234 913.951 11.2396 913.664 11.6719C913.383 12.1042 913.242 12.7526 913.242 13.6172ZM926.211 9.10156C927.143 9.10156 927.893 9.35677 928.461 9.86719C929.029 10.3724 929.312 11.1849 929.312 12.3047V18H926.93V12.8984C926.93 12.2734 926.815 11.8021 926.586 11.4844C926.362 11.1667 926.008 11.0078 925.523 11.0078C924.794 11.0078 924.297 11.2552 924.031 11.75C923.766 12.2448 923.633 12.9583 923.633 13.8906V18H921.25V9.26562H923.07L923.391 10.3828H923.523C923.711 10.0807 923.943 9.83594 924.219 9.64844C924.5 9.46094 924.81 9.32292 925.148 9.23438C925.492 9.14583 925.846 9.10156 926.211 9.10156ZM939.633 6.41406C940.247 6.41406 940.794 6.51042 941.273 6.70312C941.753 6.89583 942.13 7.17708 942.406 7.54688C942.688 7.91667 942.828 8.36719 942.828 8.89844C942.828 9.63281 942.609 10.25 942.172 10.75C941.74 11.25 941.198 11.6875 940.547 12.0625L942.766 14.2266C942.984 13.8672 943.169 13.487 943.32 13.0859C943.477 12.6849 943.612 12.2812 943.727 11.875H946.211C946.049 12.474 945.812 13.1146 945.5 13.7969C945.193 14.474 944.799 15.112 944.32 15.7109L946.672 18H943.727L942.828 17.1172C942.521 17.3307 942.19 17.5156 941.836 17.6719C941.487 17.8281 941.112 17.9479 940.711 18.0312C940.315 18.1146 939.896 18.1562 939.453 18.1562C938.589 18.1562 937.846 18.0208 937.227 17.75C936.607 17.4792 936.133 17.1016 935.805 16.6172C935.477 16.1276 935.312 15.5599 935.312 14.9141C935.312 14.3724 935.396 13.9089 935.562 13.5234C935.729 13.1328 935.969 12.7917 936.281 12.5C936.594 12.2031 936.969 11.9297 937.406 11.6797C937.13 11.3568 936.909 11.0547 936.742 10.7734C936.581 10.4922 936.464 10.2135 936.391 9.9375C936.323 9.65625 936.289 9.36198 936.289 9.05469C936.289 8.51302 936.43 8.04688 936.711 7.65625C936.997 7.26042 937.391 6.95573 937.891 6.74219C938.396 6.52344 938.977 6.41406 939.633 6.41406ZM938.797 13.1016C938.599 13.2526 938.424 13.4089 938.273 13.5703C938.128 13.7318 938.016 13.9036 937.938 14.0859C937.859 14.2682 937.82 14.4688 937.82 14.6875C937.82 15.1458 937.992 15.5052 938.336 15.7656C938.68 16.026 939.107 16.1562 939.617 16.1562C939.961 16.1562 940.281 16.1146 940.578 16.0312C940.875 15.9479 941.146 15.8307 941.391 15.6797L938.797 13.1016ZM939.617 8.25781C939.352 8.25781 939.096 8.32552 938.852 8.46094C938.612 8.59635 938.492 8.84896 938.492 9.21875C938.492 9.47917 938.56 9.73438 938.695 9.98438C938.831 10.2292 939.01 10.4792 939.234 10.7344C939.682 10.4896 940.026 10.2448 940.266 10C940.505 9.75 940.625 9.46615 940.625 9.14844C940.625 8.83073 940.516 8.60417 940.297 8.46875C940.083 8.32812 939.857 8.25781 939.617 8.25781ZM961.742 12.1797C961.742 13.4661 961.495 14.5417 961 15.4062C960.51 16.2656 959.799 16.9141 958.867 17.3516C957.935 17.7839 956.812 18 955.5 18H952.266V6.57812H955.852C957.049 6.57812 958.089 6.79167 958.969 7.21875C959.849 7.64062 960.531 8.26823 961.016 9.10156C961.5 9.92969 961.742 10.9557 961.742 12.1797ZM959.227 12.2422C959.227 11.3984 959.102 10.7057 958.852 10.1641C958.607 9.61719 958.242 9.21354 957.758 8.95312C957.279 8.69271 956.685 8.5625 955.977 8.5625H954.688V16H955.727C956.909 16 957.786 15.6849 958.359 15.0547C958.938 14.4245 959.227 13.487 959.227 12.2422ZM967.523 9.10156C968.331 9.10156 969.026 9.25781 969.609 9.57031C970.193 9.8776 970.643 10.3255 970.961 10.9141C971.279 11.5026 971.438 12.2214 971.438 13.0703V14.2266H965.805C965.831 14.8984 966.031 15.4271 966.406 15.8125C966.786 16.1927 967.312 16.3828 967.984 16.3828C968.542 16.3828 969.052 16.3255 969.516 16.2109C969.979 16.0964 970.456 15.9245 970.945 15.6953V17.5391C970.513 17.7526 970.06 17.9089 969.586 18.0078C969.117 18.1068 968.547 18.1562 967.875 18.1562C967 18.1562 966.224 17.9948 965.547 17.6719C964.875 17.349 964.346 16.8568 963.961 16.1953C963.581 15.5339 963.391 14.7005 963.391 13.6953C963.391 12.6745 963.562 11.8255 963.906 11.1484C964.255 10.4661 964.74 9.95573 965.359 9.61719C965.979 9.27344 966.701 9.10156 967.523 9.10156ZM967.539 10.7969C967.076 10.7969 966.69 10.9453 966.383 11.2422C966.081 11.5391 965.906 12.0052 965.859 12.6406H969.203C969.198 12.2865 969.133 11.9714 969.008 11.6953C968.888 11.4193 968.706 11.2005 968.461 11.0391C968.221 10.8776 967.914 10.7969 967.539 10.7969ZM975.758 18H973.375V5.84375H975.758V18ZM980.648 9.26562V18H978.266V9.26562H980.648ZM979.461 5.84375C979.815 5.84375 980.12 5.92708 980.375 6.09375C980.63 6.25521 980.758 6.5599 980.758 7.00781C980.758 7.45052 980.63 7.75781 980.375 7.92969C980.12 8.09635 979.815 8.17969 979.461 8.17969C979.102 8.17969 978.794 8.09635 978.539 7.92969C978.289 7.75781 978.164 7.45052 978.164 7.00781C978.164 6.5599 978.289 6.25521 978.539 6.09375C978.794 5.92708 979.102 5.84375 979.461 5.84375ZM985.234 18L981.906 9.26562H984.398L986.086 14.2422C986.18 14.5339 986.253 14.8411 986.305 15.1641C986.362 15.487 986.401 15.776 986.422 16.0312H986.484C986.5 15.7552 986.536 15.4609 986.594 15.1484C986.656 14.8359 986.737 14.5339 986.836 14.2422L988.516 9.26562H991.008L987.68 18H985.234ZM995.867 9.10156C996.674 9.10156 997.37 9.25781 997.953 9.57031C998.536 9.8776 998.987 10.3255 999.305 10.9141C999.622 11.5026 999.781 12.2214 999.781 13.0703V14.2266H994.148C994.174 14.8984 994.375 15.4271 994.75 15.8125C995.13 16.1927 995.656 16.3828 996.328 16.3828C996.885 16.3828 997.396 16.3255 997.859 16.2109C998.323 16.0964 998.799 15.9245 999.289 15.6953V17.5391C998.857 17.7526 998.404 17.9089 997.93 18.0078C997.461 18.1068 996.891 18.1562 996.219 18.1562C995.344 18.1562 994.568 17.9948 993.891 17.6719C993.219 17.349 992.69 16.8568 992.305 16.1953C991.924 15.5339 991.734 14.7005 991.734 13.6953C991.734 12.6745 991.906 11.8255 992.25 11.1484C992.599 10.4661 993.083 9.95573 993.703 9.61719C994.323 9.27344 995.044 9.10156 995.867 9.10156ZM995.883 10.7969C995.419 10.7969 995.034 10.9453 994.727 11.2422C994.424 11.5391 994.25 12.0052 994.203 12.6406H997.547C997.542 12.2865 997.477 11.9714 997.352 11.6953C997.232 11.4193 997.049 11.2005 996.805 11.0391C996.565 10.8776 996.258 10.7969 995.883 10.7969ZM1006.59 9.10156C1006.71 9.10156 1006.85 9.10938 1007.01 9.125C1007.17 9.13542 1007.3 9.15104 1007.4 9.17188L1007.22 11.4062C1007.14 11.3802 1007.03 11.362 1006.88 11.3516C1006.74 11.3359 1006.62 11.3281 1006.52 11.3281C1006.21 11.3281 1005.91 11.3672 1005.62 11.4453C1005.33 11.5234 1005.07 11.651 1004.84 11.8281C1004.61 12 1004.43 12.2292 1004.3 12.5156C1004.17 12.7969 1004.1 13.1432 1004.1 13.5547V18H1001.72V9.26562H1003.52L1003.88 10.7344H1003.99C1004.16 10.4375 1004.38 10.1667 1004.63 9.92188C1004.89 9.67188 1005.19 9.47396 1005.52 9.32812C1005.85 9.17708 1006.21 9.10156 1006.59 9.10156ZM1007.73 9.26562H1010.34L1011.99 14.1797C1012.04 14.3359 1012.09 14.4948 1012.12 14.6562C1012.16 14.8177 1012.19 14.9844 1012.22 15.1562C1012.24 15.3281 1012.27 15.5078 1012.28 15.6953H1012.33C1012.36 15.4141 1012.4 15.151 1012.45 14.9062C1012.51 14.6615 1012.58 14.4193 1012.66 14.1797L1014.28 9.26562H1016.84L1013.14 19.1172C1012.92 19.7214 1012.62 20.224 1012.27 20.625C1011.91 21.0312 1011.49 21.3359 1011.02 21.5391C1010.56 21.7422 1010.05 21.8438 1009.49 21.8438C1009.22 21.8438 1008.99 21.8281 1008.79 21.7969C1008.59 21.7708 1008.42 21.7422 1008.28 21.7109V19.8203C1008.39 19.8464 1008.53 19.8698 1008.7 19.8906C1008.86 19.9115 1009.04 19.9219 1009.22 19.9219C1009.55 19.9219 1009.84 19.8516 1010.08 19.7109C1010.32 19.5703 1010.52 19.3802 1010.68 19.1406C1010.84 18.9062 1010.97 18.6484 1011.06 18.3672L1011.2 17.9375L1007.73 9.26562Z" fill="#333333"/>
<path d="M559.211 124.578C560.247 124.578 561.102 124.703 561.773 124.953C562.451 125.203 562.953 125.581 563.281 126.086C563.609 126.591 563.773 127.229 563.773 128C563.773 128.521 563.674 128.977 563.477 129.367C563.279 129.758 563.018 130.089 562.695 130.359C562.372 130.63 562.023 130.852 561.648 131.023L565.008 136H562.32L559.594 131.617H558.305V136H555.883V124.578H559.211ZM559.039 126.562H558.305V129.648H559.086C559.888 129.648 560.461 129.516 560.805 129.25C561.154 128.979 561.328 128.583 561.328 128.062C561.328 127.521 561.141 127.135 560.766 126.906C560.396 126.677 559.82 126.562 559.039 126.562ZM569.859 127.102C570.667 127.102 571.362 127.258 571.945 127.57C572.529 127.878 572.979 128.326 573.297 128.914C573.615 129.503 573.773 130.221 573.773 131.07V132.227H568.141C568.167 132.898 568.367 133.427 568.742 133.812C569.122 134.193 569.648 134.383 570.32 134.383C570.878 134.383 571.388 134.326 571.852 134.211C572.315 134.096 572.792 133.924 573.281 133.695V135.539C572.849 135.753 572.396 135.909 571.922 136.008C571.453 136.107 570.883 136.156 570.211 136.156C569.336 136.156 568.56 135.995 567.883 135.672C567.211 135.349 566.682 134.857 566.297 134.195C565.917 133.534 565.727 132.701 565.727 131.695C565.727 130.674 565.898 129.826 566.242 129.148C566.591 128.466 567.076 127.956 567.695 127.617C568.315 127.273 569.036 127.102 569.859 127.102ZM569.875 128.797C569.411 128.797 569.026 128.945 568.719 129.242C568.417 129.539 568.242 130.005 568.195 130.641H571.539C571.534 130.286 571.469 129.971 571.344 129.695C571.224 129.419 571.042 129.201 570.797 129.039C570.557 128.878 570.25 128.797 569.875 128.797ZM580.953 139.844V136.18C580.953 135.961 580.961 135.742 580.977 135.523C580.997 135.299 581.023 135.081 581.055 134.867H580.953C580.729 135.227 580.419 135.531 580.023 135.781C579.633 136.031 579.117 136.156 578.477 136.156C577.492 136.156 576.695 135.776 576.086 135.016C575.482 134.25 575.18 133.128 575.18 131.648C575.18 130.654 575.32 129.82 575.602 129.148C575.883 128.471 576.273 127.961 576.773 127.617C577.279 127.273 577.862 127.102 578.523 127.102C579.164 127.102 579.682 127.227 580.078 127.477C580.479 127.721 580.805 128.023 581.055 128.383H581.117L581.328 127.266H583.344V139.844H580.953ZM579.328 134.289C579.766 134.289 580.112 134.203 580.367 134.031C580.628 133.859 580.815 133.602 580.93 133.258C581.044 132.909 581.107 132.474 581.117 131.953V131.664C581.117 130.815 580.987 130.167 580.727 129.719C580.466 129.266 579.987 129.039 579.289 129.039C578.721 129.039 578.299 129.266 578.023 129.719C577.747 130.172 577.609 130.826 577.609 131.68C577.609 132.549 577.75 133.203 578.031 133.641C578.312 134.073 578.745 134.289 579.328 134.289ZM593.852 127.266V136H592.023L591.703 134.883H591.578C591.391 135.18 591.156 135.422 590.875 135.609C590.594 135.797 590.284 135.935 589.945 136.023C589.607 136.112 589.255 136.156 588.891 136.156C588.266 136.156 587.721 136.047 587.258 135.828C586.794 135.604 586.432 135.258 586.172 134.789C585.917 134.32 585.789 133.711 585.789 132.961V127.266H588.172V132.367C588.172 132.992 588.284 133.464 588.508 133.781C588.732 134.099 589.089 134.258 589.578 134.258C590.062 134.258 590.443 134.148 590.719 133.93C590.995 133.706 591.188 133.38 591.297 132.953C591.411 132.521 591.469 131.995 591.469 131.375V127.266H593.852ZM598.734 127.266V136H596.352V127.266H598.734ZM597.547 123.844C597.901 123.844 598.206 123.927 598.461 124.094C598.716 124.255 598.844 124.56 598.844 125.008C598.844 125.451 598.716 125.758 598.461 125.93C598.206 126.096 597.901 126.18 597.547 126.18C597.188 126.18 596.88 126.096 596.625 125.93C596.375 125.758 596.25 125.451 596.25 125.008C596.25 124.56 596.375 124.255 596.625 124.094C596.88 123.927 597.188 123.844 597.547 123.844ZM606.117 127.102C606.237 127.102 606.375 127.109 606.531 127.125C606.693 127.135 606.823 127.151 606.922 127.172L606.742 129.406C606.664 129.38 606.552 129.362 606.406 129.352C606.266 129.336 606.143 129.328 606.039 129.328C605.732 129.328 605.432 129.367 605.141 129.445C604.854 129.523 604.596 129.651 604.367 129.828C604.138 130 603.956 130.229 603.82 130.516C603.69 130.797 603.625 131.143 603.625 131.555V136H601.242V127.266H603.047L603.398 128.734H603.516C603.688 128.438 603.901 128.167 604.156 127.922C604.417 127.672 604.711 127.474 605.039 127.328C605.372 127.177 605.732 127.102 606.117 127.102ZM612.109 127.102C612.917 127.102 613.612 127.258 614.195 127.57C614.779 127.878 615.229 128.326 615.547 128.914C615.865 129.503 616.023 130.221 616.023 131.07V132.227H610.391C610.417 132.898 610.617 133.427 610.992 133.812C611.372 134.193 611.898 134.383 612.57 134.383C613.128 134.383 613.638 134.326 614.102 134.211C614.565 134.096 615.042 133.924 615.531 133.695V135.539C615.099 135.753 614.646 135.909 614.172 136.008C613.703 136.107 613.133 136.156 612.461 136.156C611.586 136.156 610.81 135.995 610.133 135.672C609.461 135.349 608.932 134.857 608.547 134.195C608.167 133.534 607.977 132.701 607.977 131.695C607.977 130.674 608.148 129.826 608.492 129.148C608.841 128.466 609.326 127.956 609.945 127.617C610.565 127.273 611.286 127.102 612.109 127.102ZM612.125 128.797C611.661 128.797 611.276 128.945 610.969 129.242C610.667 129.539 610.492 130.005 610.445 130.641H613.789C613.784 130.286 613.719 129.971 613.594 129.695C613.474 129.419 613.292 129.201 613.047 129.039C612.807 128.878 612.5 128.797 612.125 128.797ZM628.219 127.102C629.208 127.102 629.956 127.357 630.461 127.867C630.971 128.372 631.227 129.185 631.227 130.305V136H628.836V130.898C628.836 130.273 628.729 129.802 628.516 129.484C628.302 129.167 627.971 129.008 627.523 129.008C626.893 129.008 626.445 129.234 626.18 129.688C625.914 130.135 625.781 130.779 625.781 131.617V136H623.398V130.898C623.398 130.482 623.352 130.133 623.258 129.852C623.164 129.57 623.021 129.359 622.828 129.219C622.635 129.078 622.388 129.008 622.086 129.008C621.643 129.008 621.294 129.12 621.039 129.344C620.789 129.562 620.609 129.888 620.5 130.32C620.396 130.747 620.344 131.271 620.344 131.891V136H617.961V127.266H619.781L620.102 128.383H620.234C620.411 128.081 620.633 127.836 620.898 127.648C621.169 127.461 621.466 127.323 621.789 127.234C622.112 127.146 622.44 127.102 622.773 127.102C623.414 127.102 623.956 127.206 624.398 127.414C624.846 127.622 625.19 127.945 625.43 128.383H625.641C625.901 127.935 626.268 127.609 626.742 127.406C627.221 127.203 627.714 127.102 628.219 127.102ZM637.281 127.102C638.089 127.102 638.784 127.258 639.367 127.57C639.951 127.878 640.401 128.326 640.719 128.914C641.036 129.503 641.195 130.221 641.195 131.07V132.227H635.562C635.589 132.898 635.789 133.427 636.164 133.812C636.544 134.193 637.07 134.383 637.742 134.383C638.299 134.383 638.81 134.326 639.273 134.211C639.737 134.096 640.214 133.924 640.703 133.695V135.539C640.271 135.753 639.818 135.909 639.344 136.008C638.875 136.107 638.305 136.156 637.633 136.156C636.758 136.156 635.982 135.995 635.305 135.672C634.633 135.349 634.104 134.857 633.719 134.195C633.339 133.534 633.148 132.701 633.148 131.695C633.148 130.674 633.32 129.826 633.664 129.148C634.013 128.466 634.497 127.956 635.117 127.617C635.737 127.273 636.458 127.102 637.281 127.102ZM637.297 128.797C636.833 128.797 636.448 128.945 636.141 129.242C635.839 129.539 635.664 130.005 635.617 130.641H638.961C638.956 130.286 638.891 129.971 638.766 129.695C638.646 129.419 638.464 129.201 638.219 129.039C637.979 128.878 637.672 128.797 637.297 128.797ZM648.094 127.102C649.026 127.102 649.776 127.357 650.344 127.867C650.911 128.372 651.195 129.185 651.195 130.305V136H648.812V130.898C648.812 130.273 648.698 129.802 648.469 129.484C648.245 129.167 647.891 129.008 647.406 129.008C646.677 129.008 646.18 129.255 645.914 129.75C645.648 130.245 645.516 130.958 645.516 131.891V136H643.133V127.266H644.953L645.273 128.383H645.406C645.594 128.081 645.826 127.836 646.102 127.648C646.383 127.461 646.693 127.323 647.031 127.234C647.375 127.146 647.729 127.102 648.094 127.102ZM657.328 134.258C657.589 134.258 657.841 134.232 658.086 134.18C658.336 134.128 658.583 134.062 658.828 133.984V135.758C658.573 135.872 658.255 135.966 657.875 136.039C657.5 136.117 657.089 136.156 656.641 136.156C656.12 136.156 655.651 136.073 655.234 135.906C654.823 135.734 654.497 135.44 654.258 135.023C654.023 134.602 653.906 134.016 653.906 133.266V129.055H652.766V128.047L654.078 127.25L654.766 125.406H656.289V127.266H658.734V129.055H656.289V133.266C656.289 133.599 656.383 133.849 656.57 134.016C656.763 134.177 657.016 134.258 657.328 134.258ZM666.695 133.406C666.695 134 666.555 134.503 666.273 134.914C665.997 135.32 665.583 135.63 665.031 135.844C664.479 136.052 663.792 136.156 662.969 136.156C662.359 136.156 661.836 136.117 661.398 136.039C660.966 135.961 660.529 135.831 660.086 135.648V133.68C660.56 133.893 661.068 134.07 661.609 134.211C662.156 134.346 662.635 134.414 663.047 134.414C663.51 134.414 663.841 134.346 664.039 134.211C664.242 134.07 664.344 133.888 664.344 133.664C664.344 133.518 664.302 133.388 664.219 133.273C664.141 133.154 663.969 133.021 663.703 132.875C663.438 132.724 663.021 132.529 662.453 132.289C661.906 132.06 661.456 131.828 661.102 131.594C660.753 131.359 660.492 131.083 660.32 130.766C660.154 130.443 660.07 130.034 660.07 129.539C660.07 128.732 660.383 128.125 661.008 127.719C661.638 127.307 662.479 127.102 663.531 127.102C664.073 127.102 664.589 127.156 665.078 127.266C665.573 127.375 666.081 127.549 666.602 127.789L665.883 129.508C665.451 129.32 665.042 129.167 664.656 129.047C664.276 128.927 663.888 128.867 663.492 128.867C663.143 128.867 662.88 128.914 662.703 129.008C662.526 129.102 662.438 129.245 662.438 129.438C662.438 129.578 662.482 129.703 662.57 129.812C662.664 129.922 662.841 130.044 663.102 130.18C663.367 130.31 663.755 130.479 664.266 130.688C664.76 130.891 665.19 131.104 665.555 131.328C665.919 131.547 666.201 131.82 666.398 132.148C666.596 132.471 666.695 132.891 666.695 133.406ZM679.477 136H672.898V124.578H679.477V126.562H675.32V129.07H679.188V131.055H675.32V134H679.477V136ZM683.758 136L680.43 127.266H682.922L684.609 132.242C684.703 132.534 684.776 132.841 684.828 133.164C684.885 133.487 684.924 133.776 684.945 134.031H685.008C685.023 133.755 685.06 133.461 685.117 133.148C685.18 132.836 685.26 132.534 685.359 132.242L687.039 127.266H689.531L686.203 136H683.758ZM694.367 127.086C695.539 127.086 696.438 127.341 697.062 127.852C697.688 128.362 698 129.138 698 130.18V136H696.336L695.875 134.812H695.812C695.562 135.125 695.307 135.38 695.047 135.578C694.786 135.776 694.487 135.922 694.148 136.016C693.81 136.109 693.398 136.156 692.914 136.156C692.398 136.156 691.935 136.057 691.523 135.859C691.117 135.661 690.797 135.359 690.562 134.953C690.328 134.542 690.211 134.021 690.211 133.391C690.211 132.464 690.536 131.781 691.188 131.344C691.839 130.901 692.815 130.656 694.117 130.609L695.633 130.562V130.18C695.633 129.721 695.513 129.385 695.273 129.172C695.034 128.958 694.701 128.852 694.273 128.852C693.852 128.852 693.438 128.911 693.031 129.031C692.625 129.151 692.219 129.302 691.812 129.484L691.023 127.875C691.487 127.63 692.005 127.438 692.578 127.297C693.156 127.156 693.753 127.086 694.367 127.086ZM695.633 131.953L694.711 131.984C693.94 132.005 693.404 132.143 693.102 132.398C692.805 132.654 692.656 132.99 692.656 133.406C692.656 133.771 692.763 134.031 692.977 134.188C693.19 134.339 693.469 134.414 693.812 134.414C694.323 134.414 694.753 134.263 695.102 133.961C695.456 133.659 695.633 133.229 695.633 132.672V131.953ZM702.844 136H700.461V123.844H702.844V136ZM713.367 127.266V136H711.539L711.219 134.883H711.094C710.906 135.18 710.672 135.422 710.391 135.609C710.109 135.797 709.799 135.935 709.461 136.023C709.122 136.112 708.771 136.156 708.406 136.156C707.781 136.156 707.237 136.047 706.773 135.828C706.31 135.604 705.948 135.258 705.688 134.789C705.432 134.32 705.305 133.711 705.305 132.961V127.266H707.688V132.367C707.688 132.992 707.799 133.464 708.023 133.781C708.247 134.099 708.604 134.258 709.094 134.258C709.578 134.258 709.958 134.148 710.234 133.93C710.51 133.706 710.703 133.38 710.812 132.953C710.927 132.521 710.984 131.995 710.984 131.375V127.266H713.367ZM719.445 127.086C720.617 127.086 721.516 127.341 722.141 127.852C722.766 128.362 723.078 129.138 723.078 130.18V136H721.414L720.953 134.812H720.891C720.641 135.125 720.385 135.38 720.125 135.578C719.865 135.776 719.565 135.922 719.227 136.016C718.888 136.109 718.477 136.156 717.992 136.156C717.477 136.156 717.013 136.057 716.602 135.859C716.195 135.661 715.875 135.359 715.641 134.953C715.406 134.542 715.289 134.021 715.289 133.391C715.289 132.464 715.615 131.781 716.266 131.344C716.917 130.901 717.893 130.656 719.195 130.609L720.711 130.562V130.18C720.711 129.721 720.591 129.385 720.352 129.172C720.112 128.958 719.779 128.852 719.352 128.852C718.93 128.852 718.516 128.911 718.109 129.031C717.703 129.151 717.297 129.302 716.891 129.484L716.102 127.875C716.565 127.63 717.083 127.438 717.656 127.297C718.234 127.156 718.831 127.086 719.445 127.086ZM720.711 131.953L719.789 131.984C719.018 132.005 718.482 132.143 718.18 132.398C717.883 132.654 717.734 132.99 717.734 133.406C717.734 133.771 717.841 134.031 718.055 134.188C718.268 134.339 718.547 134.414 718.891 134.414C719.401 134.414 719.831 134.263 720.18 133.961C720.534 133.659 720.711 133.229 720.711 132.672V131.953ZM729.219 134.258C729.479 134.258 729.732 134.232 729.977 134.18C730.227 134.128 730.474 134.062 730.719 133.984V135.758C730.464 135.872 730.146 135.966 729.766 136.039C729.391 136.117 728.979 136.156 728.531 136.156C728.01 136.156 727.542 136.073 727.125 135.906C726.714 135.734 726.388 135.44 726.148 135.023C725.914 134.602 725.797 134.016 725.797 133.266V129.055H724.656V128.047L725.969 127.25L726.656 125.406H728.18V127.266H730.625V129.055H728.18V133.266C728.18 133.599 728.273 133.849 728.461 134.016C728.654 134.177 728.906 134.258 729.219 134.258ZM734.875 127.266V136H732.492V127.266H734.875ZM733.688 123.844C734.042 123.844 734.346 123.927 734.602 124.094C734.857 124.255 734.984 124.56 734.984 125.008C734.984 125.451 734.857 125.758 734.602 125.93C734.346 126.096 734.042 126.18 733.688 126.18C733.328 126.18 733.021 126.096 732.766 125.93C732.516 125.758 732.391 125.451 732.391 125.008C732.391 124.56 732.516 124.255 732.766 124.094C733.021 123.927 733.328 123.844 733.688 123.844ZM745.32 131.617C745.32 132.346 745.221 132.992 745.023 133.555C744.831 134.117 744.547 134.594 744.172 134.984C743.802 135.37 743.354 135.661 742.828 135.859C742.307 136.057 741.719 136.156 741.062 136.156C740.448 136.156 739.883 136.057 739.367 135.859C738.857 135.661 738.411 135.37 738.031 134.984C737.656 134.594 737.365 134.117 737.156 133.555C736.953 132.992 736.852 132.346 736.852 131.617C736.852 130.648 737.023 129.828 737.367 129.156C737.711 128.484 738.201 127.974 738.836 127.625C739.471 127.276 740.229 127.102 741.109 127.102C741.927 127.102 742.651 127.276 743.281 127.625C743.917 127.974 744.414 128.484 744.773 129.156C745.138 129.828 745.32 130.648 745.32 131.617ZM739.281 131.617C739.281 132.19 739.344 132.672 739.469 133.062C739.594 133.453 739.789 133.747 740.055 133.945C740.32 134.143 740.667 134.242 741.094 134.242C741.516 134.242 741.857 134.143 742.117 133.945C742.383 133.747 742.576 133.453 742.695 133.062C742.82 132.672 742.883 132.19 742.883 131.617C742.883 131.039 742.82 130.56 742.695 130.18C742.576 129.794 742.383 129.505 742.117 129.312C741.852 129.12 741.505 129.023 741.078 129.023C740.448 129.023 739.99 129.24 739.703 129.672C739.422 130.104 739.281 130.753 739.281 131.617ZM752.25 127.102C753.182 127.102 753.932 127.357 754.5 127.867C755.068 128.372 755.352 129.185 755.352 130.305V136H752.969V130.898C752.969 130.273 752.854 129.802 752.625 129.484C752.401 129.167 752.047 129.008 751.562 129.008C750.833 129.008 750.336 129.255 750.07 129.75C749.805 130.245 749.672 130.958 749.672 131.891V136H747.289V127.266H749.109L749.43 128.383H749.562C749.75 128.081 749.982 127.836 750.258 127.648C750.539 127.461 750.849 127.323 751.188 127.234C751.531 127.146 751.885 127.102 752.25 127.102ZM599.141 148.414C599.755 148.414 600.302 148.51 600.781 148.703C601.26 148.896 601.638 149.177 601.914 149.547C602.195 149.917 602.336 150.367 602.336 150.898C602.336 151.633 602.117 152.25 601.68 152.75C601.247 153.25 600.706 153.688 600.055 154.062L602.273 156.227C602.492 155.867 602.677 155.487 602.828 155.086C602.984 154.685 603.12 154.281 603.234 153.875H605.719C605.557 154.474 605.32 155.115 605.008 155.797C604.701 156.474 604.307 157.112 603.828 157.711L606.18 160H603.234L602.336 159.117C602.029 159.331 601.698 159.516 601.344 159.672C600.995 159.828 600.62 159.948 600.219 160.031C599.823 160.115 599.404 160.156 598.961 160.156C598.096 160.156 597.354 160.021 596.734 159.75C596.115 159.479 595.641 159.102 595.312 158.617C594.984 158.128 594.82 157.56 594.82 156.914C594.82 156.372 594.904 155.909 595.07 155.523C595.237 155.133 595.477 154.792 595.789 154.5C596.102 154.203 596.477 153.93 596.914 153.68C596.638 153.357 596.417 153.055 596.25 152.773C596.089 152.492 595.971 152.214 595.898 151.938C595.831 151.656 595.797 151.362 595.797 151.055C595.797 150.513 595.938 150.047 596.219 149.656C596.505 149.26 596.898 148.956 597.398 148.742C597.904 148.523 598.484 148.414 599.141 148.414ZM598.305 155.102C598.107 155.253 597.932 155.409 597.781 155.57C597.635 155.732 597.523 155.904 597.445 156.086C597.367 156.268 597.328 156.469 597.328 156.688C597.328 157.146 597.5 157.505 597.844 157.766C598.188 158.026 598.615 158.156 599.125 158.156C599.469 158.156 599.789 158.115 600.086 158.031C600.383 157.948 600.654 157.831 600.898 157.68L598.305 155.102ZM599.125 150.258C598.859 150.258 598.604 150.326 598.359 150.461C598.12 150.596 598 150.849 598 151.219C598 151.479 598.068 151.734 598.203 151.984C598.339 152.229 598.518 152.479 598.742 152.734C599.19 152.49 599.534 152.245 599.773 152C600.013 151.75 600.133 151.466 600.133 151.148C600.133 150.831 600.023 150.604 599.805 150.469C599.591 150.328 599.365 150.258 599.125 150.258ZM621.25 154.18C621.25 155.466 621.003 156.542 620.508 157.406C620.018 158.266 619.307 158.914 618.375 159.352C617.443 159.784 616.32 160 615.008 160H611.773V148.578H615.359C616.557 148.578 617.596 148.792 618.477 149.219C619.357 149.641 620.039 150.268 620.523 151.102C621.008 151.93 621.25 152.956 621.25 154.18ZM618.734 154.242C618.734 153.398 618.609 152.706 618.359 152.164C618.115 151.617 617.75 151.214 617.266 150.953C616.786 150.693 616.193 150.562 615.484 150.562H614.195V158H615.234C616.417 158 617.294 157.685 617.867 157.055C618.445 156.424 618.734 155.487 618.734 154.242ZM627.008 151.086C628.18 151.086 629.078 151.341 629.703 151.852C630.328 152.362 630.641 153.138 630.641 154.18V160H628.977L628.516 158.812H628.453C628.203 159.125 627.948 159.38 627.688 159.578C627.427 159.776 627.128 159.922 626.789 160.016C626.451 160.109 626.039 160.156 625.555 160.156C625.039 160.156 624.576 160.057 624.164 159.859C623.758 159.661 623.438 159.359 623.203 158.953C622.969 158.542 622.852 158.021 622.852 157.391C622.852 156.464 623.177 155.781 623.828 155.344C624.479 154.901 625.456 154.656 626.758 154.609L628.273 154.562V154.18C628.273 153.721 628.154 153.385 627.914 153.172C627.674 152.958 627.341 152.852 626.914 152.852C626.492 152.852 626.078 152.911 625.672 153.031C625.266 153.151 624.859 153.302 624.453 153.484L623.664 151.875C624.128 151.63 624.646 151.438 625.219 151.297C625.797 151.156 626.393 151.086 627.008 151.086ZM628.273 155.953L627.352 155.984C626.581 156.005 626.044 156.143 625.742 156.398C625.445 156.654 625.297 156.99 625.297 157.406C625.297 157.771 625.404 158.031 625.617 158.188C625.831 158.339 626.109 158.414 626.453 158.414C626.964 158.414 627.393 158.263 627.742 157.961C628.096 157.659 628.273 157.229 628.273 156.672V155.953ZM636.781 158.258C637.042 158.258 637.294 158.232 637.539 158.18C637.789 158.128 638.036 158.062 638.281 157.984V159.758C638.026 159.872 637.708 159.966 637.328 160.039C636.953 160.117 636.542 160.156 636.094 160.156C635.573 160.156 635.104 160.073 634.688 159.906C634.276 159.734 633.951 159.44 633.711 159.023C633.477 158.602 633.359 158.016 633.359 157.266V153.055H632.219V152.047L633.531 151.25L634.219 149.406H635.742V151.266H638.188V153.055H635.742V157.266C635.742 157.599 635.836 157.849 636.023 158.016C636.216 158.177 636.469 158.258 636.781 158.258ZM643.633 151.086C644.805 151.086 645.703 151.341 646.328 151.852C646.953 152.362 647.266 153.138 647.266 154.18V160H645.602L645.141 158.812H645.078C644.828 159.125 644.573 159.38 644.312 159.578C644.052 159.776 643.753 159.922 643.414 160.016C643.076 160.109 642.664 160.156 642.18 160.156C641.664 160.156 641.201 160.057 640.789 159.859C640.383 159.661 640.062 159.359 639.828 158.953C639.594 158.542 639.477 158.021 639.477 157.391C639.477 156.464 639.802 155.781 640.453 155.344C641.104 154.901 642.081 154.656 643.383 154.609L644.898 154.562V154.18C644.898 153.721 644.779 153.385 644.539 153.172C644.299 152.958 643.966 152.852 643.539 152.852C643.117 152.852 642.703 152.911 642.297 153.031C641.891 153.151 641.484 153.302 641.078 153.484L640.289 151.875C640.753 151.63 641.271 151.438 641.844 151.297C642.422 151.156 643.018 151.086 643.633 151.086ZM644.898 155.953L643.977 155.984C643.206 156.005 642.669 156.143 642.367 156.398C642.07 156.654 641.922 156.99 641.922 157.406C641.922 157.771 642.029 158.031 642.242 158.188C642.456 158.339 642.734 158.414 643.078 158.414C643.589 158.414 644.018 158.263 644.367 157.961C644.721 157.659 644.898 157.229 644.898 156.672V155.953ZM658.922 150.43C658.458 150.43 658.047 150.521 657.688 150.703C657.333 150.88 657.034 151.138 656.789 151.477C656.549 151.815 656.367 152.224 656.242 152.703C656.117 153.182 656.055 153.721 656.055 154.32C656.055 155.128 656.154 155.818 656.352 156.391C656.555 156.958 656.867 157.393 657.289 157.695C657.711 157.992 658.255 158.141 658.922 158.141C659.385 158.141 659.849 158.089 660.312 157.984C660.781 157.88 661.289 157.732 661.836 157.539V159.57C661.331 159.779 660.833 159.927 660.344 160.016C659.854 160.109 659.305 160.156 658.695 160.156C657.518 160.156 656.549 159.914 655.789 159.43C655.034 158.94 654.474 158.258 654.109 157.383C653.745 156.503 653.562 155.477 653.562 154.305C653.562 153.44 653.68 152.648 653.914 151.93C654.148 151.211 654.492 150.589 654.945 150.062C655.398 149.536 655.958 149.13 656.625 148.844C657.292 148.557 658.057 148.414 658.922 148.414C659.49 148.414 660.057 148.487 660.625 148.633C661.198 148.773 661.745 148.969 662.266 149.219L661.484 151.188C661.057 150.984 660.628 150.807 660.195 150.656C659.763 150.505 659.339 150.43 658.922 150.43ZM667.664 151.086C668.836 151.086 669.734 151.341 670.359 151.852C670.984 152.362 671.297 153.138 671.297 154.18V160H669.633L669.172 158.812H669.109C668.859 159.125 668.604 159.38 668.344 159.578C668.083 159.776 667.784 159.922 667.445 160.016C667.107 160.109 666.695 160.156 666.211 160.156C665.695 160.156 665.232 160.057 664.82 159.859C664.414 159.661 664.094 159.359 663.859 158.953C663.625 158.542 663.508 158.021 663.508 157.391C663.508 156.464 663.833 155.781 664.484 155.344C665.135 154.901 666.112 154.656 667.414 154.609L668.93 154.562V154.18C668.93 153.721 668.81 153.385 668.57 153.172C668.331 152.958 667.997 152.852 667.57 152.852C667.148 152.852 666.734 152.911 666.328 153.031C665.922 153.151 665.516 153.302 665.109 153.484L664.32 151.875C664.784 151.63 665.302 151.438 665.875 151.297C666.453 151.156 667.049 151.086 667.664 151.086ZM668.93 155.953L668.008 155.984C667.237 156.005 666.701 156.143 666.398 156.398C666.102 156.654 665.953 156.99 665.953 157.406C665.953 157.771 666.06 158.031 666.273 158.188C666.487 158.339 666.766 158.414 667.109 158.414C667.62 158.414 668.049 158.263 668.398 157.961C668.753 157.659 668.93 157.229 668.93 156.672V155.953ZM678.617 151.102C679.602 151.102 680.396 151.484 681 152.25C681.609 153.016 681.914 154.138 681.914 155.617C681.914 156.607 681.771 157.44 681.484 158.117C681.198 158.789 680.802 159.297 680.297 159.641C679.792 159.984 679.211 160.156 678.555 160.156C678.133 160.156 677.771 160.104 677.469 160C677.167 159.891 676.909 159.753 676.695 159.586C676.482 159.414 676.297 159.232 676.141 159.039H676.016C676.057 159.247 676.089 159.461 676.109 159.68C676.13 159.898 676.141 160.112 676.141 160.32V163.844H673.758V151.266H675.695L676.031 152.398H676.141C676.297 152.164 676.487 151.948 676.711 151.75C676.935 151.552 677.203 151.396 677.516 151.281C677.833 151.161 678.201 151.102 678.617 151.102ZM677.852 153.008C677.435 153.008 677.104 153.094 676.859 153.266C676.615 153.438 676.435 153.695 676.32 154.039C676.211 154.383 676.151 154.818 676.141 155.344V155.602C676.141 156.164 676.193 156.641 676.297 157.031C676.406 157.422 676.586 157.719 676.836 157.922C677.091 158.125 677.44 158.227 677.883 158.227C678.247 158.227 678.547 158.125 678.781 157.922C679.016 157.719 679.19 157.422 679.305 157.031C679.424 156.635 679.484 156.154 679.484 155.586C679.484 154.732 679.352 154.089 679.086 153.656C678.82 153.224 678.409 153.008 677.852 153.008ZM687.562 158.258C687.823 158.258 688.076 158.232 688.32 158.18C688.57 158.128 688.818 158.062 689.062 157.984V159.758C688.807 159.872 688.49 159.966 688.109 160.039C687.734 160.117 687.323 160.156 686.875 160.156C686.354 160.156 685.885 160.073 685.469 159.906C685.057 159.734 684.732 159.44 684.492 159.023C684.258 158.602 684.141 158.016 684.141 157.266V153.055H683V152.047L684.312 151.25L685 149.406H686.523V151.266H688.969V153.055H686.523V157.266C686.523 157.599 686.617 157.849 686.805 158.016C686.997 158.177 687.25 158.258 687.562 158.258ZM698.852 151.266V160H697.023L696.703 158.883H696.578C696.391 159.18 696.156 159.422 695.875 159.609C695.594 159.797 695.284 159.935 694.945 160.023C694.607 160.112 694.255 160.156 693.891 160.156C693.266 160.156 692.721 160.047 692.258 159.828C691.794 159.604 691.432 159.258 691.172 158.789C690.917 158.32 690.789 157.711 690.789 156.961V151.266H693.172V156.367C693.172 156.992 693.284 157.464 693.508 157.781C693.732 158.099 694.089 158.258 694.578 158.258C695.062 158.258 695.443 158.148 695.719 157.93C695.995 157.706 696.188 157.38 696.297 156.953C696.411 156.521 696.469 155.995 696.469 155.375V151.266H698.852ZM706.227 151.102C706.346 151.102 706.484 151.109 706.641 151.125C706.802 151.135 706.932 151.151 707.031 151.172L706.852 153.406C706.773 153.38 706.661 153.362 706.516 153.352C706.375 153.336 706.253 153.328 706.148 153.328C705.841 153.328 705.542 153.367 705.25 153.445C704.964 153.523 704.706 153.651 704.477 153.828C704.247 154 704.065 154.229 703.93 154.516C703.799 154.797 703.734 155.143 703.734 155.555V160H701.352V151.266H703.156L703.508 152.734H703.625C703.797 152.438 704.01 152.167 704.266 151.922C704.526 151.672 704.82 151.474 705.148 151.328C705.482 151.177 705.841 151.102 706.227 151.102ZM712.219 151.102C713.026 151.102 713.721 151.258 714.305 151.57C714.888 151.878 715.339 152.326 715.656 152.914C715.974 153.503 716.133 154.221 716.133 155.07V156.227H710.5C710.526 156.898 710.727 157.427 711.102 157.812C711.482 158.193 712.008 158.383 712.68 158.383C713.237 158.383 713.747 158.326 714.211 158.211C714.674 158.096 715.151 157.924 715.641 157.695V159.539C715.208 159.753 714.755 159.909 714.281 160.008C713.812 160.107 713.242 160.156 712.57 160.156C711.695 160.156 710.919 159.995 710.242 159.672C709.57 159.349 709.042 158.857 708.656 158.195C708.276 157.534 708.086 156.701 708.086 155.695C708.086 154.674 708.258 153.826 708.602 153.148C708.951 152.466 709.435 151.956 710.055 151.617C710.674 151.273 711.396 151.102 712.219 151.102ZM712.234 152.797C711.771 152.797 711.385 152.945 711.078 153.242C710.776 153.539 710.602 154.005 710.555 154.641H713.898C713.893 154.286 713.828 153.971 713.703 153.695C713.583 153.419 713.401 153.201 713.156 153.039C712.917 152.878 712.609 152.797 712.234 152.797Z" fill="#333333"/>
<path d="M256.422 15.8281C256.422 16.5052 256.258 17.0938 255.93 17.5938C255.602 18.0938 255.122 18.4792 254.492 18.75C253.867 19.0208 253.107 19.1562 252.211 19.1562C251.815 19.1562 251.427 19.1302 251.047 19.0781C250.672 19.026 250.31 18.9505 249.961 18.8516C249.617 18.7474 249.289 18.6198 248.977 18.4688V16.2188C249.518 16.4583 250.081 16.6745 250.664 16.8672C251.247 17.0599 251.826 17.1562 252.398 17.1562C252.794 17.1562 253.112 17.1042 253.352 17C253.596 16.8958 253.773 16.7526 253.883 16.5703C253.992 16.388 254.047 16.1797 254.047 15.9453C254.047 15.6589 253.951 15.4141 253.758 15.2109C253.565 15.0078 253.299 14.8177 252.961 14.6406C252.628 14.4635 252.25 14.2734 251.828 14.0703C251.562 13.9453 251.273 13.7943 250.961 13.6172C250.648 13.4349 250.352 13.2135 250.07 12.9531C249.789 12.6927 249.557 12.3776 249.375 12.0078C249.198 11.6328 249.109 11.1849 249.109 10.6641C249.109 9.98177 249.266 9.39844 249.578 8.91406C249.891 8.42969 250.336 8.0599 250.914 7.80469C251.497 7.54427 252.185 7.41406 252.977 7.41406C253.57 7.41406 254.135 7.48438 254.672 7.625C255.214 7.76042 255.779 7.95833 256.367 8.21875L255.586 10.1016C255.06 9.88802 254.589 9.72396 254.172 9.60938C253.755 9.48958 253.331 9.42969 252.898 9.42969C252.596 9.42969 252.339 9.47917 252.125 9.57812C251.911 9.67188 251.75 9.80729 251.641 9.98438C251.531 10.1562 251.477 10.3568 251.477 10.5859C251.477 10.8568 251.555 11.0859 251.711 11.2734C251.872 11.4557 252.112 11.6328 252.43 11.8047C252.753 11.9766 253.154 12.1771 253.633 12.4062C254.216 12.6823 254.714 12.9714 255.125 13.2734C255.542 13.5703 255.862 13.9219 256.086 14.3281C256.31 14.7292 256.422 15.2292 256.422 15.8281ZM261.906 10.1016C262.714 10.1016 263.409 10.2578 263.992 10.5703C264.576 10.8776 265.026 11.3255 265.344 11.9141C265.661 12.5026 265.82 13.2214 265.82 14.0703V15.2266H260.188C260.214 15.8984 260.414 16.4271 260.789 16.8125C261.169 17.1927 261.695 17.3828 262.367 17.3828C262.924 17.3828 263.435 17.3255 263.898 17.2109C264.362 17.0964 264.839 16.9245 265.328 16.6953V18.5391C264.896 18.7526 264.443 18.9089 263.969 19.0078C263.5 19.1068 262.93 19.1562 262.258 19.1562C261.383 19.1562 260.607 18.9948 259.93 18.6719C259.258 18.349 258.729 17.8568 258.344 17.1953C257.964 16.5339 257.773 15.7005 257.773 14.6953C257.773 13.6745 257.945 12.8255 258.289 12.1484C258.638 11.4661 259.122 10.9557 259.742 10.6172C260.362 10.2734 261.083 10.1016 261.906 10.1016ZM261.922 11.7969C261.458 11.7969 261.073 11.9453 260.766 12.2422C260.464 12.5391 260.289 13.0052 260.242 13.6406H263.586C263.581 13.2865 263.516 12.9714 263.391 12.6953C263.271 12.4193 263.089 12.2005 262.844 12.0391C262.604 11.8776 262.297 11.7969 261.922 11.7969ZM270.141 19H267.758V6.84375H270.141V19ZM276.25 10.1016C277.057 10.1016 277.753 10.2578 278.336 10.5703C278.919 10.8776 279.37 11.3255 279.688 11.9141C280.005 12.5026 280.164 13.2214 280.164 14.0703V15.2266H274.531C274.557 15.8984 274.758 16.4271 275.133 16.8125C275.513 17.1927 276.039 17.3828 276.711 17.3828C277.268 17.3828 277.779 17.3255 278.242 17.2109C278.706 17.0964 279.182 16.9245 279.672 16.6953V18.5391C279.24 18.7526 278.786 18.9089 278.312 19.0078C277.844 19.1068 277.273 19.1562 276.602 19.1562C275.727 19.1562 274.951 18.9948 274.273 18.6719C273.602 18.349 273.073 17.8568 272.688 17.1953C272.307 16.5339 272.117 15.7005 272.117 14.6953C272.117 13.6745 272.289 12.8255 272.633 12.1484C272.982 11.4661 273.466 10.9557 274.086 10.6172C274.706 10.2734 275.427 10.1016 276.25 10.1016ZM276.266 11.7969C275.802 11.7969 275.417 11.9453 275.109 12.2422C274.807 12.5391 274.633 13.0052 274.586 13.6406H277.93C277.924 13.2865 277.859 12.9714 277.734 12.6953C277.615 12.4193 277.432 12.2005 277.188 12.0391C276.948 11.8776 276.641 11.7969 276.266 11.7969ZM285.648 19.1562C284.784 19.1562 284.047 19 283.438 18.6875C282.828 18.3698 282.365 17.8802 282.047 17.2188C281.729 16.5573 281.57 15.7109 281.57 14.6797C281.57 13.612 281.75 12.7422 282.109 12.0703C282.474 11.3932 282.977 10.8958 283.617 10.5781C284.263 10.2604 285.01 10.1016 285.859 10.1016C286.464 10.1016 286.984 10.1615 287.422 10.2812C287.865 10.3958 288.25 10.5339 288.578 10.6953L287.875 12.5391C287.5 12.388 287.151 12.2656 286.828 12.1719C286.505 12.0729 286.182 12.0234 285.859 12.0234C285.443 12.0234 285.096 12.1224 284.82 12.3203C284.544 12.513 284.339 12.8047 284.203 13.1953C284.068 13.5859 284 14.0755 284 14.6641C284 15.2422 284.073 15.7214 284.219 16.1016C284.365 16.4818 284.576 16.7656 284.852 16.9531C285.128 17.1354 285.464 17.2266 285.859 17.2266C286.354 17.2266 286.794 17.1615 287.18 17.0312C287.565 16.8958 287.94 16.7083 288.305 16.4688V18.5078C287.94 18.737 287.557 18.901 287.156 19C286.76 19.1042 286.258 19.1562 285.648 19.1562ZM294.016 17.2578C294.276 17.2578 294.529 17.2318 294.773 17.1797C295.023 17.1276 295.271 17.0625 295.516 16.9844V18.7578C295.26 18.8724 294.943 18.9661 294.562 19.0391C294.188 19.1172 293.776 19.1562 293.328 19.1562C292.807 19.1562 292.339 19.0729 291.922 18.9062C291.51 18.7344 291.185 18.4401 290.945 18.0234C290.711 17.6016 290.594 17.0156 290.594 16.2656V12.0547H289.453V11.0469L290.766 10.25L291.453 8.40625H292.977V10.2656H295.422V12.0547H292.977V16.2656C292.977 16.599 293.07 16.849 293.258 17.0156C293.451 17.1771 293.703 17.2578 294.016 17.2578ZM306.039 19H303.617V9.59375H300.516V7.57812H309.141V9.59375H306.039V19ZM314.312 10.1016C315.12 10.1016 315.815 10.2578 316.398 10.5703C316.982 10.8776 317.432 11.3255 317.75 11.9141C318.068 12.5026 318.227 13.2214 318.227 14.0703V15.2266H312.594C312.62 15.8984 312.82 16.4271 313.195 16.8125C313.576 17.1927 314.102 17.3828 314.773 17.3828C315.331 17.3828 315.841 17.3255 316.305 17.2109C316.768 17.0964 317.245 16.9245 317.734 16.6953V18.5391C317.302 18.7526 316.849 18.9089 316.375 19.0078C315.906 19.1068 315.336 19.1562 314.664 19.1562C313.789 19.1562 313.013 18.9948 312.336 18.6719C311.664 18.349 311.135 17.8568 310.75 17.1953C310.37 16.5339 310.18 15.7005 310.18 14.6953C310.18 13.6745 310.352 12.8255 310.695 12.1484C311.044 11.4661 311.529 10.9557 312.148 10.6172C312.768 10.2734 313.49 10.1016 314.312 10.1016ZM314.328 11.7969C313.865 11.7969 313.479 11.9453 313.172 12.2422C312.87 12.5391 312.695 13.0052 312.648 13.6406H315.992C315.987 13.2865 315.922 12.9714 315.797 12.6953C315.677 12.4193 315.495 12.2005 315.25 12.0391C315.01 11.8776 314.703 11.7969 314.328 11.7969ZM330.422 10.1016C331.411 10.1016 332.159 10.3568 332.664 10.8672C333.174 11.3724 333.43 12.1849 333.43 13.3047V19H331.039V13.8984C331.039 13.2734 330.932 12.8021 330.719 12.4844C330.505 12.1667 330.174 12.0078 329.727 12.0078C329.096 12.0078 328.648 12.2344 328.383 12.6875C328.117 13.1354 327.984 13.7786 327.984 14.6172V19H325.602V13.8984C325.602 13.4818 325.555 13.1328 325.461 12.8516C325.367 12.5703 325.224 12.3594 325.031 12.2188C324.839 12.0781 324.591 12.0078 324.289 12.0078C323.846 12.0078 323.497 12.1198 323.242 12.3438C322.992 12.5625 322.812 12.888 322.703 13.3203C322.599 13.7474 322.547 14.2708 322.547 14.8906V19H320.164V10.2656H321.984L322.305 11.3828H322.438C322.615 11.0807 322.836 10.8359 323.102 10.6484C323.372 10.4609 323.669 10.3229 323.992 10.2344C324.315 10.1458 324.643 10.1016 324.977 10.1016C325.617 10.1016 326.159 10.2057 326.602 10.4141C327.049 10.6224 327.393 10.9453 327.633 11.3828H327.844C328.104 10.9349 328.471 10.6094 328.945 10.4062C329.424 10.2031 329.917 10.1016 330.422 10.1016ZM340.742 10.1016C341.727 10.1016 342.521 10.4844 343.125 11.25C343.734 12.0156 344.039 13.138 344.039 14.6172C344.039 15.6068 343.896 16.4401 343.609 17.1172C343.323 17.7891 342.927 18.2969 342.422 18.6406C341.917 18.9844 341.336 19.1562 340.68 19.1562C340.258 19.1562 339.896 19.1042 339.594 19C339.292 18.8906 339.034 18.7526 338.82 18.5859C338.607 18.4141 338.422 18.2318 338.266 18.0391H338.141C338.182 18.2474 338.214 18.4609 338.234 18.6797C338.255 18.8984 338.266 19.112 338.266 19.3203V22.8438H335.883V10.2656H337.82L338.156 11.3984H338.266C338.422 11.1641 338.612 10.9479 338.836 10.75C339.06 10.5521 339.328 10.3958 339.641 10.2812C339.958 10.1615 340.326 10.1016 340.742 10.1016ZM339.977 12.0078C339.56 12.0078 339.229 12.0938 338.984 12.2656C338.74 12.4375 338.56 12.6953 338.445 13.0391C338.336 13.3828 338.276 13.8177 338.266 14.3438V14.6016C338.266 15.1641 338.318 15.6406 338.422 16.0312C338.531 16.4219 338.711 16.7188 338.961 16.9219C339.216 17.125 339.565 17.2266 340.008 17.2266C340.372 17.2266 340.672 17.125 340.906 16.9219C341.141 16.7188 341.315 16.4219 341.43 16.0312C341.549 15.6354 341.609 15.1536 341.609 14.5859C341.609 13.7318 341.477 13.0885 341.211 12.6562C340.945 12.224 340.534 12.0078 339.977 12.0078ZM348.391 19H346.008V6.84375H348.391V19ZM354.477 10.0859C355.648 10.0859 356.547 10.3411 357.172 10.8516C357.797 11.362 358.109 12.138 358.109 13.1797V19H356.445L355.984 17.8125H355.922C355.672 18.125 355.417 18.3802 355.156 18.5781C354.896 18.776 354.596 18.9219 354.258 19.0156C353.919 19.1094 353.508 19.1562 353.023 19.1562C352.508 19.1562 352.044 19.0573 351.633 18.8594C351.227 18.6615 350.906 18.3594 350.672 17.9531C350.438 17.5417 350.32 17.0208 350.32 16.3906C350.32 15.4635 350.646 14.7812 351.297 14.3438C351.948 13.901 352.924 13.6562 354.227 13.6094L355.742 13.5625V13.1797C355.742 12.7214 355.622 12.3854 355.383 12.1719C355.143 11.9583 354.81 11.8516 354.383 11.8516C353.961 11.8516 353.547 11.9115 353.141 12.0312C352.734 12.151 352.328 12.3021 351.922 12.4844L351.133 10.875C351.596 10.6302 352.115 10.4375 352.688 10.2969C353.266 10.1562 353.862 10.0859 354.477 10.0859ZM355.742 14.9531L354.82 14.9844C354.049 15.0052 353.513 15.1432 353.211 15.3984C352.914 15.6536 352.766 15.9896 352.766 16.4062C352.766 16.7708 352.872 17.0312 353.086 17.1875C353.299 17.3385 353.578 17.4141 353.922 17.4141C354.432 17.4141 354.862 17.263 355.211 16.9609C355.565 16.6589 355.742 16.2292 355.742 15.6719V14.9531ZM364.25 17.2578C364.51 17.2578 364.763 17.2318 365.008 17.1797C365.258 17.1276 365.505 17.0625 365.75 16.9844V18.7578C365.495 18.8724 365.177 18.9661 364.797 19.0391C364.422 19.1172 364.01 19.1562 363.562 19.1562C363.042 19.1562 362.573 19.0729 362.156 18.9062C361.745 18.7344 361.419 18.4401 361.18 18.0234C360.945 17.6016 360.828 17.0156 360.828 16.2656V12.0547H359.688V11.0469L361 10.25L361.688 8.40625H363.211V10.2656H365.656V12.0547H363.211V16.2656C363.211 16.599 363.305 16.849 363.492 17.0156C363.685 17.1771 363.938 17.2578 364.25 17.2578ZM371.125 10.1016C371.932 10.1016 372.628 10.2578 373.211 10.5703C373.794 10.8776 374.245 11.3255 374.562 11.9141C374.88 12.5026 375.039 13.2214 375.039 14.0703V15.2266H369.406C369.432 15.8984 369.633 16.4271 370.008 16.8125C370.388 17.1927 370.914 17.3828 371.586 17.3828C372.143 17.3828 372.654 17.3255 373.117 17.2109C373.581 17.0964 374.057 16.9245 374.547 16.6953V18.5391C374.115 18.7526 373.661 18.9089 373.188 19.0078C372.719 19.1068 372.148 19.1562 371.477 19.1562C370.602 19.1562 369.826 18.9948 369.148 18.6719C368.477 18.349 367.948 17.8568 367.562 17.1953C367.182 16.5339 366.992 15.7005 366.992 14.6953C366.992 13.6745 367.164 12.8255 367.508 12.1484C367.857 11.4661 368.341 10.9557 368.961 10.6172C369.581 10.2734 370.302 10.1016 371.125 10.1016ZM371.141 11.7969C370.677 11.7969 370.292 11.9453 369.984 12.2422C369.682 12.5391 369.508 13.0052 369.461 13.6406H372.805C372.799 13.2865 372.734 12.9714 372.609 12.6953C372.49 12.4193 372.307 12.2005 372.062 12.0391C371.823 11.8776 371.516 11.7969 371.141 11.7969ZM386.414 7.57812L382.156 19H379.992L384.25 7.57812H386.414ZM396.938 9.42969C396.474 9.42969 396.062 9.52083 395.703 9.70312C395.349 9.88021 395.049 10.138 394.805 10.4766C394.565 10.8151 394.383 11.224 394.258 11.7031C394.133 12.1823 394.07 12.7214 394.07 13.3203C394.07 14.1276 394.169 14.8177 394.367 15.3906C394.57 15.9583 394.883 16.3932 395.305 16.6953C395.727 16.9922 396.271 17.1406 396.938 17.1406C397.401 17.1406 397.865 17.0885 398.328 16.9844C398.797 16.8802 399.305 16.7318 399.852 16.5391V18.5703C399.346 18.7786 398.849 18.9271 398.359 19.0156C397.87 19.1094 397.32 19.1562 396.711 19.1562C395.534 19.1562 394.565 18.9141 393.805 18.4297C393.049 17.9401 392.49 17.2578 392.125 16.3828C391.76 15.5026 391.578 14.4766 391.578 13.3047C391.578 12.4401 391.695 11.6484 391.93 10.9297C392.164 10.2109 392.508 9.58854 392.961 9.0625C393.414 8.53646 393.974 8.13021 394.641 7.84375C395.307 7.55729 396.073 7.41406 396.938 7.41406C397.505 7.41406 398.073 7.48698 398.641 7.63281C399.214 7.77344 399.76 7.96875 400.281 8.21875L399.5 10.1875C399.073 9.98438 398.643 9.80729 398.211 9.65625C397.779 9.50521 397.354 9.42969 396.938 9.42969ZM410.117 10.2656V19H408.289L407.969 17.8828H407.844C407.656 18.1797 407.422 18.4219 407.141 18.6094C406.859 18.7969 406.549 18.9349 406.211 19.0234C405.872 19.112 405.521 19.1562 405.156 19.1562C404.531 19.1562 403.987 19.0469 403.523 18.8281C403.06 18.6042 402.698 18.2578 402.438 17.7891C402.182 17.3203 402.055 16.7109 402.055 15.9609V10.2656H404.438V15.3672C404.438 15.9922 404.549 16.4635 404.773 16.7812C404.997 17.099 405.354 17.2578 405.844 17.2578C406.328 17.2578 406.708 17.1484 406.984 16.9297C407.26 16.7057 407.453 16.3802 407.562 15.9531C407.677 15.5208 407.734 14.9948 407.734 14.375V10.2656H410.117ZM418.711 16.4062C418.711 17 418.57 17.5026 418.289 17.9141C418.013 18.3203 417.599 18.6302 417.047 18.8438C416.495 19.0521 415.807 19.1562 414.984 19.1562C414.375 19.1562 413.852 19.1172 413.414 19.0391C412.982 18.9609 412.544 18.8307 412.102 18.6484V16.6797C412.576 16.8932 413.083 17.0703 413.625 17.2109C414.172 17.3464 414.651 17.4141 415.062 17.4141C415.526 17.4141 415.857 17.3464 416.055 17.2109C416.258 17.0703 416.359 16.888 416.359 16.6641C416.359 16.5182 416.318 16.388 416.234 16.2734C416.156 16.1536 415.984 16.0208 415.719 15.875C415.453 15.724 415.036 15.5286 414.469 15.2891C413.922 15.0599 413.471 14.8281 413.117 14.5938C412.768 14.3594 412.508 14.0833 412.336 13.7656C412.169 13.4427 412.086 13.0339 412.086 12.5391C412.086 11.7318 412.398 11.125 413.023 10.7188C413.654 10.3073 414.495 10.1016 415.547 10.1016C416.089 10.1016 416.604 10.1562 417.094 10.2656C417.589 10.375 418.096 10.5495 418.617 10.7891L417.898 12.5078C417.466 12.3203 417.057 12.1667 416.672 12.0469C416.292 11.9271 415.904 11.8672 415.508 11.8672C415.159 11.8672 414.896 11.9141 414.719 12.0078C414.542 12.1016 414.453 12.2448 414.453 12.4375C414.453 12.5781 414.497 12.7031 414.586 12.8125C414.68 12.9219 414.857 13.0443 415.117 13.1797C415.383 13.3099 415.771 13.4792 416.281 13.6875C416.776 13.8906 417.206 14.1042 417.57 14.3281C417.935 14.5469 418.216 14.8203 418.414 15.1484C418.612 15.4714 418.711 15.8906 418.711 16.4062ZM424.25 17.2578C424.51 17.2578 424.763 17.2318 425.008 17.1797C425.258 17.1276 425.505 17.0625 425.75 16.9844V18.7578C425.495 18.8724 425.177 18.9661 424.797 19.0391C424.422 19.1172 424.01 19.1562 423.562 19.1562C423.042 19.1562 422.573 19.0729 422.156 18.9062C421.745 18.7344 421.419 18.4401 421.18 18.0234C420.945 17.6016 420.828 17.0156 420.828 16.2656V12.0547H419.688V11.0469L421 10.25L421.688 8.40625H423.211V10.2656H425.656V12.0547H423.211V16.2656C423.211 16.599 423.305 16.849 423.492 17.0156C423.685 17.1771 423.938 17.2578 424.25 17.2578ZM435.461 14.6172C435.461 15.3464 435.362 15.9922 435.164 16.5547C434.971 17.1172 434.688 17.5938 434.312 17.9844C433.943 18.3698 433.495 18.6615 432.969 18.8594C432.448 19.0573 431.859 19.1562 431.203 19.1562C430.589 19.1562 430.023 19.0573 429.508 18.8594C428.997 18.6615 428.552 18.3698 428.172 17.9844C427.797 17.5938 427.505 17.1172 427.297 16.5547C427.094 15.9922 426.992 15.3464 426.992 14.6172C426.992 13.6484 427.164 12.8281 427.508 12.1562C427.852 11.4844 428.341 10.974 428.977 10.625C429.612 10.276 430.37 10.1016 431.25 10.1016C432.068 10.1016 432.792 10.276 433.422 10.625C434.057 10.974 434.555 11.4844 434.914 12.1562C435.279 12.8281 435.461 13.6484 435.461 14.6172ZM429.422 14.6172C429.422 15.1901 429.484 15.6719 429.609 16.0625C429.734 16.4531 429.93 16.7474 430.195 16.9453C430.461 17.1432 430.807 17.2422 431.234 17.2422C431.656 17.2422 431.997 17.1432 432.258 16.9453C432.523 16.7474 432.716 16.4531 432.836 16.0625C432.961 15.6719 433.023 15.1901 433.023 14.6172C433.023 14.0391 432.961 13.5599 432.836 13.1797C432.716 12.7943 432.523 12.5052 432.258 12.3125C431.992 12.1198 431.646 12.0234 431.219 12.0234C430.589 12.0234 430.13 12.2396 429.844 12.6719C429.562 13.1042 429.422 13.7526 429.422 14.6172ZM447.688 10.1016C448.677 10.1016 449.424 10.3568 449.93 10.8672C450.44 11.3724 450.695 12.1849 450.695 13.3047V19H448.305V13.8984C448.305 13.2734 448.198 12.8021 447.984 12.4844C447.771 12.1667 447.44 12.0078 446.992 12.0078C446.362 12.0078 445.914 12.2344 445.648 12.6875C445.383 13.1354 445.25 13.7786 445.25 14.6172V19H442.867V13.8984C442.867 13.4818 442.82 13.1328 442.727 12.8516C442.633 12.5703 442.49 12.3594 442.297 12.2188C442.104 12.0781 441.857 12.0078 441.555 12.0078C441.112 12.0078 440.763 12.1198 440.508 12.3438C440.258 12.5625 440.078 12.888 439.969 13.3203C439.865 13.7474 439.812 14.2708 439.812 14.8906V19H437.43V10.2656H439.25L439.57 11.3828H439.703C439.88 11.0807 440.102 10.8359 440.367 10.6484C440.638 10.4609 440.935 10.3229 441.258 10.2344C441.581 10.1458 441.909 10.1016 442.242 10.1016C442.883 10.1016 443.424 10.2057 443.867 10.4141C444.315 10.6224 444.659 10.9453 444.898 11.3828H445.109C445.37 10.9349 445.737 10.6094 446.211 10.4062C446.69 10.2031 447.182 10.1016 447.688 10.1016ZM466.969 13.1797C466.969 14.4661 466.721 15.5417 466.227 16.4062C465.737 17.2656 465.026 17.9141 464.094 18.3516C463.161 18.7839 462.039 19 460.727 19H457.492V7.57812H461.078C462.276 7.57812 463.315 7.79167 464.195 8.21875C465.076 8.64062 465.758 9.26823 466.242 10.1016C466.727 10.9297 466.969 11.9557 466.969 13.1797ZM464.453 13.2422C464.453 12.3984 464.328 11.7057 464.078 11.1641C463.833 10.6172 463.469 10.2135 462.984 9.95312C462.505 9.69271 461.911 9.5625 461.203 9.5625H459.914V17H460.953C462.135 17 463.013 16.6849 463.586 16.0547C464.164 15.4245 464.453 14.487 464.453 13.2422ZM472.75 10.1016C473.557 10.1016 474.253 10.2578 474.836 10.5703C475.419 10.8776 475.87 11.3255 476.188 11.9141C476.505 12.5026 476.664 13.2214 476.664 14.0703V15.2266H471.031C471.057 15.8984 471.258 16.4271 471.633 16.8125C472.013 17.1927 472.539 17.3828 473.211 17.3828C473.768 17.3828 474.279 17.3255 474.742 17.2109C475.206 17.0964 475.682 16.9245 476.172 16.6953V18.5391C475.74 18.7526 475.286 18.9089 474.812 19.0078C474.344 19.1068 473.773 19.1562 473.102 19.1562C472.227 19.1562 471.451 18.9948 470.773 18.6719C470.102 18.349 469.573 17.8568 469.188 17.1953C468.807 16.5339 468.617 15.7005 468.617 14.6953C468.617 13.6745 468.789 12.8255 469.133 12.1484C469.482 11.4661 469.966 10.9557 470.586 10.6172C471.206 10.2734 471.927 10.1016 472.75 10.1016ZM472.766 11.7969C472.302 11.7969 471.917 11.9453 471.609 12.2422C471.307 12.5391 471.133 13.0052 471.086 13.6406H474.43C474.424 13.2865 474.359 12.9714 474.234 12.6953C474.115 12.4193 473.932 12.2005 473.688 12.0391C473.448 11.8776 473.141 11.7969 472.766 11.7969ZM484.695 16.4062C484.695 17 484.555 17.5026 484.273 17.9141C483.997 18.3203 483.583 18.6302 483.031 18.8438C482.479 19.0521 481.792 19.1562 480.969 19.1562C480.359 19.1562 479.836 19.1172 479.398 19.0391C478.966 18.9609 478.529 18.8307 478.086 18.6484V16.6797C478.56 16.8932 479.068 17.0703 479.609 17.2109C480.156 17.3464 480.635 17.4141 481.047 17.4141C481.51 17.4141 481.841 17.3464 482.039 17.2109C482.242 17.0703 482.344 16.888 482.344 16.6641C482.344 16.5182 482.302 16.388 482.219 16.2734C482.141 16.1536 481.969 16.0208 481.703 15.875C481.438 15.724 481.021 15.5286 480.453 15.2891C479.906 15.0599 479.456 14.8281 479.102 14.5938C478.753 14.3594 478.492 14.0833 478.32 13.7656C478.154 13.4427 478.07 13.0339 478.07 12.5391C478.07 11.7318 478.383 11.125 479.008 10.7188C479.638 10.3073 480.479 10.1016 481.531 10.1016C482.073 10.1016 482.589 10.1562 483.078 10.2656C483.573 10.375 484.081 10.5495 484.602 10.7891L483.883 12.5078C483.451 12.3203 483.042 12.1667 482.656 12.0469C482.276 11.9271 481.888 11.8672 481.492 11.8672C481.143 11.8672 480.88 11.9141 480.703 12.0078C480.526 12.1016 480.438 12.2448 480.438 12.4375C480.438 12.5781 480.482 12.7031 480.57 12.8125C480.664 12.9219 480.841 13.0443 481.102 13.1797C481.367 13.3099 481.755 13.4792 482.266 13.6875C482.76 13.8906 483.19 14.1042 483.555 14.3281C483.919 14.5469 484.201 14.8203 484.398 15.1484C484.596 15.4714 484.695 15.8906 484.695 16.4062ZM488.938 10.2656V19H486.555V10.2656H488.938ZM487.75 6.84375C488.104 6.84375 488.409 6.92708 488.664 7.09375C488.919 7.25521 489.047 7.5599 489.047 8.00781C489.047 8.45052 488.919 8.75781 488.664 8.92969C488.409 9.09635 488.104 9.17969 487.75 9.17969C487.391 9.17969 487.083 9.09635 486.828 8.92969C486.578 8.75781 486.453 8.45052 486.453 8.00781C486.453 7.5599 486.578 7.25521 486.828 7.09375C487.083 6.92708 487.391 6.84375 487.75 6.84375ZM494 22.8438C492.781 22.8438 491.849 22.6302 491.203 22.2031C490.562 21.7812 490.242 21.1875 490.242 20.4219C490.242 19.8958 490.406 19.4557 490.734 19.1016C491.062 18.7474 491.544 18.4948 492.18 18.3438C491.935 18.2396 491.721 18.0703 491.539 17.8359C491.357 17.5964 491.266 17.3438 491.266 17.0781C491.266 16.7448 491.362 16.4688 491.555 16.25C491.747 16.026 492.026 15.8073 492.391 15.5938C491.932 15.3958 491.568 15.0781 491.297 14.6406C491.031 14.2031 490.898 13.6875 490.898 13.0938C490.898 12.4583 491.036 11.9193 491.312 11.4766C491.594 11.0286 492 10.6875 492.531 10.4531C493.068 10.2188 493.719 10.1016 494.484 10.1016C494.646 10.1016 494.833 10.112 495.047 10.1328C495.26 10.1536 495.456 10.1771 495.633 10.2031C495.815 10.2292 495.938 10.25 496 10.2656H499.047V11.4766L497.68 11.8281C497.805 12.0208 497.898 12.2266 497.961 12.4453C498.023 12.6641 498.055 12.8958 498.055 13.1406C498.055 14.0781 497.727 14.8099 497.07 15.3359C496.419 15.8568 495.513 16.1172 494.352 16.1172C494.076 16.1016 493.815 16.0807 493.57 16.0547C493.451 16.1484 493.359 16.2474 493.297 16.3516C493.234 16.4557 493.203 16.5651 493.203 16.6797C493.203 16.7943 493.25 16.8906 493.344 16.9688C493.443 17.0417 493.589 17.099 493.781 17.1406C493.979 17.1771 494.224 17.1953 494.516 17.1953H496C496.958 17.1953 497.688 17.401 498.188 17.8125C498.693 18.224 498.945 18.8281 498.945 19.625C498.945 20.6458 498.518 21.4375 497.664 22C496.815 22.5625 495.594 22.8438 494 22.8438ZM494.102 21.2891C494.669 21.2891 495.156 21.2344 495.562 21.125C495.974 21.0208 496.289 20.8698 496.508 20.6719C496.727 20.4792 496.836 20.2474 496.836 19.9766C496.836 19.7578 496.771 19.5833 496.641 19.4531C496.516 19.3281 496.323 19.2396 496.062 19.1875C495.807 19.1354 495.479 19.1094 495.078 19.1094H493.844C493.552 19.1094 493.289 19.1562 493.055 19.25C492.826 19.3438 492.643 19.474 492.508 19.6406C492.372 19.8125 492.305 20.0104 492.305 20.2344C492.305 20.5625 492.461 20.8203 492.773 21.0078C493.091 21.1953 493.534 21.2891 494.102 21.2891ZM494.484 14.6641C494.932 14.6641 495.26 14.526 495.469 14.25C495.677 13.974 495.781 13.599 495.781 13.125C495.781 12.599 495.672 12.2057 495.453 11.9453C495.24 11.6797 494.917 11.5469 494.484 11.5469C494.047 11.5469 493.719 11.6797 493.5 11.9453C493.281 12.2057 493.172 12.599 493.172 13.125C493.172 13.599 493.279 13.974 493.492 14.25C493.711 14.526 494.042 14.6641 494.484 14.6641ZM505.453 10.1016C506.385 10.1016 507.135 10.3568 507.703 10.8672C508.271 11.3724 508.555 12.1849 508.555 13.3047V19H506.172V13.8984C506.172 13.2734 506.057 12.8021 505.828 12.4844C505.604 12.1667 505.25 12.0078 504.766 12.0078C504.036 12.0078 503.539 12.2552 503.273 12.75C503.008 13.2448 502.875 13.9583 502.875 14.8906V19H500.492V10.2656H502.312L502.633 11.3828H502.766C502.953 11.0807 503.185 10.8359 503.461 10.6484C503.742 10.4609 504.052 10.3229 504.391 10.2344C504.734 10.1458 505.089 10.1016 505.453 10.1016Z" fill="#333333"/>
<path d="M28.0469 125.578C29.5208 125.578 30.5964 125.896 31.2734 126.531C31.9505 127.161 32.2891 128.031 32.2891 129.141C32.2891 129.641 32.2135 130.12 32.0625 130.578C31.9115 131.031 31.6641 131.435 31.3203 131.789C30.9818 132.143 30.5286 132.424 29.9609 132.633C29.3932 132.836 28.6927 132.938 27.8594 132.938H26.8203V137H24.3984V125.578H28.0469ZM27.9219 127.562H26.8203V130.953H27.6172C28.0703 130.953 28.4635 130.893 28.7969 130.773C29.1302 130.654 29.388 130.466 29.5703 130.211C29.7526 129.956 29.8438 129.628 29.8438 129.227C29.8438 128.664 29.6875 128.247 29.375 127.977C29.0625 127.701 28.5781 127.562 27.9219 127.562ZM36.6406 137H34.2578V124.844H36.6406V137ZM42.7266 128.086C43.8984 128.086 44.7969 128.341 45.4219 128.852C46.0469 129.362 46.3594 130.138 46.3594 131.18V137H44.6953L44.2344 135.812H44.1719C43.9219 136.125 43.6667 136.38 43.4062 136.578C43.1458 136.776 42.8464 136.922 42.5078 137.016C42.1693 137.109 41.7578 137.156 41.2734 137.156C40.7578 137.156 40.2943 137.057 39.8828 136.859C39.4766 136.661 39.1562 136.359 38.9219 135.953C38.6875 135.542 38.5703 135.021 38.5703 134.391C38.5703 133.464 38.8958 132.781 39.5469 132.344C40.1979 131.901 41.1745 131.656 42.4766 131.609L43.9922 131.562V131.18C43.9922 130.721 43.8724 130.385 43.6328 130.172C43.3932 129.958 43.0599 129.852 42.6328 129.852C42.2109 129.852 41.7969 129.911 41.3906 130.031C40.9844 130.151 40.5781 130.302 40.1719 130.484L39.3828 128.875C39.8464 128.63 40.3646 128.438 40.9375 128.297C41.5156 128.156 42.112 128.086 42.7266 128.086ZM43.9922 132.953L43.0703 132.984C42.2995 133.005 41.763 133.143 41.4609 133.398C41.1641 133.654 41.0156 133.99 41.0156 134.406C41.0156 134.771 41.1224 135.031 41.3359 135.188C41.5495 135.339 41.8281 135.414 42.1719 135.414C42.6823 135.414 43.112 135.263 43.4609 134.961C43.8151 134.659 43.9922 134.229 43.9922 133.672V132.953ZM52.3672 137.156C51.5026 137.156 50.7656 137 50.1562 136.688C49.5469 136.37 49.0833 135.88 48.7656 135.219C48.4479 134.557 48.2891 133.711 48.2891 132.68C48.2891 131.612 48.4688 130.742 48.8281 130.07C49.1927 129.393 49.6953 128.896 50.3359 128.578C50.9818 128.26 51.7292 128.102 52.5781 128.102C53.1823 128.102 53.7031 128.161 54.1406 128.281C54.5833 128.396 54.9688 128.534 55.2969 128.695L54.5938 130.539C54.2188 130.388 53.8698 130.266 53.5469 130.172C53.224 130.073 52.901 130.023 52.5781 130.023C52.1615 130.023 51.8151 130.122 51.5391 130.32C51.263 130.513 51.0573 130.805 50.9219 131.195C50.7865 131.586 50.7188 132.076 50.7188 132.664C50.7188 133.242 50.7917 133.721 50.9375 134.102C51.0833 134.482 51.2943 134.766 51.5703 134.953C51.8464 135.135 52.1823 135.227 52.5781 135.227C53.0729 135.227 53.513 135.161 53.8984 135.031C54.2839 134.896 54.6589 134.708 55.0234 134.469V136.508C54.6589 136.737 54.276 136.901 53.875 137C53.4792 137.104 52.9766 137.156 52.3672 137.156ZM60.6562 128.102C61.4635 128.102 62.1589 128.258 62.7422 128.57C63.3255 128.878 63.776 129.326 64.0938 129.914C64.4115 130.503 64.5703 131.221 64.5703 132.07V133.227H58.9375C58.9635 133.898 59.1641 134.427 59.5391 134.812C59.9193 135.193 60.4453 135.383 61.1172 135.383C61.6745 135.383 62.1849 135.326 62.6484 135.211C63.112 135.096 63.5885 134.924 64.0781 134.695V136.539C63.6458 136.753 63.1927 136.909 62.7188 137.008C62.25 137.107 61.6797 137.156 61.0078 137.156C60.1328 137.156 59.3568 136.995 58.6797 136.672C58.0078 136.349 57.4792 135.857 57.0938 135.195C56.7135 134.534 56.5234 133.701 56.5234 132.695C56.5234 131.674 56.6953 130.826 57.0391 130.148C57.388 129.466 57.8724 128.956 58.4922 128.617C59.112 128.273 59.8333 128.102 60.6562 128.102ZM60.6719 129.797C60.2083 129.797 59.8229 129.945 59.5156 130.242C59.2135 130.539 59.0391 131.005 58.9922 131.641H62.3359C62.3307 131.286 62.2656 130.971 62.1406 130.695C62.0208 130.419 61.8385 130.201 61.5938 130.039C61.3542 129.878 61.0469 129.797 60.6719 129.797ZM77.8438 137L77.0156 134.281H72.8516L72.0234 137H69.4141L73.4453 125.531H76.4062L80.4531 137H77.8438ZM76.4375 132.25L75.6094 129.594C75.5573 129.417 75.487 129.19 75.3984 128.914C75.3151 128.633 75.2292 128.349 75.1406 128.062C75.0573 127.771 74.9896 127.518 74.9375 127.305C74.8854 127.518 74.8125 127.784 74.7188 128.102C74.6302 128.414 74.5443 128.711 74.4609 128.992C74.3776 129.273 74.3177 129.474 74.2812 129.594L73.4609 132.25H76.4375ZM89.3828 125.578C90.4193 125.578 91.2734 125.703 91.9453 125.953C92.6224 126.203 93.125 126.581 93.4531 127.086C93.7812 127.591 93.9453 128.229 93.9453 129C93.9453 129.521 93.8464 129.977 93.6484 130.367C93.4505 130.758 93.1901 131.089 92.8672 131.359C92.5443 131.63 92.1953 131.852 91.8203 132.023L95.1797 137H92.4922L89.7656 132.617H88.4766V137H86.0547V125.578H89.3828ZM89.2109 127.562H88.4766V130.648H89.2578C90.0599 130.648 90.6328 130.516 90.9766 130.25C91.3255 129.979 91.5 129.583 91.5 129.062C91.5 128.521 91.3125 128.135 90.9375 127.906C90.5677 127.677 89.9922 127.562 89.2109 127.562ZM100.031 128.102C100.839 128.102 101.534 128.258 102.117 128.57C102.701 128.878 103.151 129.326 103.469 129.914C103.786 130.503 103.945 131.221 103.945 132.07V133.227H98.3125C98.3385 133.898 98.5391 134.427 98.9141 134.812C99.2943 135.193 99.8203 135.383 100.492 135.383C101.049 135.383 101.56 135.326 102.023 135.211C102.487 135.096 102.964 134.924 103.453 134.695V136.539C103.021 136.753 102.568 136.909 102.094 137.008C101.625 137.107 101.055 137.156 100.383 137.156C99.5078 137.156 98.7318 136.995 98.0547 136.672C97.3828 136.349 96.8542 135.857 96.4688 135.195C96.0885 134.534 95.8984 133.701 95.8984 132.695C95.8984 131.674 96.0703 130.826 96.4141 130.148C96.763 129.466 97.2474 128.956 97.8672 128.617C98.487 128.273 99.2083 128.102 100.031 128.102ZM100.047 129.797C99.5833 129.797 99.1979 129.945 98.8906 130.242C98.5885 130.539 98.4141 131.005 98.3672 131.641H101.711C101.706 131.286 101.641 130.971 101.516 130.695C101.396 130.419 101.214 130.201 100.969 130.039C100.729 129.878 100.422 129.797 100.047 129.797ZM111.125 140.844V137.18C111.125 136.961 111.133 136.742 111.148 136.523C111.169 136.299 111.195 136.081 111.227 135.867H111.125C110.901 136.227 110.591 136.531 110.195 136.781C109.805 137.031 109.289 137.156 108.648 137.156C107.664 137.156 106.867 136.776 106.258 136.016C105.654 135.25 105.352 134.128 105.352 132.648C105.352 131.654 105.492 130.82 105.773 130.148C106.055 129.471 106.445 128.961 106.945 128.617C107.451 128.273 108.034 128.102 108.695 128.102C109.336 128.102 109.854 128.227 110.25 128.477C110.651 128.721 110.977 129.023 111.227 129.383H111.289L111.5 128.266H113.516V140.844H111.125ZM109.5 135.289C109.938 135.289 110.284 135.203 110.539 135.031C110.799 134.859 110.987 134.602 111.102 134.258C111.216 133.909 111.279 133.474 111.289 132.953V132.664C111.289 131.815 111.159 131.167 110.898 130.719C110.638 130.266 110.159 130.039 109.461 130.039C108.893 130.039 108.471 130.266 108.195 130.719C107.919 131.172 107.781 131.826 107.781 132.68C107.781 133.549 107.922 134.203 108.203 134.641C108.484 135.073 108.917 135.289 109.5 135.289ZM124.023 128.266V137H122.195L121.875 135.883H121.75C121.562 136.18 121.328 136.422 121.047 136.609C120.766 136.797 120.456 136.935 120.117 137.023C119.779 137.112 119.427 137.156 119.062 137.156C118.438 137.156 117.893 137.047 117.43 136.828C116.966 136.604 116.604 136.258 116.344 135.789C116.089 135.32 115.961 134.711 115.961 133.961V128.266H118.344V133.367C118.344 133.992 118.456 134.464 118.68 134.781C118.904 135.099 119.26 135.258 119.75 135.258C120.234 135.258 120.615 135.148 120.891 134.93C121.167 134.706 121.359 134.38 121.469 133.953C121.583 133.521 121.641 132.995 121.641 132.375V128.266H124.023ZM130.125 128.102C130.932 128.102 131.628 128.258 132.211 128.57C132.794 128.878 133.245 129.326 133.562 129.914C133.88 130.503 134.039 131.221 134.039 132.07V133.227H128.406C128.432 133.898 128.633 134.427 129.008 134.812C129.388 135.193 129.914 135.383 130.586 135.383C131.143 135.383 131.654 135.326 132.117 135.211C132.581 135.096 133.057 134.924 133.547 134.695V136.539C133.115 136.753 132.661 136.909 132.188 137.008C131.719 137.107 131.148 137.156 130.477 137.156C129.602 137.156 128.826 136.995 128.148 136.672C127.477 136.349 126.948 135.857 126.562 135.195C126.182 134.534 125.992 133.701 125.992 132.695C125.992 131.674 126.164 130.826 126.508 130.148C126.857 129.466 127.341 128.956 127.961 128.617C128.581 128.273 129.302 128.102 130.125 128.102ZM130.141 129.797C129.677 129.797 129.292 129.945 128.984 130.242C128.682 130.539 128.508 131.005 128.461 131.641H131.805C131.799 131.286 131.734 130.971 131.609 130.695C131.49 130.419 131.307 130.201 131.062 130.039C130.823 129.878 130.516 129.797 130.141 129.797ZM142.07 134.406C142.07 135 141.93 135.503 141.648 135.914C141.372 136.32 140.958 136.63 140.406 136.844C139.854 137.052 139.167 137.156 138.344 137.156C137.734 137.156 137.211 137.117 136.773 137.039C136.341 136.961 135.904 136.831 135.461 136.648V134.68C135.935 134.893 136.443 135.07 136.984 135.211C137.531 135.346 138.01 135.414 138.422 135.414C138.885 135.414 139.216 135.346 139.414 135.211C139.617 135.07 139.719 134.888 139.719 134.664C139.719 134.518 139.677 134.388 139.594 134.273C139.516 134.154 139.344 134.021 139.078 133.875C138.812 133.724 138.396 133.529 137.828 133.289C137.281 133.06 136.831 132.828 136.477 132.594C136.128 132.359 135.867 132.083 135.695 131.766C135.529 131.443 135.445 131.034 135.445 130.539C135.445 129.732 135.758 129.125 136.383 128.719C137.013 128.307 137.854 128.102 138.906 128.102C139.448 128.102 139.964 128.156 140.453 128.266C140.948 128.375 141.456 128.549 141.977 128.789L141.258 130.508C140.826 130.32 140.417 130.167 140.031 130.047C139.651 129.927 139.263 129.867 138.867 129.867C138.518 129.867 138.255 129.914 138.078 130.008C137.901 130.102 137.812 130.245 137.812 130.438C137.812 130.578 137.857 130.703 137.945 130.812C138.039 130.922 138.216 131.044 138.477 131.18C138.742 131.31 139.13 131.479 139.641 131.688C140.135 131.891 140.565 132.104 140.93 132.328C141.294 132.547 141.576 132.82 141.773 133.148C141.971 133.471 142.07 133.891 142.07 134.406ZM147.609 135.258C147.87 135.258 148.122 135.232 148.367 135.18C148.617 135.128 148.865 135.062 149.109 134.984V136.758C148.854 136.872 148.536 136.966 148.156 137.039C147.781 137.117 147.37 137.156 146.922 137.156C146.401 137.156 145.932 137.073 145.516 136.906C145.104 136.734 144.779 136.44 144.539 136.023C144.305 135.602 144.188 135.016 144.188 134.266V130.055H143.047V129.047L144.359 128.25L145.047 126.406H146.57V128.266H149.016V130.055H146.57V134.266C146.57 134.599 146.664 134.849 146.852 135.016C147.044 135.177 147.297 135.258 147.609 135.258ZM165.594 131.273C165.594 132.154 165.484 132.956 165.266 133.68C165.047 134.398 164.714 135.018 164.266 135.539C163.823 136.06 163.26 136.461 162.578 136.742C161.896 137.018 161.089 137.156 160.156 137.156C159.224 137.156 158.417 137.018 157.734 136.742C157.052 136.461 156.487 136.06 156.039 135.539C155.596 135.018 155.266 134.396 155.047 133.672C154.828 132.948 154.719 132.143 154.719 131.258C154.719 130.076 154.911 129.047 155.297 128.172C155.688 127.292 156.286 126.609 157.094 126.125C157.901 125.641 158.927 125.398 160.172 125.398C161.411 125.398 162.43 125.641 163.227 126.125C164.029 126.609 164.622 127.292 165.008 128.172C165.398 129.052 165.594 130.086 165.594 131.273ZM157.258 131.273C157.258 132.07 157.357 132.758 157.555 133.336C157.758 133.909 158.073 134.352 158.5 134.664C158.927 134.971 159.479 135.125 160.156 135.125C160.844 135.125 161.401 134.971 161.828 134.664C162.255 134.352 162.565 133.909 162.758 133.336C162.956 132.758 163.055 132.07 163.055 131.273C163.055 130.076 162.831 129.133 162.383 128.445C161.935 127.758 161.198 127.414 160.172 127.414C159.49 127.414 158.932 127.57 158.5 127.883C158.073 128.19 157.758 128.633 157.555 129.211C157.357 129.784 157.258 130.471 157.258 131.273ZM172.734 128.102C173.667 128.102 174.417 128.357 174.984 128.867C175.552 129.372 175.836 130.185 175.836 131.305V137H173.453V131.898C173.453 131.273 173.339 130.802 173.109 130.484C172.885 130.167 172.531 130.008 172.047 130.008C171.318 130.008 170.82 130.255 170.555 130.75C170.289 131.245 170.156 131.958 170.156 132.891V137H167.773V128.266H169.594L169.914 129.383H170.047C170.234 129.081 170.466 128.836 170.742 128.648C171.023 128.461 171.333 128.323 171.672 128.234C172.016 128.146 172.37 128.102 172.734 128.102ZM6.21094 161H3.78906V151.594H0.6875V149.578H9.3125V151.594H6.21094V161ZM13.2656 148.844V151.32C13.2656 151.753 13.25 152.164 13.2188 152.555C13.1927 152.945 13.1719 153.221 13.1562 153.383H13.2812C13.4688 153.081 13.6901 152.836 13.9453 152.648C14.2057 152.461 14.4922 152.323 14.8047 152.234C15.1172 152.146 15.4531 152.102 15.8125 152.102C16.4427 152.102 16.9922 152.214 17.4609 152.438C17.9297 152.656 18.2943 153.003 18.5547 153.477C18.8151 153.945 18.9453 154.555 18.9453 155.305V161H16.5625V155.898C16.5625 155.273 16.4479 154.802 16.2188 154.484C15.9896 154.167 15.6354 154.008 15.1562 154.008C14.6771 154.008 14.2995 154.12 14.0234 154.344C13.7474 154.562 13.5521 154.888 13.4375 155.32C13.3229 155.747 13.2656 156.271 13.2656 156.891V161H10.8828V148.844H13.2656ZM25 152.102C25.8073 152.102 26.5026 152.258 27.0859 152.57C27.6693 152.878 28.1198 153.326 28.4375 153.914C28.7552 154.503 28.9141 155.221 28.9141 156.07V157.227H23.2812C23.3073 157.898 23.5078 158.427 23.8828 158.812C24.263 159.193 24.7891 159.383 25.4609 159.383C26.0182 159.383 26.5286 159.326 26.9922 159.211C27.4557 159.096 27.9323 158.924 28.4219 158.695V160.539C27.9896 160.753 27.5365 160.909 27.0625 161.008C26.5938 161.107 26.0234 161.156 25.3516 161.156C24.4766 161.156 23.7005 160.995 23.0234 160.672C22.3516 160.349 21.8229 159.857 21.4375 159.195C21.0573 158.534 20.8672 157.701 20.8672 156.695C20.8672 155.674 21.0391 154.826 21.3828 154.148C21.7318 153.466 22.2161 152.956 22.8359 152.617C23.4557 152.273 24.1771 152.102 25 152.102ZM25.0156 153.797C24.5521 153.797 24.1667 153.945 23.8594 154.242C23.5573 154.539 23.3828 155.005 23.3359 155.641H26.6797C26.6745 155.286 26.6094 154.971 26.4844 154.695C26.3646 154.419 26.1823 154.201 25.9375 154.039C25.6979 153.878 25.3906 153.797 25.0156 153.797ZM49.2266 149.578L46.3203 161H43.5625L42.0156 155C41.9844 154.885 41.9427 154.711 41.8906 154.477C41.8385 154.242 41.7839 153.987 41.7266 153.711C41.6693 153.43 41.6172 153.167 41.5703 152.922C41.5286 152.672 41.5 152.474 41.4844 152.328C41.4688 152.474 41.4375 152.669 41.3906 152.914C41.349 153.159 41.2995 153.419 41.2422 153.695C41.1901 153.971 41.138 154.229 41.0859 154.469C41.0339 154.708 40.9922 154.891 40.9609 155.016L39.4219 161H36.6719L33.7578 149.578H36.1406L37.6016 155.812C37.6432 156 37.6901 156.224 37.7422 156.484C37.7995 156.745 37.8542 157.018 37.9062 157.305C37.9635 157.586 38.013 157.859 38.0547 158.125C38.1016 158.385 38.1354 158.612 38.1562 158.805C38.1823 158.607 38.2161 158.378 38.2578 158.117C38.2995 157.852 38.3438 157.583 38.3906 157.312C38.4427 157.036 38.4948 156.781 38.5469 156.547C38.599 156.312 38.6458 156.122 38.6875 155.977L40.3516 149.578H42.6406L44.3047 155.977C44.3411 156.117 44.3828 156.307 44.4297 156.547C44.4818 156.781 44.5339 157.036 44.5859 157.312C44.638 157.589 44.6849 157.859 44.7266 158.125C44.7734 158.385 44.8073 158.612 44.8281 158.805C44.8646 158.544 44.9141 158.229 44.9766 157.859C45.0443 157.484 45.1146 157.112 45.1875 156.742C45.2656 156.372 45.3333 156.062 45.3906 155.812L46.8438 149.578H49.2266ZM54.0781 152.102C54.8854 152.102 55.5807 152.258 56.1641 152.57C56.7474 152.878 57.1979 153.326 57.5156 153.914C57.8333 154.503 57.9922 155.221 57.9922 156.07V157.227H52.3594C52.3854 157.898 52.5859 158.427 52.9609 158.812C53.3411 159.193 53.8672 159.383 54.5391 159.383C55.0964 159.383 55.6068 159.326 56.0703 159.211C56.5339 159.096 57.0104 158.924 57.5 158.695V160.539C57.0677 160.753 56.6146 160.909 56.1406 161.008C55.6719 161.107 55.1016 161.156 54.4297 161.156C53.5547 161.156 52.7786 160.995 52.1016 160.672C51.4297 160.349 50.901 159.857 50.5156 159.195C50.1354 158.534 49.9453 157.701 49.9453 156.695C49.9453 155.674 50.1172 154.826 50.4609 154.148C50.8099 153.466 51.2943 152.956 51.9141 152.617C52.5339 152.273 53.2552 152.102 54.0781 152.102ZM54.0938 153.797C53.6302 153.797 53.2448 153.945 52.9375 154.242C52.6354 154.539 52.4609 155.005 52.4141 155.641H55.7578C55.7526 155.286 55.6875 154.971 55.5625 154.695C55.4427 154.419 55.2604 154.201 55.0156 154.039C54.776 153.878 54.4688 153.797 54.0938 153.797ZM62.3125 148.844V151.672C62.3125 152 62.3021 152.326 62.2812 152.648C62.2656 152.971 62.2448 153.221 62.2188 153.398H62.3125C62.5417 153.039 62.8542 152.734 63.25 152.484C63.6458 152.229 64.1589 152.102 64.7891 152.102C65.7682 152.102 66.5625 152.484 67.1719 153.25C67.7812 154.016 68.0859 155.138 68.0859 156.617C68.0859 157.612 67.9453 158.448 67.6641 159.125C67.3828 159.797 66.9896 160.305 66.4844 160.648C65.9792 160.987 65.3932 161.156 64.7266 161.156C64.0859 161.156 63.5807 161.042 63.2109 160.812C62.8411 160.583 62.5417 160.326 62.3125 160.039H62.1484L61.75 161H59.9297V148.844H62.3125ZM64.0234 154.008C63.6068 154.008 63.276 154.094 63.0312 154.266C62.7865 154.438 62.6068 154.695 62.4922 155.039C62.3828 155.383 62.3229 155.818 62.3125 156.344V156.602C62.3125 157.451 62.4375 158.102 62.6875 158.555C62.9375 159.003 63.3932 159.227 64.0547 159.227C64.5443 159.227 64.9323 159 65.2188 158.547C65.5104 158.094 65.6562 157.44 65.6562 156.586C65.6562 155.732 65.5104 155.089 65.2188 154.656C64.9271 154.224 64.5286 154.008 64.0234 154.008ZM76.1484 158.406C76.1484 159 76.0078 159.503 75.7266 159.914C75.4505 160.32 75.0365 160.63 74.4844 160.844C73.9323 161.052 73.2448 161.156 72.4219 161.156C71.8125 161.156 71.2891 161.117 70.8516 161.039C70.4193 160.961 69.9818 160.831 69.5391 160.648V158.68C70.013 158.893 70.5208 159.07 71.0625 159.211C71.6094 159.346 72.0885 159.414 72.5 159.414C72.9635 159.414 73.2943 159.346 73.4922 159.211C73.6953 159.07 73.7969 158.888 73.7969 158.664C73.7969 158.518 73.7552 158.388 73.6719 158.273C73.5938 158.154 73.4219 158.021 73.1562 157.875C72.8906 157.724 72.474 157.529 71.9062 157.289C71.3594 157.06 70.9089 156.828 70.5547 156.594C70.2057 156.359 69.9453 156.083 69.7734 155.766C69.6068 155.443 69.5234 155.034 69.5234 154.539C69.5234 153.732 69.8359 153.125 70.4609 152.719C71.0911 152.307 71.9323 152.102 72.9844 152.102C73.526 152.102 74.0417 152.156 74.5312 152.266C75.026 152.375 75.5339 152.549 76.0547 152.789L75.3359 154.508C74.9036 154.32 74.4948 154.167 74.1094 154.047C73.7292 153.927 73.3411 153.867 72.9453 153.867C72.5964 153.867 72.3333 153.914 72.1562 154.008C71.9792 154.102 71.8906 154.245 71.8906 154.438C71.8906 154.578 71.9349 154.703 72.0234 154.812C72.1172 154.922 72.2943 155.044 72.5547 155.18C72.8203 155.31 73.2083 155.479 73.7188 155.688C74.2135 155.891 74.6432 156.104 75.0078 156.328C75.3724 156.547 75.6536 156.82 75.8516 157.148C76.0495 157.471 76.1484 157.891 76.1484 158.406ZM80.3906 152.266V161H78.0078V152.266H80.3906ZM79.2031 148.844C79.5573 148.844 79.862 148.927 80.1172 149.094C80.3724 149.255 80.5 149.56 80.5 150.008C80.5 150.451 80.3724 150.758 80.1172 150.93C79.862 151.096 79.5573 151.18 79.2031 151.18C78.8438 151.18 78.5365 151.096 78.2812 150.93C78.0312 150.758 77.9062 150.451 77.9062 150.008C77.9062 149.56 78.0312 149.255 78.2812 149.094C78.5365 148.927 78.8438 148.844 79.2031 148.844ZM86.5781 159.258C86.8385 159.258 87.0911 159.232 87.3359 159.18C87.5859 159.128 87.8333 159.062 88.0781 158.984V160.758C87.8229 160.872 87.5052 160.966 87.125 161.039C86.75 161.117 86.3385 161.156 85.8906 161.156C85.3698 161.156 84.901 161.073 84.4844 160.906C84.0729 160.734 83.7474 160.44 83.5078 160.023C83.2734 159.602 83.1562 159.016 83.1562 158.266V154.055H82.0156V153.047L83.3281 152.25L84.0156 150.406H85.5391V152.266H87.9844V154.055H85.5391V158.266C85.5391 158.599 85.6328 158.849 85.8203 159.016C86.013 159.177 86.2656 159.258 86.5781 159.258ZM93.4531 152.102C94.2604 152.102 94.9557 152.258 95.5391 152.57C96.1224 152.878 96.5729 153.326 96.8906 153.914C97.2083 154.503 97.3672 155.221 97.3672 156.07V157.227H91.7344C91.7604 157.898 91.9609 158.427 92.3359 158.812C92.7161 159.193 93.2422 159.383 93.9141 159.383C94.4714 159.383 94.9818 159.326 95.4453 159.211C95.9089 159.096 96.3854 158.924 96.875 158.695V160.539C96.4427 160.753 95.9896 160.909 95.5156 161.008C95.0469 161.107 94.4766 161.156 93.8047 161.156C92.9297 161.156 92.1536 160.995 91.4766 160.672C90.8047 160.349 90.276 159.857 89.8906 159.195C89.5104 158.534 89.3203 157.701 89.3203 156.695C89.3203 155.674 89.4922 154.826 89.8359 154.148C90.1849 153.466 90.6693 152.956 91.2891 152.617C91.9089 152.273 92.6302 152.102 93.4531 152.102ZM93.4688 153.797C93.0052 153.797 92.6198 153.945 92.3125 154.242C92.0104 154.539 91.8359 155.005 91.7891 155.641H95.1328C95.1276 155.286 95.0625 154.971 94.9375 154.695C94.8177 154.419 94.6354 154.201 94.3906 154.039C94.151 153.878 93.8438 153.797 93.4688 153.797ZM114.016 155.273C114.016 156.154 113.906 156.956 113.688 157.68C113.469 158.398 113.135 159.018 112.688 159.539C112.245 160.06 111.682 160.461 111 160.742C110.318 161.018 109.51 161.156 108.578 161.156C107.646 161.156 106.839 161.018 106.156 160.742C105.474 160.461 104.909 160.06 104.461 159.539C104.018 159.018 103.688 158.396 103.469 157.672C103.25 156.948 103.141 156.143 103.141 155.258C103.141 154.076 103.333 153.047 103.719 152.172C104.109 151.292 104.708 150.609 105.516 150.125C106.323 149.641 107.349 149.398 108.594 149.398C109.833 149.398 110.852 149.641 111.648 150.125C112.451 150.609 113.044 151.292 113.43 152.172C113.82 153.052 114.016 154.086 114.016 155.273ZM105.68 155.273C105.68 156.07 105.779 156.758 105.977 157.336C106.18 157.909 106.495 158.352 106.922 158.664C107.349 158.971 107.901 159.125 108.578 159.125C109.266 159.125 109.823 158.971 110.25 158.664C110.677 158.352 110.987 157.909 111.18 157.336C111.378 156.758 111.477 156.07 111.477 155.273C111.477 154.076 111.253 153.133 110.805 152.445C110.357 151.758 109.62 151.414 108.594 151.414C107.911 151.414 107.354 151.57 106.922 151.883C106.495 152.19 106.18 152.633 105.977 153.211C105.779 153.784 105.68 154.471 105.68 155.273ZM121.07 152.102C121.19 152.102 121.328 152.109 121.484 152.125C121.646 152.135 121.776 152.151 121.875 152.172L121.695 154.406C121.617 154.38 121.505 154.362 121.359 154.352C121.219 154.336 121.096 154.328 120.992 154.328C120.685 154.328 120.385 154.367 120.094 154.445C119.807 154.523 119.549 154.651 119.32 154.828C119.091 155 118.909 155.229 118.773 155.516C118.643 155.797 118.578 156.143 118.578 156.555V161H116.195V152.266H118L118.352 153.734H118.469C118.641 153.438 118.854 153.167 119.109 152.922C119.37 152.672 119.664 152.474 119.992 152.328C120.326 152.177 120.685 152.102 121.07 152.102ZM136.766 149.578L132.883 161H130.242L126.367 149.578H128.812L130.961 156.375C130.997 156.49 131.057 156.706 131.141 157.023C131.224 157.336 131.307 157.669 131.391 158.023C131.479 158.372 131.539 158.661 131.57 158.891C131.602 158.661 131.656 158.372 131.734 158.023C131.818 157.674 131.898 157.344 131.977 157.031C132.06 156.714 132.12 156.495 132.156 156.375L134.32 149.578H136.766ZM140.406 152.266V161H138.023V152.266H140.406ZM139.219 148.844C139.573 148.844 139.878 148.927 140.133 149.094C140.388 149.255 140.516 149.56 140.516 150.008C140.516 150.451 140.388 150.758 140.133 150.93C139.878 151.096 139.573 151.18 139.219 151.18C138.859 151.18 138.552 151.096 138.297 150.93C138.047 150.758 137.922 150.451 137.922 150.008C137.922 149.56 138.047 149.255 138.297 149.094C138.552 148.927 138.859 148.844 139.219 148.844ZM146.492 152.086C147.664 152.086 148.562 152.341 149.188 152.852C149.812 153.362 150.125 154.138 150.125 155.18V161H148.461L148 159.812H147.938C147.688 160.125 147.432 160.38 147.172 160.578C146.911 160.776 146.612 160.922 146.273 161.016C145.935 161.109 145.523 161.156 145.039 161.156C144.523 161.156 144.06 161.057 143.648 160.859C143.242 160.661 142.922 160.359 142.688 159.953C142.453 159.542 142.336 159.021 142.336 158.391C142.336 157.464 142.661 156.781 143.312 156.344C143.964 155.901 144.94 155.656 146.242 155.609L147.758 155.562V155.18C147.758 154.721 147.638 154.385 147.398 154.172C147.159 153.958 146.826 153.852 146.398 153.852C145.977 153.852 145.562 153.911 145.156 154.031C144.75 154.151 144.344 154.302 143.938 154.484L143.148 152.875C143.612 152.63 144.13 152.438 144.703 152.297C145.281 152.156 145.878 152.086 146.492 152.086ZM147.758 156.953L146.836 156.984C146.065 157.005 145.529 157.143 145.227 157.398C144.93 157.654 144.781 157.99 144.781 158.406C144.781 158.771 144.888 159.031 145.102 159.188C145.315 159.339 145.594 159.414 145.938 159.414C146.448 159.414 146.878 159.263 147.227 158.961C147.581 158.659 147.758 158.229 147.758 157.672V156.953ZM163.508 161H156.93V149.578H163.508V151.562H159.352V154.07H163.219V156.055H159.352V159H163.508V161ZM175.969 152.102C176.958 152.102 177.706 152.357 178.211 152.867C178.721 153.372 178.977 154.185 178.977 155.305V161H176.586V155.898C176.586 155.273 176.479 154.802 176.266 154.484C176.052 154.167 175.721 154.008 175.273 154.008C174.643 154.008 174.195 154.234 173.93 154.688C173.664 155.135 173.531 155.779 173.531 156.617V161H171.148V155.898C171.148 155.482 171.102 155.133 171.008 154.852C170.914 154.57 170.771 154.359 170.578 154.219C170.385 154.078 170.138 154.008 169.836 154.008C169.393 154.008 169.044 154.12 168.789 154.344C168.539 154.562 168.359 154.888 168.25 155.32C168.146 155.747 168.094 156.271 168.094 156.891V161H165.711V152.266H167.531L167.852 153.383H167.984C168.161 153.081 168.383 152.836 168.648 152.648C168.919 152.461 169.216 152.323 169.539 152.234C169.862 152.146 170.19 152.102 170.523 152.102C171.164 152.102 171.706 152.206 172.148 152.414C172.596 152.622 172.94 152.945 173.18 153.383H173.391C173.651 152.935 174.018 152.609 174.492 152.406C174.971 152.203 175.464 152.102 175.969 152.102ZM185.008 152.086C186.18 152.086 187.078 152.341 187.703 152.852C188.328 153.362 188.641 154.138 188.641 155.18V161H186.977L186.516 159.812H186.453C186.203 160.125 185.948 160.38 185.688 160.578C185.427 160.776 185.128 160.922 184.789 161.016C184.451 161.109 184.039 161.156 183.555 161.156C183.039 161.156 182.576 161.057 182.164 160.859C181.758 160.661 181.438 160.359 181.203 159.953C180.969 159.542 180.852 159.021 180.852 158.391C180.852 157.464 181.177 156.781 181.828 156.344C182.479 155.901 183.456 155.656 184.758 155.609L186.273 155.562V155.18C186.273 154.721 186.154 154.385 185.914 154.172C185.674 153.958 185.341 153.852 184.914 153.852C184.492 153.852 184.078 153.911 183.672 154.031C183.266 154.151 182.859 154.302 182.453 154.484L181.664 152.875C182.128 152.63 182.646 152.438 183.219 152.297C183.797 152.156 184.393 152.086 185.008 152.086ZM186.273 156.953L185.352 156.984C184.581 157.005 184.044 157.143 183.742 157.398C183.445 157.654 183.297 157.99 183.297 158.406C183.297 158.771 183.404 159.031 183.617 159.188C183.831 159.339 184.109 159.414 184.453 159.414C184.964 159.414 185.393 159.263 185.742 158.961C186.096 158.659 186.273 158.229 186.273 157.672V156.953ZM193.484 152.266V161H191.102V152.266H193.484ZM192.297 148.844C192.651 148.844 192.956 148.927 193.211 149.094C193.466 149.255 193.594 149.56 193.594 150.008C193.594 150.451 193.466 150.758 193.211 150.93C192.956 151.096 192.651 151.18 192.297 151.18C191.938 151.18 191.63 151.096 191.375 150.93C191.125 150.758 191 150.451 191 150.008C191 149.56 191.125 149.255 191.375 149.094C191.63 148.927 191.938 148.844 192.297 148.844ZM198.375 161H195.992V148.844H198.375V161Z" fill="#333333"/>
<circle cx="918" cy="71" r="18.75" fill="#57C5A6" stroke="#ADE3D4" stroke-width="2.5"/>
<circle cx="918" cy="71.0001" r="5.40541" fill="#D5F0E9"/>
<path d="M884 71L874 65.2265V76.7735L884 71ZM684 72L875 72V70L684 70V72Z" fill="#57C5A6"/>
<circle cx="650" cy="71" r="18.75" fill="#ADE3D4" stroke="#57C5A6" stroke-width="2.5"/>
<circle cx="650" cy="71.0001" r="5.40541" fill="#D5F0E9"/>
<path d="M616 72L606 66.2265V77.7735L616 72ZM416 73H418V71H416V73ZM422 73H426V71H422V73ZM430 73H434V71H430V73ZM438 73H442V71H438V73ZM446 73H450V71H446V73ZM454 73H458V71H454V73ZM462 73H466V71H462V73ZM470 73H474V71H470V73ZM478 73H482V71H478V73ZM486 73H490V71H486V73ZM494 73H498V71H494V73ZM502 73H506V71H502V73ZM510 73H514V71H510V73ZM518 73H522V71H518V73ZM526 73H530V71H526V73ZM534 73H538V71H534V73ZM542 73H546V71H542V73ZM550 73H554V71H550V73ZM558 73H562V71H558V73ZM566 73H570V71H566V73ZM574 73H578V71H574V73ZM582 73H586V71H582V73ZM590 73H594V71H590V73ZM598 73H602V71H598V73ZM606 73H610V71H606V73Z" fill="#57C5A6"/>
<circle cx="382" cy="72" r="18.75" fill="#ADE3D4" stroke="#57C5A6" stroke-width="2.5"/>
<circle cx="382" cy="72.0001" r="5.40541" fill="#D5F0E9"/>
<path d="M348 72L338 66.2265V77.7735L348 72ZM148 73H150V71H148V73ZM154 73H158V71H154V73ZM162 73H166V71H162V73ZM170 73H174V71H170V73ZM178 73H182V71H178V73ZM186 73H190V71H186V73ZM194 73H198V71H194V73ZM202 73H206V71H202V73ZM210 73H214V71H210V73ZM218 73H222V71H218V73ZM226 73H230V71H226V73ZM234 73H238V71H234V73ZM242 73H246V71H242V73ZM250 73H254V71H250V73ZM258 73H262V71H258V73ZM266 73H270V71H266V73ZM274 73H278V71H274V73ZM282 73H286V71H282V73ZM290 73H294V71H290V73ZM298 73H302V71H298V73ZM306 73H310V71H306V73ZM314 73H318V71H314V73ZM322 73H326V71H322V73ZM330 73H334V71H330V73ZM338 73H342V71H338V73Z" fill="#57C5A6"/>
<circle cx="114" cy="72" r="18.75" fill="#ADE3D4" stroke="#57C5A6" stroke-width="2.5"/>
<circle cx="114" cy="72.0001" r="5.40541" fill="#D5F0E9"/>
</svg>
