<svg width="155" height="95" viewBox="0 0 155 95" fill="none" xmlns="http://www.w3.org/2000/svg">
<path d="M152.519 0.95166H2.63295C2.05703 0.952305 1.50487 1.18138 1.09764 1.58862C0.690399 1.99585 0.461339 2.548 0.460693 3.12392V91.8761C0.46131 92.452 0.690368 93.0042 1.09761 93.4114C1.50486 93.8187 2.05702 94.0477 2.63295 94.0484H152.519C153.095 94.0477 153.647 93.8186 154.054 93.4114C154.461 93.0042 154.69 92.452 154.691 91.8761V3.12391C154.69 2.548 154.461 1.99587 154.054 1.58864C153.647 1.18141 153.095 0.95233 152.519 0.95166ZM154.07 91.8761C154.07 92.2876 153.907 92.6821 153.616 92.9731C153.325 93.264 152.93 93.4276 152.519 93.4277H2.63295C2.22149 93.4276 1.82692 93.264 1.53597 92.9731C1.24502 92.6821 1.08147 92.2876 1.08133 91.8761V3.12391C1.0815 2.71245 1.24505 2.31789 1.53599 2.02695C1.82694 1.736 2.2215 1.57248 2.63295 1.5723H152.519C152.93 1.57248 153.325 1.736 153.616 2.02695C153.907 2.31789 154.07 2.71245 154.07 3.12391V91.8761Z" fill="#3F3D56"/>
<path d="M153.959 19.5028H0.969727V20.1235H153.959V19.5028Z" fill="#3F3D56"/>
<path d="M45.7804 52.7593H21.8085C20.9673 52.7583 20.1609 52.4237 19.5661 51.8289C18.9713 51.2341 18.6367 50.4277 18.6357 49.5865V29.8449C18.6367 29.0038 18.9713 28.1973 19.5661 27.6025C20.1609 27.0077 20.9673 26.6732 21.8085 26.6722H45.7804C46.6216 26.6731 47.4281 27.0077 48.0229 27.6025C48.6177 28.1973 48.9523 29.0038 48.9532 29.8449V49.5865C48.9523 50.4277 48.6177 51.2342 48.0229 51.829C47.4281 52.4238 46.6216 52.7583 45.7804 52.7593ZM21.8085 27.3772C21.1542 27.378 20.527 27.6382 20.0644 28.1008C19.6018 28.5634 19.3415 29.1907 19.3408 29.8449V49.5865C19.3415 50.2408 19.6018 50.868 20.0644 51.3307C20.527 51.7933 21.1542 52.0535 21.8085 52.0542H45.7804C46.4347 52.0535 47.0619 51.7932 47.5245 51.3306C47.9871 50.868 48.2474 50.2408 48.2481 49.5865V29.8449C48.2474 29.1907 47.9871 28.5635 47.5245 28.1009C47.0619 27.6382 46.4347 27.378 45.7804 27.3772H21.8085Z" fill="#3F3D56"/>
<path d="M20.7414 60C20.1365 60 19.5564 60.2634 19.1287 60.7323C18.701 61.2011 18.4607 61.837 18.4607 62.5C18.4607 63.1631 18.701 63.799 19.1287 64.2678C19.5564 64.7366 20.1365 65 20.7414 65H136.18C136.785 65 137.365 64.7366 137.793 64.2678C138.22 63.799 138.461 63.1631 138.461 62.5C138.461 61.837 138.22 61.2011 137.793 60.7323C137.365 60.2634 136.785 60 136.18 60H20.7414Z" fill="#E6E6E6"/>
<path d="M59.5325 36.1904C58.9248 36.1904 58.342 36.4318 57.9122 36.8616C57.4825 37.2913 57.2411 37.8741 57.2411 38.4819C57.2411 39.0896 57.4825 39.6724 57.9122 40.1022C58.342 40.5319 58.9248 40.7733 59.5325 40.7733H109.239C109.847 40.7733 110.43 40.5319 110.859 40.1022C111.289 39.6724 111.53 39.0896 111.53 38.4819C111.53 37.8741 111.289 37.2913 110.859 36.8616C110.43 36.4318 109.847 36.1904 109.239 36.1904H59.5325Z" fill="#FF6584"/>
<path d="M59.5325 48.1764C58.9248 48.1764 58.342 48.4178 57.9122 48.8476C57.4825 49.2773 57.2411 49.8601 57.2411 50.4679C57.2411 51.0756 57.4825 51.6584 57.9122 52.0881C58.342 52.5179 58.9248 52.7593 59.5325 52.7593H135.326C135.934 52.7593 136.517 52.5179 136.946 52.0881C137.376 51.6584 137.618 51.0756 137.618 50.4679C137.618 49.8601 137.376 49.2773 136.946 48.8476C136.517 48.4178 135.934 48.1764 135.326 48.1764H59.5325Z" fill="#FF6584"/>
<path d="M20.7414 72C20.1365 72 19.5564 72.2634 19.1287 72.7323C18.701 73.2011 18.4607 73.837 18.4607 74.5C18.4607 75.1631 18.701 75.799 19.1287 76.2678C19.5564 76.7366 20.1365 77 20.7414 77H136.18C136.785 77 137.365 76.7366 137.793 76.2678C138.22 75.799 138.461 75.1631 138.461 74.5C138.461 73.837 138.22 73.2011 137.793 72.7323C137.365 72.2634 136.785 72 136.18 72H20.7414Z" fill="#E6E6E6"/>
<path d="M20.4019 84.1343C19.7942 84.1343 19.2113 84.3758 18.7816 84.8055C18.3519 85.2352 18.1105 85.818 18.1105 86.4258C18.1105 87.0335 18.3519 87.6163 18.7816 88.0461C19.2113 88.4758 19.7942 88.7172 20.4019 88.7172H136.384C136.992 88.7172 137.574 88.4758 138.004 88.0461C138.434 87.6163 138.675 87.0335 138.675 86.4258C138.675 85.818 138.434 85.2352 138.004 84.8055C137.574 84.3758 136.992 84.1343 136.384 84.1343H20.4019Z" fill="#E6E6E6"/>
<path d="M33.5109 49.5638C38.9243 49.5638 43.3127 45.1754 43.3127 39.762C43.3127 34.3486 38.9243 29.9602 33.5109 29.9602C28.0975 29.9602 23.7091 34.3486 23.7091 39.762C23.7091 45.1754 28.0975 49.5638 33.5109 49.5638Z" fill="#2F2E41"/>
<path d="M33.7659 50.6005C37.795 50.6005 41.0611 47.3343 41.0611 43.3053C41.0611 39.2762 37.795 36.01 33.7659 36.01C29.7369 36.01 26.4707 39.2762 26.4707 43.3053C26.4707 47.3343 29.7369 50.6005 33.7659 50.6005Z" fill="#FFB6B6"/>
<path d="M26.4883 38.6529C29.3373 40.392 32.5492 41.4503 35.874 41.7455L34.8847 40.56C35.605 40.8264 36.363 40.9769 37.1305 41.006C37.5147 41.0171 37.8962 40.938 38.2444 40.7751C38.5926 40.6121 38.8977 40.3698 39.1353 40.0676C39.3293 39.7538 39.4446 39.3977 39.4712 39.0298C39.4979 38.6618 39.4352 38.2928 39.2884 37.9543C38.9869 37.2791 38.5176 36.6924 37.9252 36.2498C36.8752 35.4192 35.636 34.8613 34.3181 34.6257C33.0002 34.3902 31.6444 34.4844 30.3717 34.8999C29.4987 35.1608 28.7169 35.6623 28.1157 36.347C27.8202 36.6919 27.6149 37.1048 27.5184 37.5486C27.4218 37.9924 27.437 38.4533 27.5625 38.8898" fill="#2F2E41"/>
</svg>
