<svg width="32" height="95" viewBox="0 0 32 95" fill="none" xmlns="http://www.w3.org/2000/svg">
<path d="M152.21 0.95166H2.32399C1.74807 0.952305 1.19592 1.18138 0.788677 1.58862C0.381439 1.99585 0.152379 2.548 0.151733 3.12392V91.8761C0.15235 92.452 0.381408 93.0042 0.788653 93.4114C1.1959 93.8187 1.74806 94.0477 2.32399 94.0484H152.21C152.786 94.0477 153.338 93.8186 153.745 93.4114C154.152 93.0042 154.381 92.452 154.382 91.8761V3.12391C154.381 2.548 154.152 1.99587 153.745 1.58864C153.338 1.18141 152.786 0.95233 152.21 0.95166V0.95166ZM153.761 91.8761C153.761 92.2876 153.598 92.6821 153.307 92.9731C153.016 93.264 152.621 93.4276 152.21 93.4277H2.32399C1.91253 93.4276 1.51796 93.264 1.22701 92.9731C0.936058 92.6821 0.772514 92.2876 0.772365 91.8761V3.12391C0.772543 2.71245 0.936089 2.31789 1.22703 2.02695C1.51798 1.736 1.91254 1.57248 2.32399 1.5723H152.21C152.621 1.57248 153.016 1.736 153.307 2.02695C153.598 2.31789 153.761 2.71245 153.761 3.12391V91.8761Z" fill="#3F3D56"/>
<path d="M153.65 19.5028H0.660767V20.1235H153.65V19.5028Z" fill="#3F3D56"/>
<path d="M45.4715 52.7593H21.4995C20.6584 52.7583 19.8519 52.4237 19.2571 51.8289C18.6623 51.2341 18.3278 50.4277 18.3268 49.5865V29.8449C18.3278 29.0038 18.6623 28.1973 19.2571 27.6025C19.8519 27.0077 20.6584 26.6732 21.4995 26.6722H45.4715C46.3127 26.6731 47.1191 27.0077 47.7139 27.6025C48.3087 28.1973 48.6433 29.0038 48.6442 29.8449V49.5865C48.6433 50.4277 48.3087 51.2342 47.7139 51.829C47.1191 52.4238 46.3127 52.7583 45.4715 52.7593ZM21.4995 27.3772C20.8453 27.378 20.218 27.6382 19.7554 28.1008C19.2928 28.5634 19.0326 29.1907 19.0318 29.8449V49.5865C19.0326 50.2408 19.2928 50.868 19.7554 51.3307C20.218 51.7933 20.8453 52.0535 21.4995 52.0542H45.4715C46.1257 52.0535 46.753 51.7932 47.2156 51.3306C47.6782 50.868 47.9384 50.2408 47.9392 49.5865V29.8449C47.9384 29.1907 47.6782 28.5635 47.2156 28.1009C46.753 27.6382 46.1257 27.378 45.4715 27.3772H21.4995Z" fill="#3F3D56"/>
<path d="M20.4324 60C19.8276 60 19.2475 60.2634 18.8197 60.7323C18.392 61.2011 18.1517 61.837 18.1517 62.5C18.1517 63.1631 18.392 63.799 18.8197 64.2678C19.2475 64.7366 19.8276 65 20.4324 65H135.871C136.476 65 137.056 64.7366 137.484 64.2678C137.911 63.799 138.152 63.1631 138.152 62.5C138.152 61.837 137.911 61.2011 137.484 60.7323C137.056 60.2634 136.476 60 135.871 60H20.4324Z" fill="#E6E6E6"/>
<path d="M20.4324 72C19.8276 72 19.2475 72.2634 18.8197 72.7323C18.392 73.2011 18.1517 73.837 18.1517 74.5C18.1517 75.1631 18.392 75.799 18.8197 76.2678C19.2475 76.7366 19.8276 77 20.4324 77H135.871C136.476 77 137.056 76.7366 137.484 76.2678C137.911 75.799 138.152 75.1631 138.152 74.5C138.152 73.837 137.911 73.2011 137.484 72.7323C137.056 72.2634 136.476 72 135.871 72H20.4324Z" fill="#E6E6E6"/>
<path d="M20.0929 84.1343C19.4852 84.1343 18.9024 84.3758 18.4727 84.8055C18.0429 85.2352 17.8015 85.818 17.8015 86.4258C17.8015 87.0335 18.0429 87.6163 18.4727 88.0461C18.9024 88.4758 19.4852 88.7172 20.0929 88.7172H136.075C136.683 88.7172 137.265 88.4758 137.695 88.0461C138.125 87.6163 138.366 87.0335 138.366 86.4258C138.366 85.818 138.125 85.2352 137.695 84.8055C137.265 84.3758 136.683 84.1343 136.075 84.1343H20.0929Z" fill="#E6E6E6"/>
<path d="M33.2019 49.5638C38.6153 49.5638 43.0037 45.1754 43.0037 39.762C43.0037 34.3486 38.6153 29.9602 33.2019 29.9602C27.7886 29.9602 23.4001 34.3486 23.4001 39.762C23.4001 45.1754 27.7886 49.5638 33.2019 49.5638Z" fill="#2F2E41"/>
<path d="M33.457 50.6005C37.486 50.6005 40.7522 47.3343 40.7522 43.3053C40.7522 39.2762 37.486 36.01 33.457 36.01C29.4279 36.01 26.1617 39.2762 26.1617 43.3053C26.1617 47.3343 29.4279 50.6005 33.457 50.6005Z" fill="#FFB6B6"/>
<path d="M26.1793 38.6529C29.0283 40.392 32.2402 41.4503 35.565 41.7455L34.5757 40.56C35.2961 40.8264 36.0541 40.9769 36.8215 41.006C37.2058 41.0171 37.5873 40.938 37.9354 40.7751C38.2836 40.6121 38.5887 40.3698 38.8263 40.0676C39.0204 39.7538 39.1356 39.3977 39.1623 39.0298C39.189 38.6618 39.1262 38.2928 38.9794 37.9543C38.6779 37.2791 38.2087 36.6924 37.6163 36.2498C36.5663 35.4192 35.3271 34.8613 34.0091 34.6257C32.6912 34.3902 31.3355 34.4844 30.0628 34.8999C29.1898 35.1608 28.4079 35.6623 27.8067 36.347C27.5112 36.6919 27.306 37.1048 27.2094 37.5486C27.1129 37.9924 27.128 38.4533 27.2535 38.8898" fill="#2F2E41"/>
</svg>
