<?xml version="1.0" encoding="UTF-8" standalone="no"?>
<!-- Created with Inkscape (http://www.inkscape.org/) -->

<svg
   width="80.000153mm"
   height="50mm"
   viewBox="0 0 80.000153 50"
   version="1.1"
   id="svg328"
   inkscape:version="1.2 (1:1.2.1+202207142221+cd75a1ee6d)"
   sodipodi:docname="ID CARD TEMPLATE.svg"
   xml:space="preserve"
   xmlns:inkscape="http://www.inkscape.org/namespaces/inkscape"
   xmlns:sodipodi="http://sodipodi.sourceforge.net/DTD/sodipodi-0.dtd"
   xmlns="http://www.w3.org/2000/svg"
   xmlns:svg="http://www.w3.org/2000/svg"><sodipodi:namedview
     id="namedview330"
     pagecolor="#ffffff"
     bordercolor="#000000"
     borderopacity="0.25"
     inkscape:showpageshadow="2"
     inkscape:pageopacity="0.0"
     inkscape:pagecheckerboard="0"
     inkscape:deskcolor="#ffffff"
     inkscape:document-units="mm"
     showgrid="false"
     inkscape:zoom="0.77199293"
     inkscape:cx="860.75917"
     inkscape:cy="925.52661"
     inkscape:window-width="1280"
     inkscape:window-height="736"
     inkscape:window-x="0"
     inkscape:window-y="0"
     inkscape:window-maximized="1"
     inkscape:current-layer="svg328"
     showborder="false"
     showguides="true" /><defs
     id="defs325" /><g
     id="g6032"
     transform="translate(-126.9159,-173.33384)"><path
       id="path3805"
       style="opacity:1;fill:#ffffff;stroke:none;stroke-width:0.79375;stroke-dasharray:none;stroke-opacity:1"
       d="m 126.9159,173.33384 h 80 v 50 h -80 z" /><g
       id="g4607"
       transform="matrix(0,0.99088239,-0.65959617,0,322.16755,-37.121127)"><g
         id="g4605"
         transform="matrix(0.55271741,0,0,0.55141789,193.07764,19.760631)"><path
           style="fill:#11264c;fill-opacity:1;stroke:none;stroke-width:2.30419"
           d="m 40.21263,290.51386 c -1.6586,0.006 -3.18884,0.0591 -4.58301,0.14025 v 33.4721 c 14.51964,-5.69857 46.2247,-12.37508 90.46173,10.55171 v -1.90783 C 92.99268,296.25562 58.74412,290.44563 40.21263,290.51386 Z"
           id="path4599" /><path
           style="fill:#0654a3;fill-opacity:1;stroke:none;stroke-width:2.30419"
           d="m 126.09135,288.35641 c -11.69597,11.29517 -12.95093,12.00757 -22.78104,18.25359 l 22.78104,20.75149 z"
           id="path4601" /><path
           style="fill:#1a3b6b;fill-opacity:1;stroke:none;stroke-width:2.30419"
           d="m 35.62962,281.0391 v 5.61323 c 14.48864,1.01321 44.12643,4.58722 63.73362,17.18281 l 26.72811,-21.42625 v -1.36979 z"
           id="path4603" /></g></g><path
       id="path1405"
       style="fill:#1c396a;fill-opacity:1;stroke-width:0.983221"
       d="m 127.29678,221.37822 v 1.87534 h 79.61927 v -1.87534 z" /><text
       xml:space="preserve"
       style="font-style:normal;font-variant:normal;font-weight:normal;font-stretch:normal;font-size:3.11611px;font-family:Ubuntu;-inkscape-font-specification:Ubuntu;fill:#000000;fill-opacity:0.899485;stroke-width:0.146068"
       x="140.77077"
       y="204.78938"
       id="text1441"
       transform="scale(1.0011777,0.99882369)"><tspan
         sodipodi:role="line"
         id="tspan1439"
         style="font-size:3.11611px;stroke-width:0.146068"
         x="140.77077"
         y="204.78938">12345678</tspan></text><text
       xml:space="preserve"
       style="font-style:normal;font-variant:normal;font-weight:normal;font-stretch:normal;font-size:3.11611px;font-family:Ubuntu;-inkscape-font-specification:Ubuntu;fill:#000000;fill-opacity:0.899485;stroke-width:0.146068"
       x="140.77077"
       y="209.43477"
       id="text1445"
       transform="scale(1.0011777,0.99882369)"><tspan
         sodipodi:role="line"
         id="tspan1443"
         style="font-size:3.11611px;stroke-width:0.146068"
         x="140.77077"
         y="209.43477">10/02/1998</tspan></text><text
       xml:space="preserve"
       style="font-style:normal;font-variant:normal;font-weight:normal;font-stretch:normal;font-size:3.11611px;font-family:Ubuntu;-inkscape-font-specification:Ubuntu;fill:#000000;fill-opacity:0.899485;stroke-width:0.146068"
       x="140.90475"
       y="214.3793"
       id="text1449"
       transform="scale(1.0011777,0.99882369)"><tspan
         sodipodi:role="line"
         id="tspan1447"
         style="font-size:3.11611px;stroke-width:0.146068"
         x="140.90475"
         y="214.3793">08012345678</tspan></text><text
       xml:space="preserve"
       style="font-style:normal;font-variant:normal;font-weight:normal;font-stretch:normal;font-size:3.11611px;font-family:Ubuntu;-inkscape-font-specification:Ubuntu;fill:#000000;fill-opacity:0.899485;stroke-width:0.146068"
       x="140.90164"
       y="219.00287"
       id="text1453"
       transform="scale(1.0011777,0.99882369)"><tspan
         sodipodi:role="line"
         id="tspan1451"
         style="font-size:3.11611px;stroke-width:0.146068"
         x="140.90164"
         y="219.00287">example@email.com</tspan></text><text
       xml:space="preserve"
       style="font-style:normal;font-variant:normal;font-weight:normal;font-stretch:normal;font-size:3.50563px;font-family:Ubuntu;-inkscape-font-specification:Ubuntu;fill:#000000;fill-opacity:0.899485;stroke-width:0.146068"
       x="129.0739"
       y="204.91591"
       id="text1459"
       transform="scale(1.0011777,0.99882369)"><tspan
         sodipodi:role="line"
         id="tspan1457"
         style="font-size:3.50563px;stroke-width:0.146068"
         x="129.0739"
         y="204.91591">ID NO:</tspan></text><text
       xml:space="preserve"
       style="font-style:normal;font-variant:normal;font-weight:normal;font-stretch:normal;font-size:3.11611px;font-family:Ubuntu;-inkscape-font-specification:Ubuntu;fill:#000000;fill-opacity:0.899485;stroke-width:0.146068"
       x="140.77077"
       y="200.37459"
       id="text3799"
       transform="scale(1.0011777,0.99882369)"><tspan
         sodipodi:role="line"
         id="tspan3797"
         style="font-size:3.11611px;stroke-width:0.146068"
         x="140.77077"
         y="200.37459">JOHN DOE</tspan></text><text
       xml:space="preserve"
       style="font-style:normal;font-variant:normal;font-weight:normal;font-stretch:normal;font-size:3.50563px;font-family:Ubuntu;-inkscape-font-specification:Ubuntu;fill:#000000;fill-opacity:0.899485;stroke-width:0.146068"
       x="129.0739"
       y="200.37453"
       id="text3803"
       transform="scale(1.0011777,0.99882369)"><tspan
         sodipodi:role="line"
         id="tspan3801"
         style="font-size:3.50563px;stroke-width:0.146068"
         x="129.0739"
         y="200.37453">NAME:</tspan></text><text
       xml:space="preserve"
       style="font-style:normal;font-variant:normal;font-weight:normal;font-stretch:normal;font-size:3.50563px;font-family:Ubuntu;-inkscape-font-specification:Ubuntu;fill:#000000;fill-opacity:0.899485;stroke-width:0.146068"
       x="129.0739"
       y="209.45731"
       id="text1463"
       transform="scale(1.0011777,0.99882369)"><tspan
         sodipodi:role="line"
         id="tspan1461"
         style="font-size:3.50563px;stroke-width:0.146068"
         x="129.0739"
         y="209.45731">DOB:</tspan></text><text
       xml:space="preserve"
       style="font-style:normal;font-variant:normal;font-weight:normal;font-stretch:normal;font-size:3.50563px;font-family:Ubuntu;-inkscape-font-specification:Ubuntu;fill:#000000;fill-opacity:0.899485;stroke-width:0.146068"
       x="129.0739"
       y="214.23357"
       id="text1467"
       transform="scale(1.0011777,0.99882369)"><tspan
         sodipodi:role="line"
         id="tspan1465"
         style="font-size:3.50563px;stroke-width:0.146068"
         x="129.0739"
         y="214.23357">Phone:</tspan></text><text
       xml:space="preserve"
       style="font-style:normal;font-variant:normal;font-weight:normal;font-stretch:normal;font-size:3.50563px;font-family:Ubuntu;-inkscape-font-specification:Ubuntu;fill:#000000;fill-opacity:0.899485;stroke-width:0.146068"
       x="129.0739"
       y="219.00282"
       id="text1471"
       transform="scale(1.0011777,0.99882369)"><tspan
         sodipodi:role="line"
         id="tspan1469"
         style="font-size:3.50563px;stroke-width:0.146068"
         x="129.0739"
         y="219.00282">E-mail:</tspan></text><text
       xml:space="preserve"
       style="font-size:4.93889px;fill:#000000;fill-opacity:1;stroke-width:0.249312"
       x="146.32443"
       y="178.6877"
       id="text1896"
       transform="scale(1.0011777,0.99882369)"><tspan
         sodipodi:role="line"
         id="tspan1894"
         style="font-style:normal;font-variant:normal;font-weight:bold;font-stretch:normal;font-size:4.93889px;font-family:Ubuntu;-inkscape-font-specification:'Ubuntu Bold';fill:#000000;fill-opacity:1;stroke-width:0.249312"
         x="146.32443"
         y="178.6877">COMPANY NAME</tspan></text><g
       id="g1905"
       transform="matrix(0.81083986,0,0,0.812679,15.44848,25.02613)"><ellipse
         style="fill:#ffffff;fill-opacity:0;stroke:#113f86;stroke-width:0.796241;stroke-dasharray:none;stroke-opacity:1"
         id="ellipse1425"
         cx="151.91605"
         cy="199.9258"
         rx="10.701482"
         ry="10.676322" /><ellipse
         style="fill:#ffffff;fill-opacity:0;stroke:#113f86;stroke-width:0.796241;stroke-dasharray:none;stroke-opacity:1"
         id="ellipse1427"
         cx="151.91605"
         cy="199.9258"
         rx="10.701482"
         ry="10.676322" /><ellipse
         style="fill:#ffffff;fill-opacity:0.983467;stroke:#113f86;stroke-width:0.529167;stroke-dasharray:none;stroke-opacity:1"
         id="ellipse1429"
         cx="151.91605"
         cy="199.9258"
         rx="10.701482"
         ry="10.676322" /><g
         id="g1437"
         transform="matrix(0.94339449,0,0,0.94117643,185.87686,92.423589)"><path
           id="path1431"
           style="fill:#000000;fill-opacity:1;fill-rule:evenodd;stroke:none;stroke-width:0.00631493"
           d="m -35.587492,105.09539 c -0.166649,-10e-4 -0.338912,0.006 -0.517281,0.0227 -2.583247,0.62436 -3.599464,2.28046 -2.737817,4.79299 -0.193936,0.13557 -0.126458,0.64353 -0.06098,1.13843 0.07635,0.57693 0.191082,1.15311 0.515731,1.36219 0.189449,0.50513 0.270055,1.13353 0.540019,1.4919 0.02527,0.2526 0.01246,0.33032 0.03772,0.58291 -0.200435,0.50274 -0.61092,0.99975 -1.089339,1.42059 -1.528213,0.59359 -2.63949,1.13032 -4.167705,1.72392 -0.443756,0.19318 -0.465683,0.85981 -0.77928,1.62006 -0.287062,0.69591 -0.504093,1.54135 -0.698666,2.41742 a 11.343593,11.343593 0 0 0 6.347417,3.67316 h 4.398181 a 11.343593,11.343593 0 0 0 7.28741,-4.91236 c -0.272821,-1.7775 -0.544213,-3.22891 -1.058333,-3.19619 -1.528211,-0.58104 -3.056004,-1.1615 -4.584216,-1.74253 -0.433204,-0.30955 -1.003886,-1.11785 -1.212846,-1.36425 -0.01263,-0.13887 -0.02509,-0.27757 -0.03772,-0.41651 0.145243,-0.36783 0.22405,-0.76888 0.2651,-1.17461 0.451328,-0.12915 0.470141,-0.55435 0.606165,-1.17461 0.133749,-0.61007 0.470709,-1.05164 0.07596,-1.25057 0.539097,-3.05845 -0.629794,-4.99935 -3.129525,-5.01468 z m -0.139009,2.23088 c 0.07606,-2.1e-4 0.149935,5.8e-4 0.220658,0.002 1.621293,0.20878 2.198367,0.65579 2.093412,1.70532 0.05418,0.0606 0.369487,0.52545 0.369487,0.57775 0.254996,0.59809 0.210319,1.296 0.12299,2.00814 0.09946,-0.47577 0.199229,-0.95155 0.298689,-1.4273 0.263207,0.13274 0.235774,0.19518 0.143144,0.48524 -0.06984,0.21886 -0.149384,0.4255 -0.198954,0.65164 -0.04313,0.19658 -0.07612,0.39982 -0.128158,0.59376 -0.03208,0.11966 -0.07794,0.25734 -0.164331,0.34934 -0.08854,0.0944 -0.189236,0.11574 -0.306441,0.14934 -0.04534,0.44843 -0.111885,0.84482 -0.278536,1.26659 l 0.0047,0.0501 c -0.373654,0.26119 -0.728663,0.58759 -1.110527,0.91984 -0.593034,0.51592 -1.490065,0.52502 -1.948718,0.11834 -0.347765,-0.30835 -0.735739,-0.58268 -1.096574,-0.92811 -0.218685,-0.29043 -0.296297,-0.6557 -0.391707,-0.99942 -0.05071,-0.18251 -0.103456,-0.35643 -0.170016,-0.53382 -0.370433,-0.2385 -0.437566,-0.88166 -0.490926,-1.28468 -0.04085,-0.30873 -0.208704,-0.85319 0.09043,-1.06247 0.06568,0.50936 0.131794,1.01872 0.197404,1.52808 -0.03556,-0.60756 -0.04081,-1.20467 0.07545,-1.76165 0.02059,-0.25543 0.168616,-0.6823 0.262516,-0.90641 -0.390856,-1.27735 1.265132,-1.49864 2.406055,-1.50171 z m 2.194698,6.61096 0.02274,0.24857 c 0.055,0.0647 0.109041,0.13039 0.162781,0.19637 -0.447476,0.69805 -1.014565,1.25711 -1.658813,1.72599 0.682263,-0.38514 1.31053,-0.8546 1.765266,-1.5937 0.07104,0.0898 0.140835,0.18031 0.20929,0.27233 0.145181,0.20997 -0.288807,1.38052 -0.511597,2.43189 -0.294086,1.38758 -0.705994,2.38502 -1.059883,3.6003 -0.153767,-1.25751 -0.112747,-1.29885 -0.503329,-2.32544 -0.144927,-0.38078 0.09287,-0.74301 0.278019,-1.0914 0.03246,-0.0611 0.19701,-0.15601 0.408244,-0.21808 0.159388,0.0351 0.269917,0.0966 0.559139,0.30489 -0.165136,-0.26429 -0.40594,-0.53022 -0.798917,-0.71727 -0.339743,0.19204 -0.790168,0.24311 -0.927076,0.25529 -0.08702,0.008 -0.473881,-0.0715 -0.795817,-0.27647 -0.393356,0.0689 -0.657716,0.54683 -0.860929,0.85834 0.253608,-0.26086 0.529211,-0.48396 0.556555,-0.47594 0.171135,0.0505 0.426411,0.0818 0.45527,0.13849 0.149599,0.29377 0.344976,0.63547 0.287321,1.0263 -0.222791,1.50997 -0.416533,1.92762 -0.468189,3.5295 -1.212719,-2.84714 -1.311995,-5.10948 -1.616439,-6.65076 0.109939,-0.15516 0.207886,-0.31822 0.290422,-0.49144 0.454737,0.73903 1.082422,1.20861 1.76475,1.5937 -0.658142,-0.47893 -1.235401,-1.05232 -1.687236,-1.77147 -0.01584,-0.15881 -0.02142,-0.31797 -0.03152,-0.47749 0.355971,0.30079 0.675227,0.59852 1.042313,0.89866 0.436805,0.35711 1.441,0.39237 2.053105,-0.12558 0.359825,-0.30451 0.680335,-0.59675 1.064535,-0.86558 z" /><path
           style="fill:#f9f9f9;fill-opacity:1;fill-rule:evenodd;stroke:none;stroke-width:0.00631493"
           d="m -33.531803,113.93723 0.02274,0.24857 c 0.055,0.0647 0.109041,0.13039 0.162781,0.19637 -0.447476,0.69805 -1.014565,1.25711 -1.658813,1.72599 0.682263,-0.38514 1.31053,-0.8546 1.765266,-1.5937 0.07104,0.0898 0.140835,0.18031 0.20929,0.27233 0.145181,0.20997 -0.288807,1.38052 -0.511597,2.43189 -0.294086,1.38758 -0.705994,2.38502 -1.059883,3.6003 -0.153767,-1.25751 -0.112747,-1.29885 -0.503329,-2.32544 -0.144927,-0.38078 0.09287,-0.74301 0.278019,-1.0914 0.03246,-0.0611 0.19701,-0.15601 0.408244,-0.21808 0.159388,0.0351 0.269917,0.0966 0.559139,0.30489 -0.165136,-0.26429 -0.40594,-0.53022 -0.798917,-0.71727 -0.339743,0.19204 -0.790168,0.24311 -0.927076,0.25529 -0.08702,0.008 -0.473881,-0.0715 -0.795817,-0.27647 -0.393356,0.0689 -0.657716,0.54683 -0.860929,0.85834 0.253608,-0.26086 0.529211,-0.48396 0.556555,-0.47594 0.171135,0.0505 0.426411,0.0818 0.45527,0.13849 0.149599,0.29377 0.344976,0.63547 0.287321,1.0263 -0.222791,1.50997 -0.416533,1.92762 -0.468189,3.5295 -1.212719,-2.84714 -1.311995,-5.10948 -1.616439,-6.65076 0.109939,-0.15516 0.207886,-0.31822 0.290422,-0.49144 0.454737,0.73903 1.082422,1.20861 1.76475,1.5937 -0.658142,-0.47893 -1.235401,-1.05232 -1.687236,-1.77147 -0.01584,-0.15881 -0.02142,-0.31797 -0.03152,-0.47749 0.355971,0.30079 0.675227,0.59852 1.042313,0.89866 0.436805,0.35711 1.441,0.39237 2.053105,-0.12558 0.359825,-0.30451 0.680335,-0.59675 1.064535,-0.86558 z"
           id="path1433" /><path
           style="fill:#ffffff;fill-opacity:1;fill-rule:evenodd;stroke:none;stroke-width:0.00631493"
           d="m -35.726501,107.32627 c 0.07606,-2.1e-4 0.149935,5.8e-4 0.220658,0.002 1.621293,0.20878 2.198367,0.65579 2.093412,1.70532 0.05418,0.0606 0.369487,0.52545 0.369487,0.57775 0.254996,0.59809 0.210319,1.296 0.12299,2.00814 0.09946,-0.47577 0.199229,-0.95155 0.298689,-1.4273 0.263207,0.13274 0.235774,0.19518 0.143144,0.48524 -0.06984,0.21886 -0.149384,0.4255 -0.198954,0.65164 -0.04313,0.19658 -0.07612,0.39982 -0.128158,0.59376 -0.03208,0.11966 -0.07794,0.25734 -0.164331,0.34934 -0.08854,0.0944 -0.189236,0.11574 -0.306441,0.14934 -0.04534,0.44843 -0.111885,0.84482 -0.278536,1.26659 l 0.0047,0.0501 c -0.373654,0.26119 -0.728663,0.58759 -1.110527,0.91984 -0.593034,0.51592 -1.490065,0.52502 -1.948718,0.11834 -0.347765,-0.30835 -0.735739,-0.58268 -1.096574,-0.92811 -0.218685,-0.29043 -0.296297,-0.6557 -0.391707,-0.99942 -0.05071,-0.18251 -0.103456,-0.35643 -0.170016,-0.53382 -0.370433,-0.2385 -0.437566,-0.88166 -0.490926,-1.28468 -0.04085,-0.30873 -0.208704,-0.85319 0.09043,-1.06247 0.06568,0.50936 0.131794,1.01872 0.197404,1.52808 -0.03556,-0.60756 -0.04081,-1.20467 0.07545,-1.76165 0.02059,-0.25543 0.168616,-0.6823 0.262516,-0.90641 -0.390856,-1.27735 1.265132,-1.49864 2.406055,-1.50171 z"
           id="path1435" /></g></g><rect
       style="fill:#ffffff;fill-opacity:1;stroke:#113f86;stroke-width:0.46507;stroke-dasharray:none;stroke-opacity:1"
       id="rect2009"
       width="14.53493"
       height="14.53493"
       x="189.43626"
       y="178.73424" /><text
       xml:space="preserve"
       style="font-size:4.9389px;font-family:Ubuntu;-inkscape-font-specification:Ubuntu;text-align:justify;opacity:1;fill:#1a3b6b;fill-opacity:1;stroke:none;stroke-width:0.264583;stroke-dasharray:none;stroke-opacity:1"
       x="189.96214"
       y="187.7155"
       id="text5785"><tspan
         sodipodi:role="line"
         id="tspan5783"
         style="font-style:normal;font-variant:normal;font-weight:normal;font-stretch:normal;font-family:Ubuntu;-inkscape-font-specification:Ubuntu;fill:#1a3b6b;fill-opacity:1;stroke-width:0.264583"
         x="189.96214"
         y="187.7155">LOGO</tspan></text></g></svg>
