<svg width="104" height="57" viewBox="0 0 104 57" fill="none" xmlns="http://www.w3.org/2000/svg">
<rect width="104" height="57" rx="7.5" fill="white"/>
<path d="M29.896 31.976H33.748V35H25.9V22.256H29.896V31.976ZM42.1155 35.126C40.9155 35.126 39.8115 34.844 38.8035 34.28C37.8075 33.716 37.0155 32.936 36.4275 31.94C35.8395 30.944 35.5455 29.822 35.5455 28.574C35.5455 27.326 35.8395 26.204 36.4275 25.208C37.0155 24.212 37.8075 23.438 38.8035 22.886C39.8115 22.322 40.9155 22.04 42.1155 22.04C43.3155 22.04 44.4135 22.322 45.4095 22.886C46.4055 23.438 47.1915 24.212 47.7675 25.208C48.3555 26.204 48.6495 27.326 48.6495 28.574C48.6495 29.822 48.3555 30.944 47.7675 31.94C47.1915 32.936 46.3995 33.716 45.3915 34.28C44.3955 34.844 43.3035 35.126 42.1155 35.126ZM42.1155 31.4C42.9075 31.4 43.5195 31.148 43.9515 30.644C44.3835 30.128 44.5995 29.438 44.5995 28.574C44.5995 27.698 44.3835 27.008 43.9515 26.504C43.5195 25.988 42.9075 25.73 42.1155 25.73C41.3115 25.73 40.6935 25.988 40.2615 26.504C39.8295 27.008 39.6135 27.698 39.6135 28.574C39.6135 29.438 39.8295 30.128 40.2615 30.644C40.6935 31.148 41.3115 31.4 42.1155 31.4ZM58.803 26.612C58.647 26.36 58.425 26.168 58.137 26.036C57.849 25.892 57.501 25.82 57.093 25.82C56.325 25.82 55.731 26.072 55.311 26.576C54.891 27.068 54.681 27.746 54.681 28.61C54.681 29.606 54.915 30.35 55.383 30.842C55.851 31.334 56.571 31.58 57.543 31.58C58.467 31.58 59.211 31.208 59.775 30.464H56.589V27.638H63.087V31.634C62.535 32.582 61.773 33.398 60.801 34.082C59.829 34.754 58.599 35.09 57.111 35.09C55.791 35.09 54.639 34.82 53.655 34.28C52.683 33.728 51.933 32.96 51.405 31.976C50.889 30.992 50.631 29.87 50.631 28.61C50.631 27.35 50.889 26.228 51.405 25.244C51.933 24.26 52.683 23.498 53.655 22.958C54.627 22.406 55.767 22.13 57.075 22.13C58.743 22.13 60.099 22.532 61.143 23.336C62.199 24.14 62.823 25.232 63.015 26.612H58.803ZM71.6362 35.126C70.4362 35.126 69.3322 34.844 68.3242 34.28C67.3282 33.716 66.5362 32.936 65.9482 31.94C65.3602 30.944 65.0662 29.822 65.0662 28.574C65.0662 27.326 65.3602 26.204 65.9482 25.208C66.5362 24.212 67.3282 23.438 68.3242 22.886C69.3322 22.322 70.4362 22.04 71.6362 22.04C72.8362 22.04 73.9342 22.322 74.9302 22.886C75.9262 23.438 76.7122 24.212 77.2882 25.208C77.8762 26.204 78.1702 27.326 78.1702 28.574C78.1702 29.822 77.8762 30.944 77.2882 31.94C76.7122 32.936 75.9202 33.716 74.9122 34.28C73.9162 34.844 72.8242 35.126 71.6362 35.126ZM71.6362 31.4C72.4282 31.4 73.0402 31.148 73.4722 30.644C73.9042 30.128 74.1202 29.438 74.1202 28.574C74.1202 27.698 73.9042 27.008 73.4722 26.504C73.0402 25.988 72.4282 25.73 71.6362 25.73C70.8322 25.73 70.2142 25.988 69.7822 26.504C69.3502 27.008 69.1342 27.698 69.1342 28.574C69.1342 29.438 69.3502 30.128 69.7822 30.644C70.2142 31.148 70.8322 31.4 71.6362 31.4Z" fill="#5CB85C"/>
<rect x="0.5" y="0.5" width="103" height="56" rx="7" stroke="#1B1C1E" stroke-opacity="0.25"/>
</svg>
