<svg width="400" height="408" viewBox="0 0 400 408" fill="none" xmlns="http://www.w3.org/2000/svg">
<path d="M169.674 0.0362015C115.437 0.995306 31.522 21.6313 7.36901 74.6616C-1.06644 93.1829 -0.496319 120.412 0.64683 174.87C0.982793 190.876 1.53982 214.206 5.44922 243.154C13.5705 303.287 19.0986 344.222 40.0229 368.059C92.4521 427.785 281.84 426.059 362.714 318.532C406.831 259.875 413.617 176.433 373.278 107.472C328.864 31.5499 242.285 -1.24746 169.674 0.0362015Z" fill="#F4F7FA"/>
<path d="M202.968 30.157L163.548 358.033C162.958 362.949 166.344 367.356 171.086 367.826L335.275 385.864C345.334 386.49 350.84 381.348 351.461 376.12L392.847 27.5329C393.464 22.3342 388.529 17.6275 378.428 17.626L212.746 21.1175C207.949 21.2005 203.556 25.2668 202.968 30.157Z" fill="url(#paint0_linear_63_176)"/>
<path d="M195.578 29.5923L155.942 359.108C155.347 364.049 158.744 368.478 163.506 368.952L333.723 385.912C339.059 386.443 343.951 382.581 344.574 377.327L386.193 26.9391C386.814 21.7142 382.895 17.514 377.499 17.6057L205.395 20.5121C200.58 20.5907 196.169 24.6774 195.578 29.5923Z" fill="#1F335B"/>
<path d="M198.808 47.7687L162.071 353.295C161.515 357.912 164.697 362.042 169.153 362.476L329.236 378.049C334.197 378.532 338.744 374.925 339.326 370.034L377.787 46.3555C378.366 41.4901 374.727 37.5533 369.715 37.6071L207.988 39.3303C203.486 39.3783 199.36 43.1755 198.808 47.7687Z" fill="#5CB85C"/>
<path d="M284.654 29.3667C284.444 31.1205 285.702 32.5249 287.465 32.5031C289.231 32.4812 290.833 31.0375 291.043 29.2808C291.254 27.5227 289.99 26.1197 288.224 26.1445C286.461 26.1692 284.863 27.6115 284.654 29.3667Z" fill="url(#paint1_linear_63_176)"/>
<path d="M226.485 252.857C259.259 192.224 308.215 174.074 322.955 111.583C330.922 77.8051 325.494 45.475 316.351 18.6346L377.499 17.6027C382.893 17.511 386.813 21.7113 386.193 26.9362L344.574 377.325C343.951 382.579 339.059 386.443 333.723 385.911L199.915 372.579C198.926 318.251 211.876 279.885 226.485 252.857Z" fill="white"/>
<path d="M347.207 67.4297L348.007 71.7508L331.539 71.7901L188.629 72.1292C184.954 72.1379 181.571 75.1782 181.068 78.9215L146.954 307.081C146.446 310.858 152.32 316.622 155.975 316.903L219.376 321.779V321.702L314.214 328.983C314.216 328.983 314.217 328.983 314.22 328.983L314.45 329.079C318.5 329.392 322.215 326.451 322.74 322.463C322.74 322.461 322.74 322.48 322.741 322.479L354.69 78.8793C355.206 74.9264 351.279 67.4195 347.207 67.4297Z" fill="#FFBF30"/>
<path d="M319.505 317.715C318.982 321.706 315.269 324.688 311.218 324.377L152.581 312.188C148.929 311.907 146.385 308.618 146.893 304.841L177.905 74.2555C178.408 70.5136 181.788 67.4719 185.462 67.4617L344.993 67.0222C349.064 67.0105 351.953 70.2051 351.433 74.1565L319.505 317.715Z" fill="white"/>
<path opacity="0.4" d="M351.438 74.1565L319.507 317.715C318.983 321.705 315.033 324.669 310.985 324.359L215.707 317.039C211.181 312.402 207.453 306.836 204.793 300.159C203.487 296.884 202.53 293.351 201.896 289.635C200.128 279.351 200.813 267.661 203.393 256.186C205.376 247.353 208.486 238.631 212.468 230.763C215.652 224.471 219.397 218.719 223.58 213.886C226.59 210.408 229.848 207.027 233.283 203.711C237.425 199.711 241.828 195.804 246.368 191.936C256.95 182.914 268.282 174.093 278.772 164.778C302.979 143.289 322.616 119.278 317.892 85.0196C317.741 83.9411 316.266 75.6774 314.381 67.111L344.763 67.028C348.83 67.012 351.955 70.2066 351.438 74.1565Z" fill="white"/>
<path d="M293.687 390.925C293.73 390.932 293.773 390.938 293.816 390.945C300.835 392.067 309.631 391.283 315.315 386.608C318.31 384.145 320.338 380.897 320.961 377.049C321.33 374.767 321.531 372.36 321.175 370.064C320.801 367.662 319.873 365.34 318.677 363.231C318.01 362.054 317.248 360.917 316.441 359.833C314.125 356.726 308.657 352.358 311.193 347.953C312.726 345.289 316.26 343.649 318.595 341.782C323.583 337.79 327.167 332.034 327.218 325.46C327.257 320.296 324.022 315.184 320.372 311.712C305.518 297.584 316.461 273.287 295.423 275.195C274.386 277.103 269.82 298.113 277.7 317.73C280.338 324.297 283.548 331.01 285.34 337.874C286.751 343.278 284.757 347.014 280.36 350.207C277.994 351.924 274.537 353.096 272.482 355.12C267.892 359.641 264.214 365.978 265.309 372.611C266.395 379.19 272 384.023 277.907 386.522C283.012 388.683 288.224 390.05 293.687 390.925Z" fill="#E1E9FE"/>
<g opacity="0.8">
<path d="M296.165 385.281C296.214 385.281 296.264 385.272 296.313 385.254C296.537 385.173 296.654 384.924 296.571 384.7C296.482 384.457 287.764 360.101 295.397 340.581C303.155 320.743 294.476 299.505 294.389 299.293C294.298 299.073 294.045 298.968 293.823 299.06C293.602 299.152 293.499 299.405 293.591 299.626C293.678 299.836 302.22 320.759 294.591 340.265C286.838 360.092 295.668 384.749 295.758 384.995C295.823 385.171 295.988 385.281 296.165 385.281Z" fill="#E1E9FE"/>
</g>
<path d="M289.251 354.342C291.012 351.552 293.028 348.928 295.131 346.554C302.24 338.533 307.23 330.019 310.423 319.746C312.937 311.654 312.883 302.402 314.444 294.046C315.575 287.992 317.623 282.132 319.752 276.369C324.284 264.096 331.088 249.856 342.508 242.486C347.795 239.073 355.635 238.737 361.466 241.182C369.02 244.349 375.698 250.52 376.184 259.099C376.85 270.898 366.552 284.125 375.069 294.973C388.11 311.587 382.013 330.044 364.085 339.078C358.243 342.022 351.396 344.751 346.513 349.271C341.616 353.806 344.535 361.543 345.079 367.288C345.59 372.678 346.153 378.941 342.72 383.549C336.929 391.323 322.945 394.713 313.853 395.48C305.057 396.224 295.063 395.252 288.902 388.205C279.617 377.585 282.648 364.8 289.251 354.342Z" fill="#91B3FA"/>
<g opacity="0.8">
<path d="M303.566 388.165C303.741 388.165 303.905 388.059 303.971 387.886C304.256 387.13 332.698 312.019 348.927 281.75C349.041 281.539 348.961 281.277 348.751 281.163C348.54 281.05 348.279 281.13 348.165 281.339C331.91 311.658 303.447 386.822 303.161 387.579C303.076 387.803 303.188 388.052 303.412 388.136C303.463 388.156 303.516 388.165 303.566 388.165Z" fill="white"/>
</g>
<path d="M315.859 398.79C313.967 398.522 312.079 398.21 310.2 397.909C304.948 397.066 298.443 395.429 296.792 389.565C296.322 387.894 297.132 384.914 297.327 383.178C297.525 381.409 297.778 379.642 298.188 377.909C298.757 375.515 299.666 373.263 300.847 371.109C302.892 367.376 305.23 364.567 309.583 363.722C312.757 363.105 316.274 362.962 319.499 363.067C337.084 363.643 339.246 357.298 348.903 343.739C358.56 330.181 422.124 352.105 383.783 376.192C383.783 376.192 378.018 379.942 356.975 377.49C353.125 377.042 348.257 376.743 344.995 379.235C339.24 383.629 345.027 392.94 339.215 396.595C335.826 398.726 330.381 399.351 326.488 399.501C322.929 399.64 319.383 399.289 315.859 398.79Z" fill="#BDD0FB"/>
<g opacity="0.8">
<path d="M304.122 391.53C304.256 391.53 304.388 391.467 304.472 391.351C304.583 391.198 315.715 376.055 331.508 372.48C337.685 371.082 343.025 367.953 348.188 364.927C356.896 359.824 365.119 355.005 377.257 357.481C377.491 357.529 377.72 357.378 377.768 357.143C377.816 356.909 377.665 356.681 377.43 356.633C364.968 354.09 356.215 359.219 347.752 364.179C342.646 367.171 337.365 370.267 331.318 371.635C315.202 375.282 303.885 390.687 303.773 390.842C303.633 391.035 303.675 391.306 303.869 391.446C303.946 391.504 304.035 391.53 304.122 391.53Z" fill="white"/>
</g>
<path d="M314.793 113.66C316.092 113.682 317.364 112.694 317.518 111.455L321.326 80.8674C321.482 79.6215 320.548 78.6129 319.243 78.6129H293.588C292.315 78.6129 291.165 79.6084 291.015 80.8368C290.865 82.0637 291.678 83.0621 292.949 83.0635L316.138 83.113L312.63 111.386C312.476 112.621 313.496 113.64 314.793 113.66Z" fill="#BCCBE4"/>
<path d="M278.445 202.49L303.664 203.97C304.947 204.046 306.11 203.118 306.262 201.895L310.014 171.745C310.167 170.518 309.151 169.479 307.863 169.424C306.576 169.368 305.316 170.319 305.165 171.543L301.706 199.421L278.884 198.123C277.633 198.051 276.547 198.971 276.4 200.175C276.253 201.381 277.194 202.418 278.445 202.49Z" fill="#BCCBE4"/>
<path d="M198.371 111.76C199.531 111.778 200.482 110.844 200.616 109.673L203.702 82.8758L225.165 82.9209C226.357 82.9238 227.489 81.9603 227.629 80.7698C227.768 79.5793 226.964 78.6129 225.77 78.6129H202.284C201.119 78.6129 200.066 79.5662 199.931 80.7407L196.615 109.608C196.481 110.777 197.21 111.741 198.371 111.76Z" fill="#BCCBE4"/>
<path d="M188.642 197.217L211.748 198.574C212.922 198.642 213.987 197.752 214.123 196.581C214.26 195.411 213.318 194.411 212.142 194.344L191.001 193.154L194.047 166.712C194.181 165.551 193.455 164.569 192.302 164.519C191.15 164.47 190.21 165.369 190.078 166.529L186.807 195.007C186.676 196.161 187.496 197.15 188.642 197.217Z" fill="#BCCBE4"/>
<path d="M258.327 268.85C258.574 266.973 257.247 265.243 255.362 265.135L211.943 262.64C210.146 262.537 208.485 264.052 208.24 265.881L206.449 279.396C206.204 281.227 207.452 282.979 209.248 283.102L252.646 286.072C254.531 286.202 256.266 284.608 256.514 282.729L258.327 268.85Z" fill="#5CB85C"/>
<path d="M76.4988 167.866L128.684 186.961L115.46 205.352L79.1269 178.991L76.4988 167.866Z" fill="white"/>
<path d="M114.778 204.695L118.753 189.865C118.912 189.272 119.361 188.802 119.946 188.616L126.892 186.41C126.899 186.407 126.902 186.407 126.918 186.401L126.972 186.383C126.992 186.378 127.013 186.378 127.032 186.373C127.046 186.37 127.062 186.369 127.078 186.366C127.093 186.365 127.107 186.36 127.123 186.36C127.48 186.305 128.15 186.306 128.684 186.961C128.287 187.248 127.928 187.233 127.635 187.108L122.667 203.107L115.459 205.352C115.271 205.41 115.066 205.362 114.925 205.225C114.784 205.088 114.727 204.886 114.778 204.695Z" fill="url(#paint2_linear_63_176)"/>
<path d="M115.965 204.692L119.879 190.332C120.039 189.747 120.481 189.283 121.057 189.095L128.175 186.779C128.332 186.728 128.505 186.769 128.624 186.885C128.742 187.002 128.786 187.175 128.736 187.334L124.037 202.499C123.919 202.88 123.621 203.179 123.242 203.296L116.646 205.35C116.458 205.408 116.253 205.36 116.111 205.223C115.968 205.085 115.913 204.883 115.965 204.692Z" fill="url(#paint3_linear_63_176)"/>
<path d="M135.418 199.232C138.363 201.827 132.974 221.279 117.679 227.078C105.619 231.649 91.2262 226.58 84.3222 216.545C80.3415 210.76 76.7361 200.428 81.1574 195.404C81.3582 195.175 83.8568 192.423 87.4186 192.62C95.665 193.072 96.1987 208.588 105.041 210.488C107.12 210.934 107.867 210.243 125.23 202.666C133.606 199.01 134.714 198.612 135.418 199.232Z" fill="url(#paint4_linear_63_176)"/>
<path d="M112.901 206.971C112.901 206.971 112.163 204.091 113.933 202.762C115.703 201.434 116.442 197.963 116.737 199.217C117.033 200.473 116.737 201.95 116.737 201.95C116.737 201.95 123.084 196.411 123.01 198.332C122.936 200.252 118.36 206.677 115.408 207.933C112.458 209.188 112.947 209.38 112.901 206.971Z" fill="#22AAB7"/>
<path d="M134.623 199.438C134.623 199.438 134.722 195.352 136.837 194.416C138.953 193.48 141.363 188.754 141.216 191.166C141.069 193.579 138.904 194.711 138.904 194.711C138.904 194.711 142.397 195.97 140.871 197.926C139.346 199.882 137.624 200.275 135.852 201.162C135.852 201.162 135.372 202.65 134.155 202.429C132.938 202.208 133.983 200.103 134.623 199.438Z" fill="#22AAB7"/>
<path d="M60.409 250.179C48.6314 255.825 37.4501 254.142 29.6269 252.963C20.7857 251.632 12.2717 250.351 8.931 243.739C5.62518 237.196 8.57904 227.794 13.8003 222.681C19.9349 216.673 26.055 219.664 30.3221 213.805C34.694 207.801 29.5324 202.93 33.452 196.228C38.3867 187.792 48.9863 191.37 54.1479 182.826C58.3831 175.817 53.1924 170.092 57.4523 165.597C63.3585 159.364 80.5887 162.697 83.3491 170.041C84.4268 172.911 82.7921 175.053 81.5849 179.086C77.7439 191.917 85.602 199.198 86.3219 210.847C87.2963 226.583 74.9267 243.219 60.409 250.179Z" fill="#1F335B"/>
<path d="M52.4244 384.075C52.4244 384.075 64.2122 385.57 64.6617 388.251C65.1852 391.363 51.5547 388.629 51.5547 388.629C51.5547 388.629 49.4677 387.944 52.4244 384.075Z" fill="url(#paint5_linear_63_176)"/>
<path d="M53.1749 377.698L52.887 384.282C52.887 384.282 54.3283 386.11 55.979 384.787L57.2952 377.697H53.1749V377.698Z" fill="#22AAB7"/>
<path d="M71.628 387.264C71.628 387.264 83.4159 388.759 83.8653 391.44C84.3888 394.551 70.7583 391.818 70.7583 391.818C70.7583 391.818 68.6713 391.133 71.628 387.264Z" fill="url(#paint6_linear_63_176)"/>
<path d="M72.3785 380.887L72.0906 387.471C72.0906 387.471 73.5319 389.299 75.1826 387.976L76.4988 380.885H72.3785V380.887Z" fill="#22AAB7"/>
<path d="M88.2766 272.346C87.657 281.872 86.1314 295.583 82.0155 311.738C80.5349 317.549 79.0471 322.393 75.6962 332.46C71.6951 344.48 66.0521 360.901 58.6987 380.732C56.5666 381.059 54.433 381.386 52.3009 381.712C47.8868 365.609 49.155 352.949 53.6884 342.883C56.3732 336.921 57.9526 336.867 60.716 330.21C63.6524 323.135 64.8522 316.01 64.1105 291.949C63.8996 285.136 63.5069 276.079 62.7128 265.366C71.2341 267.692 79.7553 270.019 88.2766 272.346Z" fill="#202D48"/>
<path opacity="0.3" d="M88.2764 272.346C87.6569 281.872 86.1312 295.583 82.0153 311.738C80.5347 317.549 79.0469 322.393 75.696 332.46C71.695 344.48 66.052 360.901 58.6986 380.732C56.5664 381.059 54.4328 381.386 52.3007 381.712C48.5295 366.682 51.2914 358.791 54.7223 354.333C56.8413 351.579 59.5043 349.763 61.4474 345.024C63.7337 339.449 62.1149 336.925 63.3017 330.398C64.903 321.598 68.7033 321.467 70.0457 314.586C71.6281 306.471 67.1398 302.565 64.1103 291.949C62.4247 286.042 60.9427 277.19 62.7127 265.366C71.2339 267.692 79.7552 270.019 88.2764 272.346Z" fill="#202D48"/>
<path d="M73.5042 270.837C78.8665 277.597 93.9369 298.401 94.3732 328.68C94.7804 356.922 82.2218 377.037 77.1867 384.272C75.0895 384.08 72.9923 383.889 70.8936 383.699C70.3642 377.72 70.0951 368.74 71.9364 358.101C74.6808 342.255 79.0251 340.543 78.3706 331.507C77.5518 320.172 70.3904 318.353 59.2396 297.765C53.2315 286.67 46.0541 273.418 50.7183 268.511C51.6055 267.58 55.9338 263.773 73.5042 270.837Z" fill="#1F335B"/>
<path d="M78.9581 187.894C86.5122 189.269 91.0397 194.454 92.2861 195.925C93.8365 197.753 98.4222 203.719 98.5109 218.978C98.5953 233.608 94.4212 235.301 93.1559 249.181C91.2899 269.651 99.1581 279.259 93.6722 283.874C89.0021 287.803 83.3242 280.824 67.5892 281.579C54.603 282.204 52.1014 287.263 40.9375 285.996C39.2316 285.803 24.3255 283.96 22.0247 276.155C20.4263 270.734 26.3093 267.177 34.3724 254.052C42.0923 241.488 45.8883 229.793 47.7746 223.984C53.4642 206.459 51.1037 201.668 57.5336 195.26C58.3378 194.462 67.3347 185.778 78.9581 187.894Z" fill="#FFBF30"/>
<path d="M71.3271 173.992C71.3271 173.992 72.8659 184.686 67.0003 190.428C66.5844 190.836 66.7778 191.538 67.3479 191.658C70.072 192.231 76.4073 193.154 82.5536 191.089C83.0888 190.91 83.208 190.201 82.7688 189.847C81.4846 188.815 79.3219 186.843 78.1686 184.474C76.4611 180.964 76.1557 174.973 76.1557 174.973L71.3271 173.992Z" fill="#189BA8"/>
<g opacity="0.3">
<path d="M34.3741 254.053C42.0939 241.489 45.8899 229.795 47.7762 223.985C53.4658 206.461 51.1053 201.669 57.5352 195.261C57.9468 194.851 60.5254 192.361 64.509 190.322C63.4531 193.762 62.8219 197.81 63.4167 202.19C65.4456 217.129 79.8571 222.323 78.026 231.603C76.352 240.085 63.5214 239.732 61.6787 248.832C59.7807 258.197 72.2012 264.347 69.6793 270.935C67.2447 277.292 54.7573 273.952 42.3746 281.55C40.4897 282.707 38.7867 284.008 37.2465 285.406C32.1794 284.394 23.7148 281.879 22.0278 276.155C20.4265 270.734 26.3095 267.177 34.3741 254.053Z" fill="url(#paint7_linear_63_176)"/>
</g>
<path d="M71.1467 177.813C71.1467 177.813 73.7951 181.451 77.9489 179.935C81.6677 178.577 79.4483 168.964 76.4988 167.868C75.5142 167.503 73.7079 167.664 72.4993 168.418C71.6499 168.948 69.3811 171.768 70.6813 174.93C69.7418 174.657 68.9142 174.905 68.7077 175.371C68.4444 175.961 69.24 176.765 69.4203 176.948C70.0457 177.578 70.7991 177.754 71.1467 177.813Z" fill="#22AAB7"/>
<path d="M117.268 207.168C115.869 206.64 114.469 206.113 113.069 205.584C112.246 207.084 106.749 216.736 96.4603 218.201C86.7595 219.584 77.6493 212.997 73.417 206.541C69.4029 200.418 70.2188 195.085 66.4607 193.924C62.6792 192.755 57.9932 196.958 55.7651 199.841C50.4958 206.659 50.682 216.827 53.9384 224.119C59.2338 235.975 73.4606 242.044 85.5888 240.808C104.378 238.894 113.082 219.964 114.55 216.547C116.14 212.845 116.886 209.529 117.268 207.168Z" fill="#FECD5F"/>
<path d="M50.0232 161.684C49.4807 161.693 48.9993 161.259 48.9993 160.715V147.31C48.9993 146.766 49.4399 146.325 49.9824 146.325H60.6635C61.1929 146.325 61.6219 146.76 61.6219 147.297C61.6219 147.834 61.2321 148.27 60.7027 148.271L51.0427 148.293V160.684C51.0456 161.227 50.5656 161.675 50.0232 161.684Z" fill="#BCCBE4"/>
<path d="M60.6649 200.996L49.9839 201.656C49.4414 201.69 49.0007 201.277 49.0007 200.732V187.328C49.0007 186.784 49.4807 186.322 50.0246 186.299C50.5671 186.274 51.0456 186.696 51.0456 187.239V199.63L60.7056 199.053C61.235 199.021 61.6437 199.431 61.6437 199.967C61.6437 200.502 61.1958 200.964 60.6649 200.996Z" fill="#BCCBE4"/>
<path d="M98.7219 160.849C98.2361 160.857 97.8842 160.447 97.8842 159.932V148.19L88.9426 148.208C88.4452 148.21 88.022 147.788 88.022 147.268C88.022 146.747 88.4045 146.325 88.9004 146.325H98.6783C99.164 146.325 99.5567 146.741 99.5567 147.255V159.904C99.5582 160.418 99.2077 160.841 98.7219 160.849Z" fill="#BCCBE4"/>
<path d="M98.6798 198.647L88.902 199.251C88.4046 199.281 88.0017 198.884 88.0017 198.363C88.0017 197.842 88.4467 197.396 88.9441 197.367L97.8857 196.838V185.095C97.8857 184.58 98.2377 184.145 98.7235 184.123C99.2092 184.101 99.5583 184.5 99.5583 185.014V197.663C99.5583 198.177 99.1656 198.616 98.6798 198.647Z" fill="#BCCBE4"/>
<path d="M246.966 190.774C219.205 190.774 198.794 167.52 201.418 139.463C203.987 111.972 227.807 90.0115 254.562 90.0115C281.317 90.0115 301.826 111.972 300.252 139.463C298.645 167.52 274.727 190.774 246.966 190.774Z" fill="#AABBCC"/>
<path d="M298.313 139.463C296.749 166.452 273.816 188.725 247.12 188.725C220.425 188.725 200.851 166.452 203.355 139.463C205.81 112.998 228.653 91.9167 254.419 91.9167C280.185 91.9167 299.848 112.998 298.313 139.463Z" fill="#EAEDF3"/>
<path d="M248.279 105.04C239.238 104.778 230.241 109.489 225.853 116.067C220.536 124.039 226.388 128.038 222.237 141.129C218.379 153.301 211.616 155.391 211.988 163.454C212.398 172.337 220.959 178.003 224.35 180.246C239.668 190.381 264.935 189.956 278.579 176.891C279.712 175.806 289.042 166.872 287.18 158.706C285.525 151.438 276.508 151.388 275.138 143.876C273.964 137.437 280.231 135.365 280.248 126.1C280.251 124.295 280.269 115.782 273.762 111.866C269.438 109.264 264.439 110.009 262.599 110.373C260.541 108.741 255.501 105.25 248.279 105.04Z" fill="#1F335B"/>
<path d="M195.906 172.515C195.906 172.515 244.895 146.495 300.783 172.431C300.783 172.431 292.084 195.046 247.558 196.603C201.471 198.214 195.906 172.515 195.906 172.515Z" fill="url(#paint8_linear_63_176)"/>
<path d="M243.689 138.737L240.986 151.028C240.058 155.247 236.717 158.785 232.345 160.157L217.695 164.756C217.695 164.756 244.035 177.382 279.435 164.762L264.113 159.536C259.781 157.936 257.042 153.925 257.18 149.383L257.497 138.898L243.689 138.737Z" fill="#189BA8"/>
<path d="M265.485 128.23C264.762 138.513 257.394 149.595 249.225 149.533C241.006 149.469 235.219 138.16 236.063 127.766C236.9 117.45 243.956 111.984 252.054 112.16C260.104 112.334 266.203 118.025 265.485 128.23Z" fill="#22AAB7"/>
<path d="M258.012 118.866C253.614 118.996 246.896 119.868 241.931 124.352C233.555 131.915 236.257 144.215 232.725 144.911C229.576 145.532 225.521 136.731 226.407 127.191C227.144 119.253 230.799 110.012 238.448 107.85C242.933 106.583 244.046 108.831 258.063 110.447C266.232 111.388 262.756 114.793 264.518 116.126C272.352 122.056 270.001 141.195 265.511 141.393C263.38 141.487 260.81 136.421 258.012 118.866Z" fill="#1F335B"/>
<path d="M195.45 134.83C195.586 134.69 195.614 134.478 195.525 134.305L192.976 129.375C194.29 127.14 195.257 124.685 195.802 122.075L200.999 120.145C201.182 120.079 201.3 119.901 201.295 119.708L201.135 113.056C201.131 112.863 201.004 112.69 200.816 112.633L195.534 110.953C194.863 108.37 193.783 105.962 192.365 103.793L194.675 98.7508C194.755 98.5724 194.717 98.3658 194.577 98.2297L189.76 93.6381C189.619 93.502 189.408 93.4738 189.234 93.563L184.304 96.1123C182.07 94.7977 179.614 93.8306 177.004 93.286L175.074 88.0889C175.009 87.9058 174.83 87.7884 174.638 87.7931L167.985 87.9527C167.793 87.9574 167.619 88.0842 167.563 88.272L165.882 93.5536C163.3 94.225 160.891 95.3048 158.722 96.7226L153.68 94.4128C153.502 94.333 153.295 94.3705 153.159 94.5114L148.567 99.3283C148.431 99.4691 148.403 99.6804 148.492 99.8541L151.042 104.784C149.727 107.018 148.76 109.474 148.215 112.084L143.018 114.014C142.835 114.079 142.718 114.258 142.722 114.45L142.882 121.103C142.887 121.295 143.013 121.469 143.201 121.525L148.483 123.206C149.154 125.788 150.234 128.197 151.652 130.366L149.342 135.408C149.262 135.586 149.3 135.793 149.441 135.929L154.257 140.521C154.398 140.657 154.61 140.685 154.783 140.596L159.713 138.046C161.948 139.361 164.403 140.328 167.013 140.873L168.943 146.07C169.009 146.253 169.187 146.37 169.379 146.366L176.032 146.206C176.225 146.201 176.398 146.075 176.455 145.887L178.135 140.605C180.717 139.934 183.126 138.854 185.295 137.436L190.337 139.746C190.516 139.826 190.722 139.788 190.858 139.647L195.45 134.83Z" fill="#BDD0FB"/>
<path d="M170.525 123.6C166.929 122.784 164.666 119.192 165.483 115.596C165.877 113.854 166.929 112.37 168.44 111.417C169.952 110.464 171.746 110.159 173.487 110.553C177.084 111.37 179.347 114.962 178.53 118.558C177.788 121.83 174.746 123.995 171.497 123.746C171.173 123.722 170.849 123.671 170.525 123.6ZM169.276 112.737C168.117 113.464 167.309 114.605 167.009 115.938C166.384 118.694 168.117 121.45 170.872 122.075C173.633 122.704 176.384 120.967 177.009 118.211C177.633 115.455 175.901 112.699 173.145 112.075C172.896 112.018 172.642 111.981 172.394 111.962C171.304 111.877 170.22 112.14 169.276 112.737Z" fill="url(#paint9_linear_63_176)"/>
<path d="M170.614 133.366C171.173 133.408 171.736 133.422 172.304 133.413C172.483 133.408 172.661 133.403 172.839 133.389C173.717 133.342 174.595 133.22 175.45 133.032C175.459 133.028 175.473 133.028 175.483 133.023C175.515 133.014 175.548 133.009 175.581 132.999C175.647 132.985 175.708 132.971 175.774 132.953C175.943 132.91 176.06 132.769 176.069 132.605C176.074 132.568 176.069 132.525 176.06 132.483C176.008 132.272 175.797 132.145 175.591 132.197C174.511 132.455 173.398 132.6 172.281 132.629C166.731 132.76 161.778 129.976 158.891 125.676C157.286 123.286 156.318 120.422 156.248 117.338C156.234 116.798 156.248 116.258 156.29 115.727C156.567 112.145 158.055 108.793 160.572 106.154C163.459 103.126 167.356 101.403 171.539 101.305C180.177 101.098 187.37 107.957 187.576 116.596C187.591 117.126 187.576 117.661 187.534 118.187C187.356 120.474 186.68 122.694 185.548 124.69C185.52 124.741 185.501 124.798 185.497 124.854C185.487 124.999 185.558 125.145 185.694 125.225C185.882 125.333 186.121 125.267 186.224 125.079C187.412 122.985 188.121 120.652 188.309 118.248C188.351 117.694 188.365 117.136 188.356 116.577C188.14 107.511 180.586 100.309 171.52 100.525C167.126 100.629 163.041 102.436 160.008 105.619C157.37 108.389 155.807 111.906 155.516 115.671C155.473 116.23 155.459 116.793 155.469 117.361C155.572 121.755 157.379 125.84 160.562 128.873C163.332 131.511 166.854 133.075 170.614 133.366Z" fill="url(#paint10_linear_63_176)"/>
<path d="M329.488 147.318C329.556 147.248 329.57 147.143 329.525 147.057L328.258 144.607C328.912 143.497 329.392 142.277 329.663 140.979L332.246 140.021C332.337 139.988 332.395 139.899 332.393 139.804L332.313 136.498C332.311 136.402 332.248 136.316 332.155 136.288L329.53 135.452C329.196 134.169 328.66 132.972 327.955 131.894L329.103 129.389C329.143 129.3 329.124 129.197 329.054 129.13L326.66 126.848C326.59 126.78 326.485 126.766 326.399 126.811L323.949 128.077C322.839 127.424 321.618 126.943 320.321 126.673L319.362 124.09C319.33 123.999 319.241 123.941 319.145 123.943L315.839 124.022C315.744 124.025 315.657 124.088 315.629 124.181L314.794 126.806C313.511 127.139 312.314 127.676 311.236 128.381L308.73 127.233C308.642 127.193 308.539 127.212 308.471 127.282L306.19 129.676C306.122 129.746 306.108 129.851 306.152 129.937L307.419 132.387C306.766 133.497 306.285 134.717 306.015 136.015L303.432 136.973C303.341 137.006 303.283 137.095 303.285 137.19L303.364 140.496C303.367 140.592 303.43 140.678 303.523 140.706L306.148 141.542C306.481 142.825 307.018 144.022 307.723 145.1L306.575 147.605C306.535 147.694 306.554 147.797 306.624 147.864L309.017 150.146C309.087 150.214 309.192 150.228 309.279 150.183L311.728 148.917C312.839 149.57 314.059 150.051 315.356 150.321L316.315 152.904C316.348 152.995 316.437 153.053 316.532 153.051L319.838 152.972C319.934 152.969 320.02 152.906 320.048 152.813L320.884 150.188C322.167 149.855 323.364 149.318 324.442 148.613L326.947 149.761C327.036 149.801 327.139 149.782 327.206 149.712L329.488 147.318Z" fill="#BDD0FB"/>
<path d="M317.102 141.738C315.314 141.332 314.19 139.547 314.596 137.76C314.792 136.894 315.314 136.157 316.066 135.683C316.817 135.21 317.708 135.058 318.574 135.254C320.361 135.66 321.485 137.445 321.08 139.232C320.711 140.858 319.199 141.934 317.585 141.81C317.424 141.798 317.263 141.773 317.102 141.738ZM316.481 136.339C315.905 136.7 315.503 137.267 315.354 137.93C315.044 139.299 315.905 140.669 317.274 140.979C318.646 141.292 320.013 140.429 320.324 139.059C320.634 137.69 319.773 136.32 318.403 136.01C318.28 135.982 318.154 135.963 318.03 135.954C317.489 135.912 316.95 136.042 316.481 136.339Z" fill="url(#paint11_linear_63_176)"/>
<path d="M317.146 146.59C317.424 146.611 317.704 146.618 317.986 146.614C318.075 146.611 318.163 146.609 318.252 146.602C318.688 146.579 319.125 146.518 319.549 146.425C319.554 146.423 319.561 146.423 319.566 146.42C319.582 146.416 319.598 146.413 319.615 146.409C319.647 146.402 319.678 146.395 319.71 146.385C319.794 146.364 319.853 146.294 319.857 146.213C319.86 146.194 319.857 146.173 319.853 146.152C319.827 146.047 319.722 145.984 319.619 146.01C319.083 146.138 318.53 146.21 317.974 146.224C315.217 146.29 312.755 144.906 311.32 142.769C310.522 141.581 310.042 140.158 310.007 138.625C310 138.357 310.007 138.089 310.028 137.825C310.165 136.045 310.905 134.379 312.156 133.068C313.59 131.563 315.527 130.707 317.606 130.658C321.899 130.555 325.473 133.964 325.576 138.257C325.583 138.52 325.576 138.786 325.555 139.048C325.466 140.184 325.13 141.287 324.568 142.279C324.554 142.305 324.544 142.333 324.542 142.361C324.537 142.433 324.572 142.505 324.64 142.545C324.733 142.599 324.852 142.566 324.904 142.473C325.494 141.432 325.846 140.272 325.94 139.078C325.961 138.803 325.968 138.525 325.963 138.247C325.856 133.742 322.102 130.163 317.596 130.27C315.413 130.322 313.383 131.22 311.876 132.802C310.564 134.178 309.788 135.926 309.643 137.797C309.622 138.075 309.615 138.355 309.62 138.637C309.671 140.821 310.569 142.851 312.151 144.358C313.527 145.669 315.277 146.446 317.146 146.59Z" fill="url(#paint12_linear_63_176)"/>
<defs>
<linearGradient id="paint0_linear_63_176" x1="280.229" y1="193.293" x2="344.936" y2="200.347" gradientUnits="userSpaceOnUse">
<stop stop-color="#444B8C"/>
<stop offset="0.9964" stop-color="#26264F"/>
</linearGradient>
<linearGradient id="paint1_linear_63_176" x1="283.173" y1="16.651" x2="471.443" y2="526.198" gradientUnits="userSpaceOnUse">
<stop stop-color="#FFC444"/>
<stop offset="0.9964" stop-color="#F36F56"/>
</linearGradient>
<linearGradient id="paint2_linear_63_176" x1="116.54" y1="181.946" x2="118.511" y2="187.263" gradientUnits="userSpaceOnUse">
<stop stop-color="#444B8C"/>
<stop offset="0.9964" stop-color="#26264F"/>
</linearGradient>
<linearGradient id="paint3_linear_63_176" x1="128.756" y1="196.066" x2="115.946" y2="196.066" gradientUnits="userSpaceOnUse">
<stop stop-color="#444B8C"/>
<stop offset="0.9964" stop-color="#26264F"/>
</linearGradient>
<linearGradient id="paint4_linear_63_176" x1="136.19" y1="210.69" x2="79.1271" y2="210.69" gradientUnits="userSpaceOnUse">
<stop stop-color="#FFC444"/>
<stop offset="0.9964" stop-color="#F36F56"/>
</linearGradient>
<linearGradient id="paint5_linear_63_176" x1="70.5006" y1="372.267" x2="50.0781" y2="396.386" gradientUnits="userSpaceOnUse">
<stop stop-color="#444B8C"/>
<stop offset="0.9964" stop-color="#3E4177"/>
</linearGradient>
<linearGradient id="paint6_linear_63_176" x1="83.2628" y1="383.073" x2="62.8403" y2="407.192" gradientUnits="userSpaceOnUse">
<stop stop-color="#444B8C"/>
<stop offset="0.9964" stop-color="#3E4177"/>
</linearGradient>
<linearGradient id="paint7_linear_63_176" x1="98.5131" y1="237.864" x2="21.7629" y2="237.864" gradientUnits="userSpaceOnUse">
<stop stop-color="#FFC444"/>
<stop offset="0.9964" stop-color="#F36F56"/>
</linearGradient>
<linearGradient id="paint8_linear_63_176" x1="207.953" y1="-59.9404" x2="282.54" y2="368.636" gradientUnits="userSpaceOnUse">
<stop stop-color="#FFC444"/>
<stop offset="0.229167" stop-color="#FFC444"/>
<stop offset="0.989583" stop-color="#F36F56"/>
</linearGradient>
<linearGradient id="paint9_linear_63_176" x1="165.318" y1="117.074" x2="178.698" y2="117.074" gradientUnits="userSpaceOnUse">
<stop stop-color="#DAE3FE"/>
<stop offset="1" stop-color="#E9EFFD"/>
</linearGradient>
<linearGradient id="paint10_linear_63_176" x1="155.466" y1="116.97" x2="188.362" y2="116.97" gradientUnits="userSpaceOnUse">
<stop stop-color="#DAE3FE"/>
<stop offset="1" stop-color="#E9EFFD"/>
</linearGradient>
<linearGradient id="paint11_linear_63_176" x1="314.514" y1="138.494" x2="321.163" y2="138.494" gradientUnits="userSpaceOnUse">
<stop stop-color="#DAE3FE"/>
<stop offset="1" stop-color="#E9EFFD"/>
</linearGradient>
<linearGradient id="paint12_linear_63_176" x1="309.618" y1="138.442" x2="325.966" y2="138.442" gradientUnits="userSpaceOnUse">
<stop stop-color="#DAE3FE"/>
<stop offset="1" stop-color="#E9EFFD"/>
</linearGradient>
</defs>
</svg>
