<svg width="155" height="95" viewBox="0 0 155 95" fill="none" xmlns="http://www.w3.org/2000/svg">
<path d="M152.749 0.95166H2.8633C2.28738 0.952305 1.73522 1.18138 1.32798 1.58862C0.920746 1.99585 0.691686 2.548 0.69104 3.12392V91.8761C0.691657 92.452 0.920715 93.0042 1.32796 93.4114C1.7352 93.8187 2.28737 94.0477 2.8633 94.0484H152.749C153.325 94.0477 153.877 93.8186 154.284 93.4114C154.692 93.0042 154.921 92.452 154.921 91.8761V3.12391C154.921 2.548 154.692 1.99587 154.284 1.58864C153.877 1.18141 153.325 0.95233 152.749 0.95166ZM154.301 91.8761C154.301 92.2876 154.137 92.6821 153.846 92.9731C153.555 93.264 153.161 93.4276 152.749 93.4277H2.8633C2.45183 93.4276 2.05727 93.264 1.76632 92.9731C1.47536 92.6821 1.31182 92.2876 1.31167 91.8761V3.12391C1.31185 2.71245 1.4754 2.31789 1.76634 2.02695C2.05729 1.736 2.45184 1.57248 2.8633 1.5723H152.749C153.161 1.57248 153.555 1.736 153.846 2.02695C154.137 2.31789 154.301 2.71245 154.301 3.12391V91.8761Z" fill="#3F3D56"/>
<path d="M154.189 19.5028H1.20007V20.1235H154.189V19.5028Z" fill="#3F3D56"/>
<path d="M46.0108 52.7593H22.0388C21.1977 52.7583 20.3912 52.4237 19.7964 51.8289C19.2017 51.2341 18.8671 50.4277 18.8661 49.5865V29.8449C18.8671 29.0038 19.2017 28.1973 19.7964 27.6025C20.3912 27.0077 21.1977 26.6732 22.0388 26.6722H46.0108C46.852 26.6731 47.6584 27.0077 48.2532 27.6025C48.848 28.1973 49.1826 29.0038 49.1835 29.8449V49.5865C49.1826 50.4277 48.848 51.2342 48.2532 51.829C47.6584 52.4238 46.852 52.7583 46.0108 52.7593ZM22.0388 27.3772C21.3846 27.378 20.7574 27.6382 20.2947 28.1008C19.8321 28.5634 19.5719 29.1907 19.5711 29.8449V49.5865C19.5719 50.2408 19.8321 50.868 20.2947 51.3307C20.7574 51.7933 21.3846 52.0535 22.0388 52.0542H46.0108C46.665 52.0535 47.2923 51.7932 47.7549 51.3306C48.2175 50.868 48.4777 50.2408 48.4785 49.5865V29.8449C48.4777 29.1907 48.2175 28.5635 47.7549 28.1009C47.2923 27.6382 46.665 27.378 46.0108 27.3772H22.0388Z" fill="#3F3D56"/>
<path d="M20.9717 60C20.3669 60 19.7868 60.2634 19.359 60.7323C18.9313 61.2011 18.691 61.837 18.691 62.5C18.691 63.1631 18.9313 63.799 19.359 64.2678C19.7868 64.7366 20.3669 65 20.9717 65H136.41C137.015 65 137.595 64.7366 138.023 64.2678C138.451 63.799 138.691 63.1631 138.691 62.5C138.691 61.837 138.451 61.2011 138.023 60.7323C137.595 60.2634 137.015 60 136.41 60H20.9717Z" fill="#E6E6E6"/>
<path d="M59.7629 36.1904C59.1551 36.1904 58.5723 36.4318 58.1426 36.8616C57.7129 37.2913 57.4714 37.8741 57.4714 38.4819C57.4714 39.0896 57.7129 39.6724 58.1426 40.1022C58.5723 40.5319 59.1551 40.7733 59.7629 40.7733H109.469C110.077 40.7733 110.66 40.5319 111.09 40.1022C111.519 39.6724 111.761 39.0896 111.761 38.4819C111.761 37.8741 111.519 37.2913 111.09 36.8616C110.66 36.4318 110.077 36.1904 109.469 36.1904H59.7629Z" fill="#A0616A"/>
<path d="M59.7629 48.1764C59.1551 48.1764 58.5723 48.4178 58.1426 48.8476C57.7129 49.2773 57.4714 49.8601 57.4714 50.4679C57.4714 51.0756 57.7129 51.6584 58.1426 52.0881C58.5723 52.5179 59.1551 52.7593 59.7629 52.7593H135.557C136.164 52.7593 136.747 52.5179 137.177 52.0881C137.607 51.6584 137.848 51.0756 137.848 50.4679C137.848 49.8601 137.607 49.2773 137.177 48.8476C136.747 48.4178 136.164 48.1764 135.557 48.1764H59.7629Z" fill="#A0616A"/>
<path d="M20.9717 72C20.3669 72 19.7868 72.2634 19.359 72.7323C18.9313 73.2011 18.691 73.837 18.691 74.5C18.691 75.1631 18.9313 75.799 19.359 76.2678C19.7868 76.7366 20.3669 77 20.9717 77H136.41C137.015 77 137.595 76.7366 138.023 76.2678C138.451 75.799 138.691 75.1631 138.691 74.5C138.691 73.837 138.451 73.2011 138.023 72.7323C137.595 72.2634 137.015 72 136.41 72H20.9717Z" fill="#E6E6E6"/>
<path d="M20.6323 84.1343C20.0245 84.1343 19.4417 84.3758 19.012 84.8055C18.5822 85.2352 18.3408 85.818 18.3408 86.4258C18.3408 87.0335 18.5822 87.6163 19.012 88.0461C19.4417 88.4758 20.0245 88.7172 20.6323 88.7172H136.614C137.222 88.7172 137.805 88.4758 138.234 88.0461C138.664 87.6163 138.906 87.0335 138.906 86.4258C138.906 85.818 138.664 85.2352 138.234 84.8055C137.805 84.3758 137.222 84.1343 136.614 84.1343H20.6323Z" fill="#E6E6E6"/>
<path d="M33.7413 49.5638C39.1546 49.5638 43.543 45.1754 43.543 39.762C43.543 34.3486 39.1546 29.9602 33.7413 29.9602C28.3279 29.9602 23.9395 34.3486 23.9395 39.762C23.9395 45.1754 28.3279 49.5638 33.7413 49.5638Z" fill="#2F2E41"/>
<path d="M33.9963 50.6005C38.0253 50.6005 41.2915 47.3343 41.2915 43.3053C41.2915 39.2762 38.0253 36.01 33.9963 36.01C29.9672 36.01 26.701 39.2762 26.701 43.3053C26.701 47.3343 29.9672 50.6005 33.9963 50.6005Z" fill="#FFB6B6"/>
<path d="M26.7186 38.6529C29.5676 40.392 32.7795 41.4503 36.1043 41.7455L35.115 40.56C35.8354 40.8264 36.5934 40.9769 37.3608 41.006C37.7451 41.0171 38.1266 40.938 38.4747 40.7751C38.8229 40.6121 39.128 40.3698 39.3656 40.0676C39.5597 39.7538 39.6749 39.3977 39.7016 39.0298C39.7283 38.6618 39.6655 38.2928 39.5187 37.9543C39.2172 37.2791 38.748 36.6924 38.1556 36.2498C37.1056 35.4192 35.8664 34.8613 34.5485 34.6257C33.2305 34.3902 31.8748 34.4844 30.6021 34.8999C29.7291 35.1608 28.9472 35.6623 28.346 36.347C28.0505 36.6919 27.8453 37.1048 27.7487 37.5486C27.6522 37.9924 27.6673 38.4533 27.7928 38.8898" fill="#2F2E41"/>
</svg>
