<svg width="156" height="95" viewBox="0 0 156 95" fill="none" xmlns="http://www.w3.org/2000/svg">
<path d="M152.979 0.95166H3.09365C2.51773 0.952305 1.96557 1.18138 1.55833 1.58862C1.15109 1.99585 0.922032 2.548 0.921387 3.12392V91.8761C0.922004 92.452 1.15106 93.0042 1.55831 93.4114C1.96555 93.8187 2.51772 94.0477 3.09365 94.0484H152.979C153.555 94.0477 154.108 93.8186 154.515 93.4114C154.922 93.0042 155.151 92.452 155.152 91.8761V3.12391C155.151 2.548 154.922 1.99587 154.515 1.58864C154.107 1.18141 153.555 0.95233 152.979 0.95166ZM154.531 91.8761C154.531 92.2876 154.367 92.6821 154.076 92.9731C153.786 93.264 153.391 93.4276 152.979 93.4277H3.09365C2.68218 93.4276 2.28761 93.264 1.99666 92.9731C1.70571 92.6821 1.54217 92.2876 1.54202 91.8761V3.12391C1.5422 2.71245 1.70574 2.31789 1.99669 2.02695C2.28763 1.736 2.68219 1.57248 3.09365 1.5723H152.979C153.391 1.57248 153.785 1.736 154.076 2.02695C154.367 2.31789 154.531 2.71245 154.531 3.12391V91.8761Z" fill="#3F3D56"/>
<path d="M154.419 19.5028H1.43042V20.1235H154.419V19.5028Z" fill="#3F3D56"/>
<path d="M46.2411 52.7593H22.2692C21.428 52.7583 20.6216 52.4237 20.0268 51.8289C19.432 51.2341 19.0974 50.4277 19.0964 49.5865V29.8449C19.0974 29.0038 19.432 28.1973 20.0268 27.6025C20.6216 27.0077 21.428 26.6732 22.2692 26.6722H46.2411C47.0823 26.6731 47.8888 27.0077 48.4836 27.6025C49.0784 28.1973 49.4129 29.0038 49.4139 29.8449V49.5865C49.4129 50.4277 49.0784 51.2342 48.4836 51.829C47.8888 52.4238 47.0823 52.7583 46.2411 52.7593ZM22.2692 27.3772C21.6149 27.378 20.9877 27.6382 20.5251 28.1008C20.0625 28.5634 19.8022 29.1907 19.8015 29.8449V49.5865C19.8022 50.2408 20.0625 50.868 20.5251 51.3307C20.9877 51.7933 21.6149 52.0535 22.2692 52.0542H46.2411C46.8954 52.0535 47.5226 51.7932 47.9852 51.3306C48.4478 50.868 48.7081 50.2408 48.7088 49.5865V29.8449C48.7081 29.1907 48.4478 28.5635 47.9852 28.1009C47.5226 27.6382 46.8954 27.378 46.2411 27.3772H22.2692Z" fill="#3F3D56"/>
<path d="M21.2021 60C20.5972 60 20.0171 60.2634 19.5894 60.7323C19.1617 61.2011 18.9214 61.837 18.9214 62.5C18.9214 63.1631 19.1617 63.799 19.5894 64.2678C20.0171 64.7366 20.5972 65 21.2021 65H136.641C137.246 65 137.826 64.7366 138.253 64.2678C138.681 63.799 138.921 63.1631 138.921 62.5C138.921 61.837 138.681 61.2011 138.253 60.7323C137.826 60.2634 137.246 60 136.641 60H21.2021Z" fill="#E6E6E6"/>
<path d="M59.9932 36.1904C59.3855 36.1904 58.8027 36.4318 58.3729 36.8616C57.9432 37.2913 57.7018 37.8741 57.7018 38.4819C57.7018 39.0896 57.9432 39.6724 58.3729 40.1022C58.8027 40.5319 59.3855 40.7733 59.9932 40.7733H109.7C110.307 40.7733 110.89 40.5319 111.32 40.1022C111.75 39.6724 111.991 39.0896 111.991 38.4819C111.991 37.8741 111.75 37.2913 111.32 36.8616C110.89 36.4318 110.307 36.1904 109.7 36.1904H59.9932Z" fill="#9747FF"/>
<path d="M59.9932 48.1764C59.3855 48.1764 58.8027 48.4178 58.3729 48.8476C57.9432 49.2773 57.7018 49.8601 57.7018 50.4679C57.7018 51.0756 57.9432 51.6584 58.3729 52.0881C58.8027 52.5179 59.3855 52.7593 59.9932 52.7593H135.787C136.395 52.7593 136.977 52.5179 137.407 52.0881C137.837 51.6584 138.078 51.0756 138.078 50.4679C138.078 49.8601 137.837 49.2773 137.407 48.8476C136.977 48.4178 136.395 48.1764 135.787 48.1764H59.9932Z" fill="#9747FF"/>
<path d="M21.2021 72C20.5972 72 20.0171 72.2634 19.5894 72.7323C19.1617 73.2011 18.9214 73.837 18.9214 74.5C18.9214 75.1631 19.1617 75.799 19.5894 76.2678C20.0171 76.7366 20.5972 77 21.2021 77H136.641C137.246 77 137.826 76.7366 138.253 76.2678C138.681 75.799 138.921 75.1631 138.921 74.5C138.921 73.837 138.681 73.2011 138.253 72.7323C137.826 72.2634 137.246 72 136.641 72H21.2021Z" fill="#E6E6E6"/>
<path d="M20.8626 84.1343C20.2549 84.1343 19.672 84.3758 19.2423 84.8055C18.8126 85.2352 18.5712 85.818 18.5712 86.4258C18.5712 87.0335 18.8126 87.6163 19.2423 88.0461C19.672 88.4758 20.2549 88.7172 20.8626 88.7172H136.845C137.452 88.7172 138.035 88.4758 138.465 88.0461C138.895 87.6163 139.136 87.0335 139.136 86.4258C139.136 85.818 138.895 85.2352 138.465 84.8055C138.035 84.3758 137.452 84.1343 136.845 84.1343H20.8626Z" fill="#E6E6E6"/>
<path d="M33.9716 49.5638C39.385 49.5638 43.7734 45.1754 43.7734 39.762C43.7734 34.3486 39.385 29.9602 33.9716 29.9602C28.5582 29.9602 24.1698 34.3486 24.1698 39.762C24.1698 45.1754 28.5582 49.5638 33.9716 49.5638Z" fill="#2F2E41"/>
<path d="M34.2266 50.6005C38.2557 50.6005 41.5218 47.3343 41.5218 43.3053C41.5218 39.2762 38.2557 36.01 34.2266 36.01C30.1976 36.01 26.9314 39.2762 26.9314 43.3053C26.9314 47.3343 30.1976 50.6005 34.2266 50.6005Z" fill="#FFB6B6"/>
<path d="M26.949 38.6529C29.798 40.392 33.0099 41.4503 36.3347 41.7455L35.3453 40.56C36.0657 40.8264 36.8237 40.9769 37.5912 41.006C37.9754 41.0171 38.3569 40.938 38.7051 40.7751C39.0533 40.6121 39.3584 40.3698 39.596 40.0676C39.79 39.7538 39.9053 39.3977 39.9319 39.0298C39.9586 38.6618 39.8959 38.2928 39.7491 37.9543C39.4476 37.2791 38.9783 36.6924 38.3859 36.2498C37.3359 35.4192 36.0967 34.8613 34.7788 34.6257C33.4609 34.3902 32.1051 34.4844 30.8324 34.8999C29.9594 35.1608 29.1775 35.6623 28.5764 36.347C28.2809 36.6919 28.0756 37.1048 27.9791 37.5486C27.8825 37.9924 27.8977 38.4533 28.0232 38.8898" fill="#2F2E41"/>
</svg>
