<svg width="164" height="105" viewBox="0 0 164 105" fill="none" xmlns="http://www.w3.org/2000/svg">
<rect width="154.23" height="93.0967" transform="translate(0 0.95166)" fill="white"/>
<path d="M152.058 0.95166H2.17226C1.59634 0.952305 1.04418 1.18138 0.636944 1.58862C0.229706 1.99585 0.000645669 2.548 0 3.12392V91.8761C0.000617004 92.452 0.229675 93.0042 0.636919 93.4114C1.04416 93.8187 1.59633 94.0477 2.17226 94.0484H152.058C152.634 94.0477 153.186 93.8186 153.593 93.4114C154.001 93.0042 154.23 92.452 154.23 91.8761V3.12391C154.23 2.548 154.001 1.99587 153.593 1.58864C153.186 1.18141 152.634 0.95233 152.058 0.95166ZM153.61 91.8761C153.61 92.2876 153.446 92.6821 153.155 92.9731C152.864 93.264 152.47 93.4276 152.058 93.4277H2.17226C1.76079 93.4276 1.36623 93.264 1.07528 92.9731C0.784325 92.6821 0.620781 92.2876 0.620632 91.8761V3.12391C0.62081 2.71245 0.784356 2.31789 1.0753 2.02695C1.36625 1.736 1.7608 1.57248 2.17226 1.5723H152.058C152.47 1.57248 152.864 1.736 153.155 2.02695C153.446 2.31789 153.61 2.71245 153.61 3.12391V91.8761Z" fill="#3F3D56"/>
<path d="M153.498 19.5028H0.509033V20.1235H153.498V19.5028Z" fill="#3F3D56"/>
<path d="M45.3198 52.7593H21.3478C20.5066 52.7583 19.7002 52.4237 19.1054 51.8289C18.5106 51.2341 18.176 50.4277 18.175 49.5865V29.8449C18.176 29.0038 18.5106 28.1973 19.1054 27.6025C19.7002 27.0077 20.5066 26.6732 21.3478 26.6722H45.3198C46.1609 26.6731 46.9674 27.0077 47.5622 27.6025C48.157 28.1973 48.4916 29.0038 48.4925 29.8449V49.5865C48.4916 50.4277 48.157 51.2342 47.5622 51.829C46.9674 52.4238 46.1609 52.7583 45.3198 52.7593ZM21.3478 27.3772C20.6936 27.378 20.0663 27.6382 19.6037 28.1008C19.1411 28.5634 18.8808 29.1907 18.8801 29.8449V49.5865C18.8808 50.2408 19.1411 50.868 19.6037 51.3307C20.0663 51.7933 20.6936 52.0535 21.3478 52.0542H45.3198C45.974 52.0535 46.6012 51.7932 47.0638 51.3306C47.5265 50.868 47.7867 50.2408 47.7875 49.5865V29.8449C47.7867 29.1907 47.5265 28.5635 47.0638 28.1009C46.6012 27.6382 45.974 27.378 45.3198 27.3772H21.3478Z" fill="#3F3D56"/>
<path d="M20.2807 60C19.6758 60 19.0957 60.2634 18.668 60.7323C18.2403 61.2011 18 61.837 18 62.5C18 63.1631 18.2403 63.799 18.668 64.2678C19.0957 64.7366 19.6758 65 20.2807 65H135.719C136.324 65 136.904 64.7366 137.332 64.2678C137.76 63.799 138 63.1631 138 62.5C138 61.837 137.76 61.2011 137.332 60.7323C136.904 60.2634 136.324 60 135.719 60H20.2807Z" fill="#E6E6E6"/>
<path d="M59.0717 36.1904C58.464 36.1904 57.8811 36.4318 57.4514 36.8616C57.0217 37.2913 56.7803 37.8741 56.7803 38.4819C56.7803 39.0896 57.0217 39.6724 57.4514 40.1022C57.8811 40.5319 58.464 40.7733 59.0717 40.7733H108.778C109.386 40.7733 109.969 40.5319 110.399 40.1022C110.828 39.6724 111.07 39.0896 111.07 38.4819C111.07 37.8741 110.828 37.2913 110.399 36.8616C109.969 36.4318 109.386 36.1904 108.778 36.1904H59.0717Z" fill="#FABB30"/>
<path d="M59.0717 48.1764C58.464 48.1764 57.8811 48.4178 57.4514 48.8476C57.0217 49.2773 56.7803 49.8601 56.7803 50.4679C56.7803 51.0756 57.0217 51.6584 57.4514 52.0881C57.8811 52.5179 58.464 52.7593 59.0717 52.7593H134.865C135.473 52.7593 136.056 52.5179 136.486 52.0881C136.915 51.6584 137.157 51.0756 137.157 50.4679C137.157 49.8601 136.915 49.2773 136.486 48.8476C136.056 48.4178 135.473 48.1764 134.865 48.1764H59.0717Z" fill="#FABB30"/>
<path d="M20.2807 72C19.6758 72 19.0957 72.2634 18.668 72.7323C18.2403 73.2011 18 73.837 18 74.5C18 75.1631 18.2403 75.799 18.668 76.2678C19.0957 76.7366 19.6758 77 20.2807 77H135.719C136.324 77 136.904 76.7366 137.332 76.2678C137.76 75.799 138 75.1631 138 74.5C138 73.837 137.76 73.2011 137.332 72.7323C136.904 72.2634 136.324 72 135.719 72H20.2807Z" fill="#E6E6E6"/>
<path d="M19.9411 84.1343C19.3334 84.1343 18.7505 84.3758 18.3208 84.8055C17.8911 85.2352 17.6497 85.818 17.6497 86.4258C17.6497 87.0335 17.8911 87.6163 18.3208 88.0461C18.7505 88.4758 19.3334 88.7172 19.9411 88.7172H135.923C136.531 88.7172 137.114 88.4758 137.543 88.0461C137.973 87.6163 138.214 87.0335 138.214 86.4258C138.214 85.818 137.973 85.2352 137.543 84.8055C137.114 84.3758 136.531 84.1343 135.923 84.1343H19.9411Z" fill="#E6E6E6"/>
<path d="M33.0501 49.5638C38.4635 49.5638 42.8519 45.1754 42.8519 39.762C42.8519 34.3486 38.4635 29.9602 33.0501 29.9602C27.6367 29.9602 23.2483 34.3486 23.2483 39.762C23.2483 45.1754 27.6367 49.5638 33.0501 49.5638Z" fill="#2F2E41"/>
<path d="M33.305 50.6005C37.334 50.6005 40.6002 47.3343 40.6002 43.3053C40.6002 39.2762 37.334 36.01 33.305 36.01C29.2759 36.01 26.0098 39.2762 26.0098 43.3053C26.0098 47.3343 29.2759 50.6005 33.305 50.6005Z" fill="#FFB6B6"/>
<path d="M26.0276 38.6529C28.8766 40.392 32.0885 41.4503 35.4133 41.7455L34.424 40.56C35.1443 40.8264 35.9023 40.9769 36.6698 41.006C37.054 41.0171 37.4355 40.938 37.7837 40.7751C38.1319 40.6121 38.437 40.3698 38.6746 40.0676C38.8686 39.7538 38.9839 39.3977 39.0106 39.0298C39.0372 38.6618 38.9745 38.2928 38.8277 37.9543C38.5262 37.2791 38.0569 36.6924 37.4646 36.2498C36.4145 35.4192 35.1754 34.8613 33.8574 34.6257C32.5395 34.3902 31.1837 34.4844 29.911 34.8999C29.038 35.1608 28.2562 35.6623 27.655 36.347C27.3595 36.6919 27.1543 37.1048 27.0577 37.5486C26.9611 37.9924 26.9763 38.4533 27.1018 38.8898" fill="#2F2E41"/>
<rect x="142.25" y="83.2017" width="21.5" height="21.5" rx="10.75" fill="#5CB85C"/>
<path d="M157 90.9517L151.5 96.4517L149 93.9517" stroke="white" stroke-width="2" stroke-linecap="round" stroke-linejoin="round"/>
<rect x="142.25" y="83.2017" width="21.5" height="21.5" rx="10.75" stroke="black" stroke-width="0.5"/>
</svg>
