<svg width="155" height="95" viewBox="0 0 155 95" fill="none" xmlns="http://www.w3.org/2000/svg">
<path d="M152.288 0.95166H2.40261C1.82669 0.952305 1.27453 1.18138 0.86729 1.58862C0.460052 1.99585 0.230992 2.548 0.230347 3.12392V91.8761C0.230964 92.452 0.460022 93.0042 0.867266 93.4114C1.27451 93.8187 1.82668 94.0477 2.40261 94.0484H152.288C152.864 94.0477 153.417 93.8186 153.824 93.4114C154.231 93.0042 154.46 92.452 154.461 91.8761V3.12391C154.46 2.548 154.231 1.99587 153.824 1.58864C153.416 1.18141 152.864 0.95233 152.288 0.95166ZM153.84 91.8761C153.84 92.2876 153.676 92.6821 153.385 92.9731C153.094 93.264 152.7 93.4276 152.288 93.4277H2.40261C1.99114 93.4276 1.59657 93.264 1.30562 92.9731C1.01467 92.6821 0.851128 92.2876 0.850979 91.8761V3.12391C0.851156 2.71245 1.0147 2.31789 1.30565 2.02695C1.59659 1.736 1.99115 1.57248 2.40261 1.5723H152.288C152.7 1.57248 153.094 1.736 153.385 2.02695C153.676 2.31789 153.84 2.71245 153.84 3.12391V91.8761Z" fill="#3F3D56"/>
<path d="M153.728 19.5028H0.73938V20.1235H153.728V19.5028Z" fill="#3F3D56"/>
<path d="M45.5501 52.7593H21.5782C20.737 52.7583 19.9305 52.4237 19.3358 51.8289C18.741 51.2341 18.4064 50.4277 18.4054 49.5865V29.8449C18.4064 29.0038 18.741 28.1973 19.3358 27.6025C19.9305 27.0077 20.737 26.6732 21.5782 26.6722H45.5501C46.3913 26.6731 47.1977 27.0077 47.7925 27.6025C48.3873 28.1973 48.7219 29.0038 48.7229 29.8449V49.5865C48.7219 50.4277 48.3873 51.2342 47.7925 51.829C47.1977 52.4238 46.3913 52.7583 45.5501 52.7593ZM21.5782 27.3772C20.9239 27.378 20.2967 27.6382 19.834 28.1008C19.3714 28.5634 19.1112 29.1907 19.1105 29.8449V49.5865C19.1112 50.2408 19.3714 50.868 19.834 51.3307C20.2967 51.7933 20.9239 52.0535 21.5782 52.0542H45.5501C46.2043 52.0535 46.8316 51.7932 47.2942 51.3306C47.7568 50.868 48.017 50.2408 48.0178 49.5865V29.8449C48.017 29.1907 47.7568 28.5635 47.2942 28.1009C46.8316 27.6382 46.2043 27.378 45.5501 27.3772H21.5782Z" fill="#3F3D56"/>
<path d="M20.511 60C19.9062 60 19.3261 60.2634 18.8983 60.7323C18.4706 61.2011 18.2303 61.837 18.2303 62.5C18.2303 63.1631 18.4706 63.799 18.8983 64.2678C19.3261 64.7366 19.9062 65 20.511 65H135.95C136.555 65 137.135 64.7366 137.562 64.2678C137.99 63.799 138.23 63.1631 138.23 62.5C138.23 61.837 137.99 61.2011 137.562 60.7323C137.135 60.2634 136.555 60 135.95 60H20.511Z" fill="#E6E6E6"/>
<path d="M59.3022 36.1904C58.6945 36.1904 58.1116 36.4318 57.6819 36.8616C57.2522 37.2913 57.0107 37.8741 57.0107 38.4819C57.0107 39.0896 57.2522 39.6724 57.6819 40.1022C58.1116 40.5319 58.6945 40.7733 59.3022 40.7733H109.009C109.616 40.7733 110.199 40.5319 110.629 40.1022C111.059 39.6724 111.3 39.0896 111.3 38.4819C111.3 37.8741 111.059 37.2913 110.629 36.8616C110.199 36.4318 109.616 36.1904 109.009 36.1904H59.3022Z" fill="#6C63FF"/>
<path d="M59.3022 48.1764C58.6945 48.1764 58.1116 48.4178 57.6819 48.8476C57.2522 49.2773 57.0107 49.8601 57.0107 50.4679C57.0107 51.0756 57.2522 51.6584 57.6819 52.0881C58.1116 52.5179 58.6945 52.7593 59.3022 52.7593H135.096C135.704 52.7593 136.286 52.5179 136.716 52.0881C137.146 51.6584 137.387 51.0756 137.387 50.4679C137.387 49.8601 137.146 49.2773 136.716 48.8476C136.286 48.4178 135.704 48.1764 135.096 48.1764H59.3022Z" fill="#6C63FF"/>
<path d="M20.511 72C19.9062 72 19.3261 72.2634 18.8983 72.7323C18.4706 73.2011 18.2303 73.837 18.2303 74.5C18.2303 75.1631 18.4706 75.799 18.8983 76.2678C19.3261 76.7366 19.9062 77 20.511 77H135.95C136.555 77 137.135 76.7366 137.562 76.2678C137.99 75.799 138.23 75.1631 138.23 74.5C138.23 73.837 137.99 73.2011 137.562 72.7323C137.135 72.2634 136.555 72 135.95 72H20.511Z" fill="#E6E6E6"/>
<path d="M20.1716 84.1343C19.5638 84.1343 18.981 84.3758 18.5513 84.8055C18.1215 85.2352 17.8801 85.818 17.8801 86.4258C17.8801 87.0335 18.1215 87.6163 18.5513 88.0461C18.981 88.4758 19.5638 88.7172 20.1716 88.7172H136.153C136.761 88.7172 137.344 88.4758 137.774 88.0461C138.203 87.6163 138.445 87.0335 138.445 86.4258C138.445 85.818 138.203 85.2352 137.774 84.8055C137.344 84.3758 136.761 84.1343 136.153 84.1343H20.1716Z" fill="#E6E6E6"/>
<path d="M33.2806 49.5638C38.6939 49.5638 43.0824 45.1754 43.0824 39.762C43.0824 34.3486 38.6939 29.9602 33.2806 29.9602C27.8672 29.9602 23.4788 34.3486 23.4788 39.762C23.4788 45.1754 27.8672 49.5638 33.2806 49.5638Z" fill="#2F2E41"/>
<path d="M33.5356 50.6005C37.5646 50.6005 40.8308 47.3343 40.8308 43.3053C40.8308 39.2762 37.5646 36.01 33.5356 36.01C29.5065 36.01 26.2404 39.2762 26.2404 43.3053C26.2404 47.3343 29.5065 50.6005 33.5356 50.6005Z" fill="#FFB6B6"/>
<path d="M26.2579 38.6529C29.1069 40.392 32.3188 41.4503 35.6437 41.7455L34.6543 40.56C35.3747 40.8264 36.1327 40.9769 36.9001 41.006C37.2844 41.0171 37.6659 40.938 38.0141 40.7751C38.3622 40.6121 38.6673 40.3698 38.9049 40.0676C39.099 39.7538 39.2142 39.3977 39.2409 39.0298C39.2676 38.6618 39.2048 38.2928 39.0581 37.9543C38.7565 37.2791 38.2873 36.6924 37.6949 36.2498C36.6449 35.4192 35.4057 34.8613 34.0878 34.6257C32.7698 34.3902 31.4141 34.4844 30.1414 34.8999C29.2684 35.1608 28.4865 35.6623 27.8854 36.347C27.5898 36.6919 27.3846 37.1048 27.288 37.5486C27.1915 37.9924 27.2066 38.4533 27.3321 38.8898" fill="#2F2E41"/>
</svg>
